<svg version="1.1" viewBox="0.0 0.0 764.0 276.0" fill="none" stroke="none" stroke-linecap="square" stroke-miterlimit="10" xmlns:xlink="http://www.w3.org/1999/xlink" xmlns="http://www.w3.org/2000/svg"><clipPath id="p.0"><path d="m0 0l764.0 0l0 276.0l-764.0 0l0 -276.0z" clip-rule="nonzero"/></clipPath><g clip-path="url(#p.0)"><path fill="#000000" fill-opacity="0.0" d="m0 0l764.0 0l0 276.0l-764.0 0z" fill-rule="evenodd"/><path fill="#000000" fill-opacity="0.0" d="m290.1811 36.78122l0 0c0 -3.11895 2.5284119 -5.6473618 5.6473694 -5.6473618l178.53204 0c1.4977722 0 2.934204 0.59498787 3.9932861 1.6540756c1.059082 1.0590858 1.6540833 2.495514 1.6540833 3.9932861l0 61.55567c0 3.11895 -2.5284119 5.6473618 -5.6473694 5.6473618l-178.53204 0c-3.1189575 0 -5.6473694 -2.5284119 -5.6473694 -5.6473618z" fill-rule="evenodd"/><path stroke="#674ea7" stroke-width="1.0" stroke-linejoin="round" stroke-linecap="butt" d="m290.1811 36.78122l0 0c0 -3.11895 2.5284119 -5.6473618 5.6473694 -5.6473618l178.53204 0c1.4977722 0 2.934204 0.59498787 3.9932861 1.6540756c1.059082 1.0590858 1.6540833 2.495514 1.6540833 3.9932861l0 61.55567c0 3.11895 -2.5284119 5.6473618 -5.6473694 5.6473618l-178.53204 0c-3.1189575 0 -5.6473694 -2.5284119 -5.6473694 -5.6473618z" fill-rule="evenodd"/><path fill="#000000" d="m370.2946 74.47905l-5.171875 -13.359371l1.921875 0l3.46875 9.703121q0.421875 1.171875 0.703125 2.1875q0.3125 -1.09375 0.71875 -2.1875l3.609375 -9.703121l1.796875 0l-5.234375 13.359371l-1.8125 0zm8.090698 -11.468746l0 -1.890625l1.640625 0l0 1.890625l-1.640625 0zm0 11.468746l0 -9.671875l1.640625 0l0 9.671875l-1.640625 0zm10.769836 -3.109375l1.6875 0.203125q-0.40625 1.484375 -1.484375 2.3125q-1.078125 0.8125 -2.765625 0.8125q-2.125 0 -3.375 -1.296875q-1.234375 -1.3125 -1.234375 -3.671875q0 -2.453125 1.25 -3.796875q1.265625 -1.34375 3.265625 -1.34375q1.9375 0 3.15625 1.328125q1.234375 1.3125 1.234375 3.703125q0 0.15625 0 0.4375l-7.21875 0q0.09375 1.59375 0.90625 2.453125q0.8125 0.84375 2.015625 0.84375q0.90625 0 1.546875 -0.46875q0.640625 -0.484375 1.015625 -1.515625zm-5.390625 -2.65625l5.40625 0q-0.109375 -1.21875 -0.625 -1.828125q-0.78125 -0.953125 -2.03125 -0.953125q-1.125 0 -1.90625 0.765625q-0.765625 0.75 -0.84375 2.015625zm10.922577 5.765625l-2.96875 -9.671875l1.703125 0l1.53125 5.578125l0.578125 2.078125q0.046875 -0.15625 0.5 -2.0l1.546875 -5.65625l1.6875 0l1.4375 5.609375l0.484375 1.84375l0.5625 -1.859375l1.65625 -5.59375l1.59375 0l-3.03125 9.671875l-1.703125 0l-1.53125 -5.796875l-0.375 -1.640625l-1.953125 7.4375l-1.71875 0z" fill-rule="nonzero"/><path fill="#000000" fill-opacity="0.0" d="m442.3622 179.51857l0 0c0 -3.1782837 2.5765076 -5.7547913 5.7547913 -5.7547913l178.12817 0c1.5263062 0 2.9900513 0.606308 4.069275 1.6855469c1.0792236 1.0792236 1.6855469 2.542984 1.6855469 4.0692444l0 62.72664c0 3.1782837 -2.576538 5.7547913 -5.754822 5.7547913l-178.12817 0c-3.1782837 0 -5.7547913 -2.5765076 -5.7547913 -5.7547913z" fill-rule="evenodd"/><path stroke="#674ea7" stroke-width="1.0" stroke-linejoin="round" stroke-linecap="butt" d="m442.3622 179.51857l0 0c0 -3.1782837 2.5765076 -5.7547913 5.7547913 -5.7547913l178.12817 0c1.5263062 0 2.9900513 0.606308 4.069275 1.6855469c1.0792236 1.0792236 1.6855469 2.542984 1.6855469 4.0692444l0 62.72664c0 3.1782837 -2.576538 5.7547913 -5.754822 5.7547913l-178.12817 0c-3.1782837 0 -5.7547913 -2.5765076 -5.7547913 -5.7547913z" fill-rule="evenodd"/><path fill="#000000" d="m507.7128 213.11438l1.765625 0.453125q-0.5625 2.171875 -2.0 3.328125q-1.4375 1.140625 -3.53125 1.140625q-2.15625 0 -3.515625 -0.875q-1.34375 -0.890625 -2.0625 -2.546875q-0.703125 -1.671875 -0.703125 -3.59375q0 -2.078125 0.796875 -3.625q0.796875 -1.5625 2.265625 -2.359375q1.484375 -0.8125 3.25 -0.8125q2.0 0 3.359375 1.015625q1.375 1.015625 1.90625 2.875l-1.734375 0.40625q-0.46875 -1.453125 -1.359375 -2.109375q-0.875 -0.671875 -2.203125 -0.671875q-1.546875 0 -2.578125 0.734375q-1.03125 0.734375 -1.453125 1.984375q-0.421875 1.234375 -0.421875 2.5625q0 1.703125 0.5 2.96875q0.5 1.265625 1.546875 1.90625q1.046875 0.625 2.265625 0.625q1.484375 0 2.515625 -0.859375q1.03125 -0.859375 1.390625 -2.546875zm3.129181 -0.15625q0 -2.6875 1.484375 -3.96875q1.25 -1.078125 3.046875 -1.078125q2.0 0 3.265625 1.3125q1.265625 1.296875 1.265625 3.609375q0 1.859375 -0.5625 2.9375q-0.5625 1.0625 -1.640625 1.65625q-1.0625 0.59375 -2.328125 0.59375q-2.03125 0 -3.28125 -1.296875q-1.25 -1.3125 -1.25 -3.765625zm1.6875 0q0 1.859375 0.796875 2.796875q0.8125 0.921875 2.046875 0.921875q1.21875 0 2.03125 -0.921875q0.8125 -0.9375 0.8125 -2.84375q0 -1.796875 -0.8125 -2.71875q-0.8125 -0.921875 -2.03125 -0.921875q-1.234375 0 -2.046875 0.921875q-0.796875 0.90625 -0.796875 2.765625zm9.297607 4.84375l0 -9.671875l1.46875 0l0 1.375q1.0625 -1.59375 3.078125 -1.59375q0.875 0 1.609375 0.3125q0.734375 0.3125 1.09375 0.828125q0.375 0.5 0.515625 1.203125q0.09375 0.453125 0.09375 1.59375l0 5.953125l-1.640625 0l0 -5.890625q0 -1.0 -0.203125 -1.484375q-0.1875 -0.5 -0.671875 -0.796875q-0.484375 -0.296875 -1.140625 -0.296875q-1.046875 0 -1.8125 0.671875q-0.75 0.65625 -0.75 2.515625l0 5.28125l-1.640625 0zm13.953857 -1.46875l0.234375 1.453125q-0.6875 0.140625 -1.234375 0.140625q-0.890625 0 -1.390625 -0.28125q-0.484375 -0.28125 -0.6875 -0.734375q-0.203125 -0.46875 -0.203125 -1.9375l0 -5.578125l-1.203125 0l0 -1.265625l1.203125 0l0 -2.390625l1.625 -0.984375l0 3.375l1.65625 0l0 1.265625l-1.65625 0l0 5.671875q0 0.6875 0.078125 0.890625q0.09375 0.203125 0.28125 0.328125q0.203125 0.109375 0.578125 0.109375q0.265625 0 0.71875 -0.0625zm1.5895386 1.46875l0 -9.671875l1.46875 0l0 1.46875q0.5625 -1.03125 1.03125 -1.359375q0.484375 -0.328125 1.0625 -0.328125q0.828125 0 1.6875 0.53125l-0.5625 1.515625q-0.609375 -0.359375 -1.203125 -0.359375q-0.546875 0 -0.96875 0.328125q-0.421875 0.328125 -0.609375 0.890625q-0.28125 0.875 -0.28125 1.921875l0 5.0625l-1.625 0zm5.6188965 -4.84375q0 -2.6875 1.484375 -3.96875q1.25 -1.078125 3.046875 -1.078125q2.0 0 3.265625 1.3125q1.265625 1.296875 1.265625 3.609375q0 1.859375 -0.5625 2.9375q-0.5625 1.0625 -1.640625 1.65625q-1.0625 0.59375 -2.328125 0.59375q-2.03125 0 -3.28125 -1.296875q-1.25 -1.3125 -1.25 -3.765625zm1.6875 0q0 1.859375 0.796875 2.796875q0.8125 0.921875 2.046875 0.921875q1.21875 0 2.03125 -0.921875q0.8125 -0.9375 0.8125 -2.84375q0 -1.796875 -0.8125 -2.71875q-0.8125 -0.921875 -2.03125 -0.921875q-1.234375 0 -2.046875 0.921875q-0.796875 0.90625 -0.796875 2.765625zm9.250732 4.84375l0 -13.359375l1.640625 0l0 13.359375l-1.640625 0zm4.1448364 0l0 -13.359375l1.640625 0l0 13.359375l-1.640625 0zm10.816711 -3.109375l1.6875 0.203125q-0.40625 1.484375 -1.484375 2.3125q-1.078125 0.8125 -2.765625 0.8125q-2.125 0 -3.375 -1.296875q-1.234375 -1.3125 -1.234375 -3.671875q0 -2.453125 1.25 -3.796875q1.265625 -1.34375 3.265625 -1.34375q1.9375 0 3.15625 1.328125q1.234375 1.3125 1.234375 3.703125q0 0.15625 0 0.4375l-7.21875 0q0.09375 1.59375 0.90625 2.453125q0.8125 0.84375 2.015625 0.84375q0.90625 0 1.546875 -0.46875q0.640625 -0.484375 1.015625 -1.515625zm-5.390625 -2.65625l5.40625 0q-0.109375 -1.21875 -0.625 -1.828125q-0.78125 -0.953125 -2.03125 -0.953125q-1.125 0 -1.90625 0.765625q-0.765625 0.75 -0.84375 2.015625zm9.125671 5.765625l0 -9.671875l1.46875 0l0 1.46875q0.5625 -1.03125 1.03125 -1.359375q0.484375 -0.328125 1.0625 -0.328125q0.828125 0 1.6875 0.53125l-0.5625 1.515625q-0.609375 -0.359375 -1.203125 -0.359375q-0.546875 0 -0.96875 0.328125q-0.421875 0.328125 -0.609375 0.890625q-0.28125 0.875 -0.28125 1.921875l0 5.0625l-1.625 0z" fill-rule="nonzero"/><path fill="#000000" fill-opacity="0.0" d="m153.3622 179.51857l0 0c0 -3.1782837 2.5765076 -5.7547913 5.7547913 -5.7547913l179.1361 0c1.5262756 0 2.9900208 0.606308 4.0692444 1.6855469c1.0792542 1.0792236 1.6855469 2.542984 1.6855469 4.0692444l0 62.72664c0 3.1782837 -2.5765076 5.7547913 -5.7547913 5.7547913l-179.1361 0c-3.1782837 0 -5.7547913 -2.5765076 -5.7547913 -5.7547913z" fill-rule="evenodd"/><path stroke="#674ea7" stroke-width="1.0" stroke-linejoin="round" stroke-linecap="butt" d="m153.3622 179.51857l0 0c0 -3.1782837 2.5765076 -5.7547913 5.7547913 -5.7547913l179.1361 0c1.5262756 0 2.9900208 0.606308 4.0692444 1.6855469c1.0792542 1.0792236 1.6855469 2.542984 1.6855469 4.0692444l0 62.72664c0 3.1782837 -2.5765076 5.7547913 -5.7547913 5.7547913l-179.1361 0c-3.1782837 0 -5.7547913 -2.5765076 -5.7547913 -5.7547913z" fill-rule="evenodd"/><path fill="#000000" d="m224.66928 217.80188l0 -13.359375l2.65625 0l3.15625 9.453125q0.4375 1.328125 0.640625 1.984375q0.234375 -0.734375 0.703125 -2.140625l3.203125 -9.296875l2.375 0l0 13.359375l-1.703125 0l0 -11.171875l-3.875 11.171875l-1.59375 0l-3.859375 -11.375l0 11.375l-1.703125 0zm14.775177 -4.84375q0 -2.6875 1.484375 -3.96875q1.25 -1.078125 3.046875 -1.078125q2.0 0 3.265625 1.3125q1.265625 1.296875 1.265625 3.609375q0 1.859375 -0.5625 2.9375q-0.5625 1.0625 -1.640625 1.65625q-1.0625 0.59375 -2.328125 0.59375q-2.03125 0 -3.28125 -1.296875q-1.25 -1.3125 -1.25 -3.765625zm1.6875 0q0 1.859375 0.796875 2.796875q0.8125 0.921875 2.046875 0.921875q1.21875 0 2.03125 -0.921875q0.8125 -0.9375 0.8125 -2.84375q0 -1.796875 -0.8125 -2.71875q-0.8125 -0.921875 -2.03125 -0.921875q-1.234375 0 -2.046875 0.921875q-0.796875 0.90625 -0.796875 2.765625zm15.563202 4.84375l0 -1.21875q-0.90623474 1.4375 -2.7031097 1.4375q-1.15625 0 -2.125 -0.640625q-0.96875 -0.640625 -1.5 -1.78125q-0.53125 -1.140625 -0.53125 -2.625q0 -1.453125 0.484375 -2.625q0.484375 -1.1875 1.4375 -1.8125q0.96875 -0.625 2.171875 -0.625q0.875 0 1.546875 0.375q0.68748474 0.359375 1.1093597 0.953125l0 -4.796875l1.640625 0l0 13.359375l-1.53125 0zm-5.1718597 -4.828125q0 1.859375 0.78125 2.78125q0.78125 0.921875 1.84375 0.921875q1.078125 0 1.828125 -0.875q0.74998474 -0.890625 0.74998474 -2.6875q0 -1.984375 -0.76560974 -2.90625q-0.765625 -0.9375 -1.890625 -0.9375q-1.078125 0 -1.8125 0.890625q-0.734375 0.890625 -0.734375 2.8125zm15.906967 1.71875l1.6875 0.203125q-0.40625 1.484375 -1.484375 2.3125q-1.078125 0.8125 -2.765625 0.8125q-2.125 0 -3.375 -1.296875q-1.234375 -1.3125 -1.234375 -3.671875q0 -2.453125 1.25 -3.796875q1.265625 -1.34375 3.265625 -1.34375q1.9375 0 3.15625 1.328125q1.234375 1.3125 1.234375 3.703125q0 0.15625 0 0.4375l-7.21875 0q0.09375 1.59375 0.90625 2.453125q0.8125 0.84375 2.015625 0.84375q0.90625 0 1.546875 -0.46875q0.640625 -0.484375 1.015625 -1.515625zm-5.390625 -2.65625l5.40625 0q-0.109375 -1.21875 -0.625 -1.828125q-0.78125 -0.953125 -2.03125 -0.953125q-1.125 0 -1.90625 0.765625q-0.765625 0.75 -0.84375 2.015625zm9.094452 5.765625l0 -13.359375l1.640625 0l0 13.359375l-1.640625 0z" fill-rule="nonzero"/><path fill="#000000" fill-opacity="0.0" d="m385.09448 103.98425l152.09448 69.79527" fill-rule="evenodd"/><path stroke="#674ea7" stroke-width="1.0" stroke-linejoin="round" stroke-linecap="butt" d="m388.2093 105.41361l143.52643 65.86347" fill-rule="evenodd"/><path fill="#674ea7" stroke="#674ea7" stroke-width="1.0" stroke-linecap="butt" d="m388.20926 105.413605l1.4911499 -0.55306244l-3.2772522 -0.26656342l2.3391724 2.3107681z" fill-rule="evenodd"/><path fill="#674ea7" stroke="#674ea7" stroke-width="1.0" stroke-linecap="butt" d="m531.0469 172.77829l4.8134155 0.39151l-3.435669 -3.3939362z" fill-rule="evenodd"/><path fill="#000000" fill-opacity="0.0" d="m442.3622 210.8819l-98.36221 0" fill-rule="evenodd"/><path stroke="#674ea7" stroke-width="1.0" stroke-linejoin="round" stroke-linecap="butt" d="m436.3622 210.8819l-86.36221 0" fill-rule="evenodd"/><path fill="#674ea7" stroke="#674ea7" stroke-width="1.0" stroke-linecap="butt" d="m436.3622 212.53362l4.538086 -1.6517181l-4.538086 -1.6517334z" fill-rule="evenodd"/><path fill="#674ea7" stroke="#674ea7" stroke-width="1.0" stroke-linecap="butt" d="m350.0 209.23016l-4.538086 1.6517334l4.538086 1.6517181z" fill-rule="evenodd"/><path fill="#000000" fill-opacity="0.0" d="m248.68504 173.76378l136.40944 -69.76378" fill-rule="evenodd"/><path stroke="#674ea7" stroke-width="1.0" stroke-linejoin="round" stroke-linecap="butt" d="m248.68504 173.76378l131.06755 -67.03176" fill-rule="evenodd"/><path fill="#674ea7" stroke="#674ea7" stroke-width="1.0" stroke-linecap="butt" d="m380.50467 108.20258l3.288269 -3.5369263l-4.79245 0.59578705z" fill-rule="evenodd"/></g></svg>