<svg version="1.1" viewBox="0.0 0.0 961.0 504.0" fill="none" stroke="none" stroke-linecap="square" stroke-miterlimit="10" xmlns:xlink="http://www.w3.org/1999/xlink" xmlns="http://www.w3.org/2000/svg"><clipPath id="p.0"><path d="m0 0l961.0 0l0 504.0l-961.0 0l0 -504.0z" clip-rule="nonzero"/></clipPath><g clip-path="url(#p.0)"><path fill="#000000" fill-opacity="0.0" d="m0 0l961.0 0l0 504.0l-961.0 0z" fill-rule="evenodd"/><path fill="#000000" fill-opacity="0.0" d="m285.0 254.0l0 0c0 -112.66609 93.12479 -204.0 208.0 -204.0l0 0c55.16504 0 108.07062 21.492798 147.07819 59.750214c39.00757 38.25743 60.921814 90.14563 60.921814 144.24979l0 0c0 112.66608 -93.124756 204.0 -208.0 204.0l0 0c-114.87521 0 -208.0 -91.33392 -208.0 -204.0z" fill-rule="evenodd"/><path stroke="#674ea7" stroke-width="1.0" stroke-linejoin="round" stroke-linecap="butt" d="m285.0 254.0l0 0c0 -112.66609 93.12479 -204.0 208.0 -204.0l0 0c55.16504 0 108.07062 21.492798 147.07819 59.750214c39.00757 38.25743 60.921814 90.14563 60.921814 144.24979l0 0c0 112.66608 -93.124756 204.0 -208.0 204.0l0 0c-114.87521 0 -208.0 -91.33392 -208.0 -204.0z" fill-rule="evenodd"/><path fill="#000000" fill-opacity="0.0" d="m345.92178 109.75021l147.08661 348.25198" fill-rule="evenodd"/><path stroke="#674ea7" stroke-width="1.0" stroke-linejoin="round" stroke-linecap="butt" d="m345.92178 109.75021l144.75214 342.72473" fill-rule="evenodd"/><path fill="#674ea7" stroke="#674ea7" stroke-width="1.0" stroke-linecap="butt" d="m489.15234 453.11758l3.287262 3.5378723l-0.24407959 -4.8231506z" fill-rule="evenodd"/><path fill="#000000" fill-opacity="0.0" d="m345.92178 109.75021l294.14175 288.50394" fill-rule="evenodd"/><path stroke="#674ea7" stroke-width="1.0" stroke-linejoin="round" stroke-linecap="butt" d="m345.92178 109.75021l289.85825 284.30252" fill-rule="evenodd"/><path fill="#674ea7" stroke="#674ea7" stroke-width="1.0" stroke-linecap="butt" d="m634.6234 395.23193l4.3964233 1.9985352l-2.083191 -4.356903z" fill-rule="evenodd"/><path fill="#000000" fill-opacity="0.0" d="m493.0 458.0l147.08661 -59.748016" fill-rule="evenodd"/><path stroke="#674ea7" stroke-width="1.0" stroke-linejoin="round" stroke-linecap="butt" d="m493.0 458.0l141.52771 -57.48996" fill-rule="evenodd"/><path fill="#674ea7" stroke="#674ea7" stroke-width="1.0" stroke-linecap="butt" d="m635.14935 402.04034l3.5828247 -3.2381897l-4.82605 0.17758179z" fill-rule="evenodd"/><path fill="#000000" fill-opacity="0.0" d="m493.0 50.0l-147.08661 348.25198" fill-rule="evenodd"/><path stroke="#674ea7" stroke-width="1.0" stroke-linejoin="round" stroke-linecap="butt" d="m493.0 50.0l-144.75214 342.72473" fill-rule="evenodd"/><path fill="#674ea7" stroke="#674ea7" stroke-width="1.0" stroke-linecap="butt" d="m346.72626 392.0821l-0.24407959 4.8231506l3.287262 -3.5378418z" fill-rule="evenodd"/><path fill="#000000" fill-opacity="0.0" d="m285.0 254.0l416.0 0" fill-rule="evenodd"/><path stroke="#674ea7" stroke-width="1.0" stroke-linejoin="round" stroke-linecap="butt" d="m285.0 254.0l410.0 0" fill-rule="evenodd"/><path fill="#674ea7" stroke="#674ea7" stroke-width="1.0" stroke-linecap="butt" d="m695.0 255.65173l4.538086 -1.6517334l-4.538086 -1.6517334z" fill-rule="evenodd"/><path fill="#000000" fill-opacity="0.0" d="m345.92178 398.2498l294.14175 0" fill-rule="evenodd"/><path stroke="#674ea7" stroke-width="1.0" stroke-linejoin="round" stroke-linecap="butt" d="m345.92178 398.2498l288.14175 0" fill-rule="evenodd"/><path fill="#674ea7" stroke="#674ea7" stroke-width="1.0" stroke-linecap="butt" d="m634.06354 399.90152l4.538086 -1.6517334l-4.538086 -1.6517334z" fill-rule="evenodd"/><path fill="#000000" fill-opacity="0.0" d="m701.0 254.0l-208.0 -204.0" fill-rule="evenodd"/><path stroke="#674ea7" stroke-width="1.0" stroke-linejoin="round" stroke-linecap="butt" d="m701.0 254.0l-203.71637 -199.79874" fill-rule="evenodd"/><path fill="#674ea7" stroke="#674ea7" stroke-width="1.0" stroke-linecap="butt" d="m498.4402 53.02202l-4.3964844 -1.9983826l2.083374 4.3568497z" fill-rule="evenodd"/><path fill="#000000" fill-opacity="0.0" d="m701.0 254.0l-416.0 0" fill-rule="evenodd"/><path stroke="#674ea7" stroke-width="1.0" stroke-linejoin="round" stroke-linecap="butt" d="m701.0 254.0l-410.0 0" fill-rule="evenodd"/><path fill="#674ea7" stroke="#674ea7" stroke-width="1.0" stroke-linecap="butt" d="m291.0 252.34827l-4.538086 1.6517334l4.538086 1.6517334z" fill-rule="evenodd"/><path fill="#000000" fill-opacity="0.0" d="m479.84253 6.9343834l26.771637 0l0 38.771652l-26.771637 0z" fill-rule="evenodd"/><path fill="#000000" d="m488.81128 31.294384l4.40625 -11.453125l1.640625 0l4.6875 11.453125l-1.734375 0l-1.328125 -3.46875l-4.796875 0l-1.25 3.46875l-1.625 0zm3.3125 -4.703125l3.890625 0l-1.203125 -3.171875q-0.546875 -1.453125 -0.8125 -2.375q-0.21875 1.09375 -0.609375 2.1875l-1.265625 3.359375z" fill-rule="nonzero"/><path fill="#000000" fill-opacity="0.0" d="m285.0 254.0l208.0 -204.0" fill-rule="evenodd"/><path stroke="#674ea7" stroke-width="1.0" stroke-linejoin="round" stroke-linecap="butt" d="m285.0 254.0l203.71637 -199.79874" fill-rule="evenodd"/><path fill="#674ea7" stroke="#674ea7" stroke-width="1.0" stroke-linecap="butt" d="m489.87292 55.380486l2.083374 -4.3568497l-4.3964844 1.9983826z" fill-rule="evenodd"/><path fill="#000000" fill-opacity="0.0" d="m708.9711 236.06299l33.44879 0l0 38.771667l-33.44879 0z" fill-rule="evenodd"/><path fill="#000000" d="m719.143 260.423l0 -11.45314l4.296875 0q1.3125 0 2.109375 0.34375q0.796875 0.34375 1.234375 1.078125q0.453125 0.71875 0.453125 1.5q0 0.734375 -0.40625 1.390625q-0.390625 0.640625 -1.1875 1.046875q1.03125 0.296875 1.59375 1.03125q0.5625 0.73439026 0.5625 1.7343903q0 0.8125 -0.34375 1.5q-0.34375 0.6875 -0.84375 1.0625q-0.5 0.375 -1.25 0.578125q-0.75 0.1875 -1.84375 0.1875l-4.375 0zm1.515625 -6.6406403l2.484375 0q1.0 0 1.4375 -0.140625q0.578125 -0.171875 0.875 -0.5625q0.296875 -0.40625 0.296875 -1.0q0 -0.578125 -0.28125 -1.0q-0.265625 -0.4375 -0.78125 -0.59375q-0.5 -0.171875 -1.734375 -0.171875l-2.296875 0l0 3.46875zm0 5.2812653l2.859375 0q0.734375 0 1.03125 -0.046875q0.515625 -0.09375 0.859375 -0.3125q0.359375 -0.21875 0.578125 -0.640625q0.234375 -0.421875 0.234375 -0.96875q0 -0.640625 -0.328125 -1.1093903q-0.328125 -0.46875 -0.90625 -0.65625q-0.578125 -0.203125 -1.671875 -0.203125l-2.65625 0l0 3.9375153z" fill-rule="nonzero"/><path fill="#000000" fill-opacity="0.0" d="m639.6772 394.2257l33.44879 0l0 38.771667l-33.44879 0z" fill-rule="evenodd"/><path fill="#000000" d="m658.08344 414.5701l1.515625 0.375q-0.46875 1.875 -1.71875 2.859375q-1.234375 0.984375 -3.015625 0.984375q-1.859375 0 -3.015625 -0.75q-1.15625 -0.765625 -1.765625 -2.1875q-0.609375 -1.4375 -0.609375 -3.078125q0 -1.796875 0.6875 -3.125q0.6875 -1.328125 1.9375 -2.015625q1.265625 -0.703125 2.78125 -0.703125q1.71875 0 2.890625 0.875q1.171875 0.875 1.640625 2.46875l-1.5 0.34375q-0.390625 -1.25 -1.15625 -1.8125q-0.75 -0.578125 -1.90625 -0.578125q-1.3125 0 -2.203125 0.640625q-0.890625 0.625 -1.25 1.703125q-0.359375 1.0625 -0.359375 2.1875q0 1.46875 0.421875 2.5625q0.4375 1.078125 1.328125 1.625q0.90625 0.53125 1.953125 0.53125q1.265625 0 2.140625 -0.734375q0.890625 -0.734375 1.203125 -2.171875z" fill-rule="nonzero"/><path fill="#000000" fill-opacity="0.0" d="m475.67715 460.2257l33.448822 0l0 38.771667l-33.448822 0z" fill-rule="evenodd"/><path fill="#000000" d="m485.91153 484.58572l0 -11.453125l3.953125 0q1.328125 0 2.03125 0.15625q0.984375 0.234375 1.6875 0.828125q0.90625 0.765625 1.34375 1.953125q0.453125 1.1875 0.453125 2.71875q0 1.3125 -0.3125 2.328125q-0.296875 1.0 -0.78125 1.65625q-0.46875 0.65625 -1.03125 1.046875q-0.5625 0.375 -1.375 0.578125q-0.796875 0.1875 -1.828125 0.1875l-4.140625 0zm1.515625 -1.359375l2.453125 0q1.125 0 1.765625 -0.203125q0.65625 -0.21875 1.03125 -0.59375q0.546875 -0.546875 0.84375 -1.453125q0.296875 -0.90625 0.296875 -2.203125q0 -1.796875 -0.59375 -2.765625q-0.578125 -0.96875 -1.421875 -1.296875q-0.609375 -0.234375 -1.96875 -0.234375l-2.40625 0l0 8.75z" fill-rule="nonzero"/><path fill="#000000" fill-opacity="0.0" d="m314.67715 394.2257l33.448822 0l0 38.771667l-33.448822 0z" fill-rule="evenodd"/><path fill="#000000" d="m324.94278 418.58572l0 -11.453125l8.28125 0l0 1.34375l-6.765625 0l0 3.515625l6.34375 0l0 1.34375l-6.34375 0l0 3.890625l7.03125 0l0 1.359375l-8.546875 0z" fill-rule="nonzero"/><path fill="#000000" fill-opacity="0.0" d="m249.67717 234.22572l33.448807 0l0 38.771652l-33.448807 0z" fill-rule="evenodd"/><path fill="#000000" d="m259.98965 258.58572l0 -11.453125l7.734375 0l0 1.34375l-6.21875 0l0 3.546875l5.375 0l0 1.359375l-5.375 0l0 5.203125l-1.515625 0z" fill-rule="nonzero"/><path fill="#000000" fill-opacity="0.0" d="m317.67715 78.22572l33.448822 0l0 38.771652l-33.448822 0z" fill-rule="evenodd"/><path fill="#000000" d="m333.2709 98.085724l0 -1.34375l4.859375 0l0 4.25q-1.125 0.890625 -2.3125 1.34375q-1.1875 0.453125 -2.4375 0.453125q-1.6875 0 -3.0625 -0.71875q-1.375 -0.734375 -2.078125 -2.09375q-0.703125 -1.375 -0.703125 -3.0625q0 -1.671875 0.6875 -3.125q0.703125 -1.453125 2.015625 -2.15625q1.3125 -0.703125 3.03125 -0.703125q1.234375 0 2.234375 0.40625q1.015625 0.40625 1.578125 1.125q0.578125 0.71875 0.875 1.875l-1.375 0.375q-0.25 -0.875 -0.640625 -1.375q-0.375 -0.5 -1.09375 -0.796875q-0.703125 -0.3125 -1.578125 -0.3125q-1.03125 0 -1.796875 0.328125q-0.75 0.3125 -1.21875 0.828125q-0.46875 0.515625 -0.71875 1.125q-0.4375 1.0625 -0.4375 2.3125q0 1.53125 0.515625 2.5625q0.53125 1.03125 1.53125 1.53125q1.015625 0.5 2.15625 0.5q0.984375 0 1.921875 -0.375q0.9375 -0.390625 1.421875 -0.8125l0 -2.140625l-3.375 0z" fill-rule="nonzero"/></g></svg>