<svg version="1.1" viewBox="0.0 0.0 824.0 528.0" fill="none" stroke="none" stroke-linecap="square" stroke-miterlimit="10" xmlns:xlink="http://www.w3.org/1999/xlink" xmlns="http://www.w3.org/2000/svg"><clipPath id="p.0"><path d="m0 0l824.0 0l0 528.0l-824.0 0l0 -528.0z" clip-rule="nonzero"/></clipPath><g clip-path="url(#p.0)"><path fill="#000000" fill-opacity="0.0" d="m0 0l824.0 0l0 528.0l-824.0 0z" fill-rule="evenodd"/><g filter="url(#shadowFilter-p.1)"><use xlink:href="#p.1" transform=""/></g><defs><filter id="shadowFilter-p.1" filterUnits="userSpaceOnUse"><feGaussianBlur in="SourceAlpha" stdDeviation="5.0" result="blur"/><feComponentTransfer in="blur" color-interpolation-filters="sRGB"><feFuncR type="linear" slope="0" intercept="0.0"/><feFuncG type="linear" slope="0" intercept="0.0"/><feFuncB type="linear" slope="0" intercept="0.0"/><feFuncA type="linear" slope="0.25" intercept="0"/></feComponentTransfer></filter></defs><g id="p.1"><defs><radialGradient id="p.2" gradientUnits="userSpaceOnUse" gradientTransform="matrix(14.471915256827181 0.0 0.0 14.471915256827181 0.0 0.0)" spreadMethod="pad" cx="23.424318387730047" cy="24.79732799893432" fx="23.424318387730047" fy="24.79732799893432" r="14.471915245056152"><stop offset="0.0" stop-color="#ffffff"/><stop offset="1.0" stop-color="#fff2cc"/></radialGradient></defs><path fill="url(#p.2)" d="m338.99475 384.1413l0 0c0 -13.959808 32.334198 -25.276459 72.22046 -25.276459c39.88629 0 72.22049 11.31665 72.22049 25.276459l0 101.105865c0 13.959808 -32.334198 25.276459 -72.22049 25.276459c-39.88626 0 -72.22046 -11.31665 -72.22046 -25.276459z" fill-rule="evenodd"/><path fill="#000000" fill-opacity="0.0" d="m483.4357 384.1413l0 0c0 13.959808 -32.334198 25.276459 -72.22049 25.276459c-39.88626 0 -72.22046 -11.31665 -72.22046 -25.276459" fill-rule="evenodd"/><path fill="#000000" fill-opacity="0.0" d="m338.99475 384.1413l0 0c0 -13.959808 32.334198 -25.276459 72.22046 -25.276459c39.88629 0 72.22049 11.31665 72.22049 25.276459l0 101.105865c0 13.959808 -32.334198 25.276459 -72.22049 25.276459c-39.88626 0 -72.22046 -11.31665 -72.22046 -25.276459z" fill-rule="evenodd"/><path stroke="#000000" stroke-width="1.0" stroke-linejoin="round" stroke-linecap="butt" d="m483.4357 384.1413l0 0c0 13.959808 -32.334198 25.276459 -72.22049 25.276459c-39.88626 0 -72.22046 -11.31665 -72.22046 -25.276459" fill-rule="evenodd"/><path stroke="#000000" stroke-width="1.0" stroke-linejoin="round" stroke-linecap="butt" d="m338.99475 384.1413l0 0c0 -13.959808 32.334198 -25.276459 72.22046 -25.276459c39.88629 0 72.22049 11.31665 72.22049 25.276459l0 101.105865c0 13.959808 -32.334198 25.276459 -72.22049 25.276459c-39.88626 0 -72.22046 -11.31665 -72.22046 -25.276459z" fill-rule="evenodd"/><path fill="#000000" d="m370.61105 443.25244l0 -13.359375l2.65625 0l3.15625 9.453125q0.4375 1.328125 0.640625 1.984375q0.234375 -0.734375 0.703125 -2.140625l3.203125 -9.296875l2.375 0l0 13.359375l-1.703125 0l0 -11.171875l-3.875 11.171875l-1.59375 0l-3.859375 -11.375l0 11.375l-1.703125 0zm14.775177 -4.84375q0 -2.6875 1.484375 -3.96875q1.25 -1.078125 3.046875 -1.078125q2.0 0 3.265625 1.3125q1.265625 1.296875 1.265625 3.609375q0 1.859375 -0.5625 2.9375q-0.5625 1.0625 -1.640625 1.65625q-1.0625 0.59375 -2.328125 0.59375q-2.03125 0 -3.28125 -1.296875q-1.25 -1.3125 -1.25 -3.765625zm1.6875 0q0 1.859375 0.796875 2.796875q0.8125 0.921875 2.046875 0.921875q1.21875 0 2.03125 -0.921875q0.8125 -0.9375 0.8125 -2.84375q0 -1.796875 -0.8125 -2.71875q-0.8125 -0.921875 -2.03125 -0.921875q-1.234375 0 -2.046875 0.921875q-0.796875 0.90625 -0.796875 2.765625zm9.297607 4.84375l0 -9.671875l1.46875 0l0 1.375q1.0625 -1.59375 3.078125 -1.59375q0.875 0 1.609375 0.3125q0.734375 0.3125 1.09375 0.828125q0.375 0.5 0.515625 1.203125q0.09375 0.453125 0.09375 1.59375l0 5.953125l-1.640625 0l0 -5.890625q0 -1.0 -0.203125 -1.484375q-0.1875 -0.5 -0.671875 -0.796875q-0.484375 -0.296875 -1.140625 -0.296875q-1.046875 0 -1.8125 0.671875q-0.75 0.65625 -0.75 2.515625l0 5.28125l-1.640625 0zm9.766327 -4.84375q0 -2.6875 1.484375 -3.96875q1.25 -1.078125 3.046875 -1.078125q2.0 0 3.265625 1.3125q1.265625 1.296875 1.265625 3.609375q0 1.859375 -0.5625 2.9375q-0.5625 1.0625 -1.640625 1.65625q-1.0625 0.59375 -2.328125 0.59375q-2.03125 0 -3.28125 -1.296875q-1.25 -1.3125 -1.25 -3.765625zm1.6875 0q0 1.859375 0.796875 2.796875q0.8125 0.921875 2.046875 0.921875q1.21875 0 2.03125 -0.921875q0.8125 -0.9375 0.8125 -2.84375q0 -1.796875 -0.8125 -2.71875q-0.8125 -0.921875 -2.03125 -0.921875q-1.234375 0 -2.046875 0.921875q-0.796875 0.90625 -0.796875 2.765625zm9.250732 4.84375l0 -13.359375l1.640625 0l0 13.359375l-1.640625 0zm4.191681 -11.46875l0 -1.890625l1.640625 0l0 1.890625l-1.640625 0zm0 11.46875l0 -9.671875l1.640625 0l0 9.671875l-1.640625 0zm7.7229614 -1.46875l0.234375 1.453125q-0.6875 0.140625 -1.234375 0.140625q-0.890625 0 -1.390625 -0.28125q-0.484375 -0.28125 -0.6875 -0.734375q-0.203125 -0.46875 -0.203125 -1.9375l0 -5.578125l-1.203125 0l0 -1.265625l1.203125 0l0 -2.390625l1.625 -0.984375l0 3.375l1.65625 0l0 1.265625l-1.65625 0l0 5.671875q0 0.6875 0.078125 0.890625q0.09375 0.203125 0.28125 0.328125q0.203125 0.109375 0.578125 0.109375q0.265625 0 0.71875 -0.0625zm1.6051636 1.46875l0 -13.359375l1.640625 0l0 4.796875q1.140625 -1.328125 2.890625 -1.328125q1.078125 0 1.859375 0.421875q0.796875 0.421875 1.140625 1.171875q0.34375 0.75 0.34375 2.171875l0 6.125l-1.640625 0l0 -6.125q0 -1.234375 -0.53125 -1.796875q-0.53125 -0.5625 -1.515625 -0.5625q-0.71875 0 -1.359375 0.390625q-0.640625 0.375 -0.921875 1.015625q-0.265625 0.640625 -0.265625 1.78125l0 5.296875l-1.640625 0zm10.375732 -11.46875l0 -1.890625l1.640625 0l0 1.890625l-1.640625 0zm0 11.46875l0 -9.671875l1.640625 0l0 9.671875l-1.640625 0zm10.457306 -3.546875l1.609375 0.21875q-0.265625 1.65625 -1.359375 2.609375q-1.078125 0.9375 -2.671875 0.9375q-1.984375 0 -3.1875 -1.296875q-1.203125 -1.296875 -1.203125 -3.71875q0 -1.578125 0.515625 -2.75q0.515625 -1.171875 1.578125 -1.75q1.0625 -0.59375 2.3125 -0.59375q1.578125 0 2.578125 0.796875q1.0 0.796875 1.28125 2.265625l-1.59375 0.234375q-0.234375 -0.96875 -0.8125 -1.453125q-0.578125 -0.5 -1.390625 -0.5q-1.234375 0 -2.015625 0.890625q-0.78125 0.890625 -0.78125 2.8125q0 1.953125 0.75 2.84375q0.75 0.875 1.953125 0.875q0.96875 0 1.609375 -0.59375q0.65625 -0.59375 0.828125 -1.828125z" fill-rule="nonzero"/><path fill="#000000" d="m400.7284 465.25244l0 -13.359375l4.609375 0q1.546875 0 2.375 0.203125q1.140625 0.25 1.953125 0.953125q1.0625 0.890625 1.578125 2.28125q0.53125 1.390625 0.53125 3.171875q0 1.515625 -0.359375 2.703125q-0.359375 1.171875 -0.921875 1.9375q-0.546875 0.765625 -1.203125 1.21875q-0.65625 0.4375 -1.59375 0.671875q-0.9375 0.21875 -2.140625 0.21875l-4.828125 0zm1.765625 -1.578125l2.859375 0q1.3125 0 2.0625 -0.234375q0.75 -0.25 1.203125 -0.703125q0.625 -0.625 0.96875 -1.6875q0.359375 -1.0625 0.359375 -2.578125q0 -2.09375 -0.6875 -3.21875q-0.6875 -1.125 -1.671875 -1.5q-0.703125 -0.28125 -2.28125 -0.28125l-2.8125 0l0 10.203125zm13.004181 1.578125l-1.515625 0l0 -13.359375l1.640625 0l0 4.765625q1.046875 -1.296875 2.65625 -1.296875q0.890625 0 1.6875 0.359375q0.796875 0.359375 1.3125 1.015625q0.515625 0.640625 0.796875 1.5625q0.296875 0.921875 0.296875 1.96875q0 2.484375 -1.234375 3.84375q-1.21875 1.359375 -2.953125 1.359375q-1.703125 0 -2.6875 -1.4375l0 1.21875zm-0.015625 -4.90625q0 1.734375 0.484375 2.515625q0.765625 1.265625 2.09375 1.265625q1.078125 0 1.859375 -0.9375q0.78125 -0.9375 0.78125 -2.78125q0 -1.890625 -0.75 -2.796875q-0.75 -0.90625 -1.828125 -0.90625q-1.0625 0 -1.859375 0.9375q-0.78125 0.9375 -0.78125 2.703125z" fill-rule="nonzero"/></g><g filter="url(#shadowFilter-p.3)"><use xlink:href="#p.3" transform=""/></g><defs><filter id="shadowFilter-p.3" filterUnits="userSpaceOnUse"><feGaussianBlur in="SourceAlpha" stdDeviation="5.0" result="blur"/><feComponentTransfer in="blur" color-interpolation-filters="sRGB"><feFuncR type="linear" slope="0" intercept="0.0"/><feFuncG type="linear" slope="0" intercept="0.0"/><feFuncB type="linear" slope="0" intercept="0.0"/><feFuncA type="linear" slope="0.25" intercept="0"/></feComponentTransfer></filter></defs><g id="p.3"><path fill="#cfe2f3" d="m146.29396 133.22441l12.0 0l0 11.968506l-12.0 0z" fill-rule="evenodd"/><path stroke="#000000" stroke-width="1.0" stroke-linejoin="round" stroke-linecap="butt" d="m146.29396 133.22441l12.0 0l0 11.968506l-12.0 0z" fill-rule="evenodd"/></g><g filter="url(#shadowFilter-p.4)"><use xlink:href="#p.4" transform=""/></g><defs><filter id="shadowFilter-p.4" filterUnits="userSpaceOnUse"><feGaussianBlur in="SourceAlpha" stdDeviation="5.0" result="blur"/><feComponentTransfer in="blur" color-interpolation-filters="sRGB"><feFuncR type="linear" slope="0" intercept="0.0"/><feFuncG type="linear" slope="0" intercept="0.0"/><feFuncB type="linear" slope="0" intercept="0.0"/><feFuncA type="linear" slope="0.25" intercept="0"/></feComponentTransfer></filter></defs><g id="p.4"><defs><radialGradient id="p.5" gradientUnits="userSpaceOnUse" gradientTransform="matrix(13.885509486067267 0.0 0.0 13.885509486067267 0.0 0.0)" spreadMethod="pad" cx="5.766694473400065" cy="1.2586075969495745" fx="5.766694473400065" fy="1.2586075969495745" r="13.885509490966797"><stop offset="0.0" stop-color="#696969"/><stop offset="1.0" stop-color="#1d1d1d"/></radialGradient></defs><path fill="url(#p.5)" d="m80.073494 81.33465l36.84877 -63.85824l70.7434 0l36.84877 63.85824l-36.84877 63.85824l-70.7434 0z" fill-rule="evenodd"/><path stroke="#434343" stroke-width="1.0" stroke-linejoin="round" stroke-linecap="butt" d="m80.073494 81.33465l36.84877 -63.85824l70.7434 0l36.84877 63.85824l-36.84877 63.85824l-70.7434 0z" fill-rule="evenodd"/><path fill="#f3f3f3" d="m140.15334 66.24152l1.515625 0l0 6.609375q0 1.734375 -0.390625 2.75q-0.390625 1.015625 -1.40625 1.65625q-1.015625 0.640625 -2.671875 0.640625q-1.609375 0 -2.640625 -0.5625q-1.015625 -0.5625 -1.453125 -1.609375q-0.4375 -1.046875 -0.4375 -2.875l0 -6.609375l1.515625 0l0 6.609375q0 1.484375 0.265625 2.203125q0.28125 0.703125 0.953125 1.09375q0.6875 0.375 1.65625 0.375q1.671875 0 2.375 -0.75q0.71875 -0.765625 0.71875 -2.921875l0 -6.609375zm3.3046875 8.96875l1.390625 -0.21875q0.109375 0.84375 0.640625 1.296875q0.546875 0.4375 1.5 0.4375q0.96875 0 1.4375 -0.390625q0.46875 -0.40625 0.46875 -0.9375q0 -0.46875 -0.40625 -0.75q-0.296875 -0.1875 -1.4375 -0.46875q-1.546875 -0.390625 -2.15625 -0.671875q-0.59375 -0.296875 -0.90625 -0.796875q-0.296875 -0.5 -0.296875 -1.109375q0 -0.5625 0.25 -1.03125q0.25 -0.46875 0.6875 -0.78125q0.328125 -0.25 0.890625 -0.40625q0.578125 -0.171875 1.21875 -0.171875q0.984375 0 1.71875 0.28125q0.734375 0.28125 1.078125 0.765625q0.359375 0.46875 0.5 1.28125l-1.375 0.1875q-0.09375 -0.640625 -0.546875 -1.0q-0.453125 -0.359375 -1.265625 -0.359375q-0.96875 0 -1.390625 0.328125q-0.40625 0.3125 -0.40625 0.734375q0 0.28125 0.171875 0.5q0.171875 0.21875 0.53125 0.375q0.21875 0.078125 1.25 0.359375q1.484375 0.390625 2.078125 0.65625q0.59375 0.25 0.921875 0.734375q0.34375 0.484375 0.34375 1.203125q0 0.703125 -0.421875 1.328125q-0.40625 0.609375 -1.1875 0.953125q-0.765625 0.34375 -1.734375 0.34375q-1.625 0 -2.46875 -0.671875q-0.84375 -0.671875 -1.078125 -2.0zm14.234375 -0.1875l1.453125 0.171875q-0.34375 1.28125 -1.28125 1.984375q-0.921875 0.703125 -2.359375 0.703125q-1.828125 0 -2.890625 -1.125q-1.0625 -1.125 -1.0625 -3.140625q0 -2.09375 1.078125 -3.25q1.078125 -1.15625 2.796875 -1.15625q1.65625 0 2.703125 1.140625q1.0625 1.125 1.0625 3.171875q0 0.125 0 0.375l-6.1875 0q0.078125 1.375 0.765625 2.109375q0.703125 0.71875 1.734375 0.71875q0.78125 0 1.328125 -0.40625q0.546875 -0.40625 0.859375 -1.296875zm-4.609375 -2.28125l4.625 0q-0.09375 -1.046875 -0.53125 -1.5625q-0.671875 -0.8125 -1.734375 -0.8125q-0.96875 0 -1.640625 0.65625q-0.65625 0.640625 -0.71875 1.71875zm7.8203125 4.953125l0 -8.296875l1.265625 0l0 1.25q0.484375 -0.875 0.890625 -1.15625q0.40625 -0.28125 0.90625 -0.28125q0.703125 0 1.4375 0.453125l-0.484375 1.296875q-0.515625 -0.296875 -1.03125 -0.296875q-0.453125 0 -0.828125 0.28125q-0.359375 0.265625 -0.515625 0.765625q-0.234375 0.75 -0.234375 1.640625l0 4.34375l-1.40625 0zm4.78125 -2.484375l1.390625 -0.21875q0.109375 0.84375 0.640625 1.296875q0.546875 0.4375 1.5 0.4375q0.96875 0 1.4375 -0.390625q0.46875 -0.40625 0.46875 -0.9375q0 -0.46875 -0.40625 -0.75q-0.296875 -0.1875 -1.4375 -0.46875q-1.546875 -0.390625 -2.15625 -0.671875q-0.59375 -0.296875 -0.90625 -0.796875q-0.296875 -0.5 -0.296875 -1.109375q0 -0.5625 0.25 -1.03125q0.25 -0.46875 0.6875 -0.78125q0.328125 -0.25 0.890625 -0.40625q0.578125 -0.171875 1.21875 -0.171875q0.984375 0 1.71875 0.28125q0.734375 0.28125 1.078125 0.765625q0.359375 0.46875 0.5 1.28125l-1.375 0.1875q-0.09375 -0.640625 -0.546875 -1.0q-0.453125 -0.359375 -1.265625 -0.359375q-0.96875 0 -1.390625 0.328125q-0.40625 0.3125 -0.40625 0.734375q0 0.28125 0.171875 0.5q0.171875 0.21875 0.53125 0.375q0.21875 0.078125 1.25 0.359375q1.484375 0.390625 2.078125 0.65625q0.59375 0.25 0.921875 0.734375q0.34375 0.484375 0.34375 1.203125q0 0.703125 -0.421875 1.328125q-0.40625 0.609375 -1.1875 0.953125q-0.765625 0.34375 -1.734375 0.34375q-1.625 0 -2.46875 -0.671875q-0.84375 -0.671875 -1.078125 -2.0z" fill-rule="nonzero"/><path fill="#f3f3f3" d="m126.33694 93.00715l1.4375 -0.125q0.09375 0.859375 0.46874237 1.421875q0.375 0.546875 1.15625 0.890625q0.78125 0.328125 1.75 0.328125q0.875 0 1.53125 -0.25q0.671875 -0.265625 0.984375 -0.703125q0.328125 -0.453125 0.328125 -0.984375q0 -0.546875 -0.3125 -0.9375q-0.3125 -0.40625 -1.03125 -0.6875q-0.453125 -0.171875 -2.03125 -0.546875q-1.578125 -0.390625 -2.21875 -0.71875q-0.8124924 -0.4375 -1.2187424 -1.0625q-0.40625 -0.640625 -0.40625 -1.4375q0 -0.859375 0.484375 -1.609375q0.5 -0.765625 1.4374924 -1.15625q0.953125 -0.390625 2.109375 -0.390625q1.28125 0 2.25 0.421875q0.96875 0.40625 1.484375 1.203125q0.53125 0.796875 0.578125 1.796875l-1.453125 0.109375q-0.125 -1.078125 -0.796875 -1.625q-0.671875 -0.5625 -2.0 -0.5625q-1.375 0 -2.0 0.5q-0.625 0.5 -0.625 1.21875q0 0.609375 0.4375 1.015625q0.4375 0.390625 2.28125 0.8125q1.859375 0.421875 2.546875 0.734375q1.0 0.453125 1.46875 1.171875q0.484375 0.703125 0.484375 1.625q0 0.90625 -0.53125 1.71875q-0.515625 0.8125 -1.5 1.265625q-0.984375 0.453125 -2.203125 0.453125q-1.5625 0 -2.609375 -0.453125q-1.0468674 -0.46875 -1.6562424 -1.375q-0.59375 -0.90625 -0.625 -2.0625zm16.687492 1.015625l1.453125 0.171875q-0.34375 1.28125 -1.28125 1.984375q-0.921875 0.703125 -2.359375 0.703125q-1.828125 0 -2.890625 -1.125q-1.0625 -1.125 -1.0625 -3.140625q0 -2.09375 1.078125 -3.25q1.078125 -1.15625 2.796875 -1.15625q1.65625 0 2.703125 1.140625q1.0625 1.125 1.0625 3.171875q0 0.125 0 0.375l-6.1875 0q0.078125 1.375 0.765625 2.109375q0.703125 0.71875 1.734375 0.71875q0.78125 0 1.328125 -0.40625q0.546875 -0.40625 0.859375 -1.296875zm-4.609375 -2.28125l4.625 0q-0.09375 -1.046875 -0.53125 -1.5625q-0.671875 -0.8125 -1.734375 -0.8125q-0.96875 0 -1.640625 0.65625q-0.65625 0.640625 -0.71875 1.71875zm7.8203125 4.953125l0 -8.296875l1.265625 0l0 1.25q0.484375 -0.875 0.890625 -1.15625q0.40625 -0.28125 0.90625 -0.28125q0.703125 0 1.4375 0.453125l-0.484375 1.296875q-0.515625 -0.296875 -1.03125 -0.296875q-0.453125 0 -0.828125 0.28125q-0.359375 0.265625 -0.515625 0.765625q-0.234375 0.75 -0.234375 1.640625l0 4.34375l-1.40625 0zm7.640625 0l-3.15625 -8.296875l1.484375 0l1.78125 4.96875q0.296875 0.796875 0.53125 1.671875q0.1875 -0.65625 0.53125 -1.578125l1.84375 -5.0625l1.4375 0l-3.140625 8.296875l-1.3125 0zm5.703125 -9.84375l0 -1.609375l1.40625 0l0 1.609375l-1.40625 0zm0 9.84375l0 -8.296875l1.40625 0l0 8.296875l-1.40625 0zm8.9609375 -3.046875l1.390625 0.1875q-0.234375 1.421875 -1.171875 2.234375q-0.921875 0.8125 -2.28125 0.8125q-1.703125 0 -2.75 -1.109375q-1.03125 -1.125 -1.03125 -3.203125q0 -1.34375 0.4375 -2.34375q0.453125 -1.015625 1.359375 -1.515625q0.921875 -0.5 1.984375 -0.5q1.359375 0 2.21875 0.6875q0.859375 0.671875 1.09375 1.9375l-1.359375 0.203125q-0.203125 -0.828125 -0.703125 -1.25q-0.484375 -0.421875 -1.1875 -0.421875q-1.0625 0 -1.734375 0.765625q-0.65625 0.75 -0.65625 2.40625q0 1.671875 0.640625 2.4375q0.640625 0.75 1.671875 0.75q0.828125 0 1.375 -0.5q0.5625 -0.515625 0.703125 -1.578125zm8.265625 0.375l1.453125 0.171875q-0.34375 1.28125 -1.28125 1.984375q-0.921875 0.703125 -2.359375 0.703125q-1.828125 0 -2.890625 -1.125q-1.0625 -1.125 -1.0625 -3.140625q0 -2.09375 1.078125 -3.25q1.078125 -1.15625 2.796875 -1.15625q1.65625 0 2.703125 1.140625q1.0625 1.125 1.0625 3.171875q0 0.125 0 0.375l-6.1875 0q0.078125 1.375 0.765625 2.109375q0.703125 0.71875 1.734375 0.71875q0.78125 0 1.328125 -0.40625q0.546875 -0.40625 0.859375 -1.296875zm-4.609375 -2.28125l4.625 0q-0.09375 -1.046875 -0.53125 -1.5625q-0.671875 -0.8125 -1.734375 -0.8125q-0.96875 0 -1.640625 0.65625q-0.65625 0.640625 -0.71875 1.71875z" fill-rule="nonzero"/></g><g filter="url(#shadowFilter-p.6)"><use xlink:href="#p.6" transform=""/></g><defs><filter id="shadowFilter-p.6" filterUnits="userSpaceOnUse"><feGaussianBlur in="SourceAlpha" stdDeviation="5.0" result="blur"/><feComponentTransfer in="blur" color-interpolation-filters="sRGB"><feFuncR type="linear" slope="0" intercept="0.0"/><feFuncG type="linear" slope="0" intercept="0.0"/><feFuncB type="linear" slope="0" intercept="0.0"/><feFuncA type="linear" slope="0.25" intercept="0"/></feComponentTransfer></filter></defs><g id="p.6"><defs><radialGradient id="p.7" gradientUnits="userSpaceOnUse" gradientTransform="matrix(12.143437746312056 0.0 0.0 12.143437746312056 0.0 0.0)" spreadMethod="pad" cx="8.208531398492928" cy="17.42718896189335" fx="8.208531398492928" fy="17.42718896189335" r="12.143437385559082"><stop offset="0.0" stop-color="#ffffff"/><stop offset="1.0" stop-color="#efefef"/></radialGradient></defs><path fill="url(#p.7)" d="m99.67979 219.63641l0 0c0 -4.4240417 3.5863953 -8.010422 8.010437 -8.010422l89.20748 0c2.1244965 0 4.1619873 0.84394836 5.6642303 2.3461914c1.502243 1.502243 2.3462067 3.539734 2.3462067 5.6642303l0 87.286224c0 4.4240417 -3.5863953 8.010437 -8.010437 8.010437l-89.20748 0c-4.4240417 0 -8.010437 -3.5863953 -8.010437 -8.010437z" fill-rule="evenodd"/><path stroke="#000000" stroke-width="1.0" stroke-linejoin="round" stroke-linecap="butt" d="m99.67979 219.63641l0 0c0 -4.4240417 3.5863953 -8.010422 8.010437 -8.010422l89.20748 0c2.1244965 0 4.1619873 0.84394836 5.6642303 2.3461914c1.502243 1.502243 2.3462067 3.539734 2.3462067 5.6642303l0 87.286224c0 4.4240417 -3.5863953 8.010437 -8.010437 8.010437l-89.20748 0c-4.4240417 0 -8.010437 -3.5863953 -8.010437 -8.010437z" fill-rule="evenodd"/><path fill="#000000" d="m140.65558 249.03078l1.453125 0l0 6.328125q0 1.6562347 -0.375 2.6406097q-0.359375 0.96875 -1.34375 1.578125q-0.984375 0.609375 -2.5625 0.609375q-1.546875 0 -2.53125 -0.53125q-0.96875 -0.53125 -1.390625 -1.53125q-0.421875 -1.015625 -0.421875 -2.7656097l0 -6.328125l1.453125 0l0 6.328125q0 1.4374847 0.265625 2.1093597q0.265625 0.671875 0.90625 1.046875q0.65625 0.359375 1.59375 0.359375q1.59375 0 2.265625 -0.71875q0.6875 -0.734375 0.6875 -2.7968597l0 -6.328125zm3.1632385 8.593735l1.328125 -0.203125q0.125 0.796875 0.625 1.234375q0.515625 0.421875 1.4375 0.421875q0.9375 0 1.375 -0.375q0.453125 -0.390625 0.453125 -0.890625q0 -0.46875 -0.390625 -0.71875q-0.28125 -0.1875 -1.375 -0.46875q-1.484375 -0.375 -2.0625 -0.64060974q-0.578125 -0.265625 -0.875 -0.75q-0.28125 -0.484375 -0.28125 -1.078125q0 -0.53125 0.234375 -0.984375q0.25 -0.453125 0.671875 -0.75q0.3125 -0.234375 0.84375 -0.390625q0.546875 -0.15625 1.171875 -0.15625q0.9375 0 1.640625 0.265625q0.703125 0.265625 1.03125 0.734375q0.34375 0.453125 0.46875 1.234375l-1.3125 0.171875q-0.09375 -0.609375 -0.53125 -0.953125q-0.421875 -0.34375 -1.203125 -0.34375q-0.921875 0 -1.328125 0.3125q-0.390625 0.296875 -0.390625 0.703125q0 0.265625 0.15625 0.46875q0.171875 0.21875 0.515625 0.359375q0.203125 0.078125 1.203125 0.359375q1.421875 0.375 1.984375 0.625q0.5625 0.23435974 0.890625 0.70310974q0.328125 0.453125 0.328125 1.15625q0 0.671875 -0.40625 1.265625q-0.390625 0.59375 -1.125 0.921875q-0.734375 0.3125 -1.671875 0.3125q-1.5625 0 -2.375 -0.640625q-0.796875 -0.640625 -1.03125 -1.90625zm13.6484375 -0.1875l1.390625 0.171875q-0.328125 1.21875 -1.21875 1.890625q-0.890625 0.671875 -2.28125 0.671875q-1.734375 0 -2.765625 -1.0625q-1.015625 -1.078125 -1.015625 -3.015625q0 -1.9999847 1.03125 -3.1093597q1.03125 -1.109375 2.6875 -1.109375q1.59375 0 2.59375 1.09375q1.015625 1.078125 1.015625 3.0468597q0 0.109375 -0.015625 0.359375l-5.921875 0q0.078125 1.3125 0.734375 2.015625q0.671875 0.6875 1.671875 0.6875q0.734375 0 1.25 -0.390625q0.53125 -0.390625 0.84375 -1.25zm-4.421875 -2.1718597l4.4375 0q-0.09375 -1.0 -0.515625 -1.5q-0.640625 -0.78125 -1.671875 -0.78125q-0.921875 0 -1.5625 0.625q-0.625 0.609375 -0.6875 1.65625zm7.4935303 4.7343597l0 -7.9531097l1.203125 0l0 1.203125q0.46875 -0.84375 0.859375 -1.109375q0.390625 -0.265625 0.859375 -0.265625q0.6875 0 1.390625 0.4375l-0.46875 1.25q-0.484375 -0.296875 -0.984375 -0.296875q-0.4375 0 -0.796875 0.265625q-0.34375 0.265625 -0.5 0.734375q-0.21875 0.71875 -0.21875 1.578125l0 4.1562347l-1.34375 0zm4.5731354 -2.375l1.328125 -0.203125q0.125 0.796875 0.625 1.234375q0.515625 0.421875 1.4375 0.421875q0.9375 0 1.375 -0.375q0.453125 -0.390625 0.453125 -0.890625q0 -0.46875 -0.390625 -0.71875q-0.28125 -0.1875 -1.375 -0.46875q-1.484375 -0.375 -2.0625 -0.64060974q-0.578125 -0.265625 -0.875 -0.75q-0.28125 -0.484375 -0.28125 -1.078125q0 -0.53125 0.234375 -0.984375q0.25 -0.453125 0.671875 -0.75q0.3125 -0.234375 0.84375 -0.390625q0.546875 -0.15625 1.171875 -0.15625q0.9375 0 1.640625 0.265625q0.703125 0.265625 1.03125 0.734375q0.34375 0.453125 0.46875 1.234375l-1.3125 0.171875q-0.09375 -0.609375 -0.53125 -0.953125q-0.421875 -0.34375 -1.203125 -0.34375q-0.921875 0 -1.328125 0.3125q-0.390625 0.296875 -0.390625 0.703125q0 0.265625 0.15625 0.46875q0.171875 0.21875 0.515625 0.359375q0.203125 0.078125 1.203125 0.359375q1.421875 0.375 1.984375 0.625q0.5625 0.23435974 0.890625 0.70310974q0.328125 0.453125 0.328125 1.15625q0 0.671875 -0.40625 1.265625q-0.390625 0.59375 -1.125 0.921875q-0.734375 0.3125 -1.671875 0.3125q-1.5625 0 -2.375 -0.640625q-0.796875 -0.640625 -1.03125 -1.90625z" fill-rule="nonzero"/><path fill="#000000" d="m116.86449 277.9995l0 -10.96875l4.859375 0q1.46875 0 2.234375 0.296875q0.765625 0.296875 1.21875 1.046875q0.46875 0.734375 0.46875 1.640625q0 1.171875 -0.765625 1.984375q-0.75 0.796875 -2.328125 1.015625q0.578125 0.265625 0.875 0.53125q0.625 0.59375 1.203125 1.46875l1.90625 2.984375l-1.828125 0l-1.453125 -2.28125q-0.640625 -0.984375 -1.046875 -1.5q-0.40625 -0.53125 -0.734375 -0.734375q-0.328125 -0.21875 -0.65625 -0.296875q-0.25 -0.0625 -0.8125 -0.0625l-1.6875 0l0 4.875l-1.453125 0zm1.453125 -6.125l3.125 0q0.984375 0 1.546875 -0.203125q0.5625 -0.21875 0.859375 -0.671875q0.296875 -0.453125 0.296875 -0.984375q0 -0.765625 -0.578125 -1.265625q-0.5625 -0.515625 -1.78125 -0.515625l-3.46875 0l0 3.640625zm14.866364 3.5625l1.390625 0.171875q-0.328125 1.21875 -1.21875 1.890625q-0.890625 0.671875 -2.28125 0.671875q-1.734375 0 -2.765625 -1.0625q-1.015625 -1.078125 -1.015625 -3.015625q0 -2.0 1.03125 -3.109375q1.03125 -1.109375 2.6875 -1.109375q1.59375 0 2.59375 1.09375q1.015625 1.078125 1.015625 3.046875q0 0.109375 -0.015625 0.359375l-5.921875 0q0.078125 1.3125 0.734375 2.015625q0.671875 0.6875 1.671875 0.6875q0.734375 0 1.25 -0.390625q0.53125 -0.390625 0.84375 -1.25zm-4.421875 -2.171875l4.4375 0q-0.09375 -1.0 -0.515625 -1.5q-0.640625 -0.78125 -1.671875 -0.78125q-0.921875 0 -1.5625 0.625q-0.625 0.609375 -0.6875 1.65625zm7.5091553 7.78125l0 -11.0l1.21875 0l0 1.03125q0.4375 -0.59375 0.984375 -0.890625q0.546875 -0.3125 1.328125 -0.3125q1.015625 0 1.796875 0.53125q0.78125 0.515625 1.171875 1.46875q0.390625 0.953125 0.390625 2.09375q0 1.21875 -0.4375 2.203125q-0.4375 0.96875 -1.28125 1.484375q-0.828125 0.515625 -1.734375 0.515625q-0.6875 0 -1.21875 -0.28125q-0.53125 -0.28125 -0.875 -0.71875l0 3.875l-1.34375 0zm1.21875 -6.96875q0 1.53125 0.609375 2.265625q0.625 0.734375 1.515625 0.734375q0.890625 0 1.53125 -0.765625q0.640625 -0.765625 0.640625 -2.359375q0 -1.515625 -0.625 -2.265625q-0.625 -0.765625 -1.484375 -0.765625q-0.859375 0 -1.53125 0.8125q-0.65625 0.796875 -0.65625 2.34375zm6.8060303 -0.046875q0 -2.21875 1.21875 -3.28125q1.03125 -0.875 2.5 -0.875q1.640625 0 2.671875 1.078125q1.046875 1.0625 1.046875 2.953125q0 1.546875 -0.46875 2.421875q-0.453125 0.875 -1.328125 1.359375q-0.875 0.484375 -1.921875 0.484375q-1.671875 0 -2.703125 -1.0625q-1.015625 -1.0625 -1.015625 -3.078125zm1.375 0q0 1.515625 0.65625 2.28125q0.671875 0.765625 1.6875 0.765625q1.0 0 1.671875 -0.765625q0.671875 -0.765625 0.671875 -2.328125q0 -1.484375 -0.671875 -2.234375q-0.671875 -0.765625 -1.671875 -0.765625q-1.015625 0 -1.6875 0.765625q-0.65625 0.75 -0.65625 2.28125zm7.1029053 1.59375l1.328125 -0.203125q0.125 0.796875 0.625 1.234375q0.515625 0.421875 1.4375 0.421875q0.9375 0 1.375 -0.375q0.453125 -0.390625 0.453125 -0.890625q0 -0.46875 -0.390625 -0.71875q-0.28125 -0.1875 -1.375 -0.46875q-1.484375 -0.375 -2.0625 -0.640625q-0.578125 -0.265625 -0.875 -0.75q-0.28125 -0.484375 -0.28125 -1.078125q0 -0.53125 0.234375 -0.984375q0.25 -0.453125 0.671875 -0.75q0.3125 -0.234375 0.84375 -0.390625q0.546875 -0.15625 1.171875 -0.15625q0.9375 0 1.640625 0.265625q0.703125 0.265625 1.03125 0.734375q0.34375 0.453125 0.46875 1.234375l-1.3125 0.171875q-0.09375 -0.609375 -0.53125 -0.953125q-0.421875 -0.34375 -1.203125 -0.34375q-0.921875 0 -1.328125 0.3125q-0.390625 0.296875 -0.390625 0.703125q0 0.265625 0.15625 0.46875q0.171875 0.21875 0.515625 0.359375q0.203125 0.078125 1.203125 0.359375q1.421875 0.375 1.984375 0.625q0.5625 0.234375 0.890625 0.703125q0.328125 0.453125 0.328125 1.15625q0 0.671875 -0.40625 1.265625q-0.390625 0.59375 -1.125 0.921875q-0.734375 0.3125 -1.671875 0.3125q-1.5625 0 -2.375 -0.640625q-0.796875 -0.640625 -1.03125 -1.90625zm8.2109375 -7.046875l0 -1.546875l1.34375 0l0 1.546875l-1.34375 0zm0 9.421875l0 -7.953125l1.34375 0l0 7.953125l-1.34375 0zm6.342926 -1.203125l0.1875 1.1875q-0.5625 0.125 -1.015625 0.125q-0.734375 0 -1.140625 -0.234375q-0.390625 -0.234375 -0.5625 -0.609375q-0.171875 -0.375 -0.171875 -1.59375l0 -4.578125l-0.984375 0l0 -1.046875l0.984375 0l0 -1.96875l1.34375 -0.796875l0 2.765625l1.359375 0l0 1.046875l-1.359375 0l0 4.65625q0 0.578125 0.0625 0.75q0.078125 0.15625 0.234375 0.25q0.171875 0.09375 0.46875 0.09375q0.21875 0 0.59375 -0.046875zm0.82115173 -2.765625q0 -2.21875 1.21875 -3.28125q1.03125 -0.875 2.5 -0.875q1.640625 0 2.671875 1.078125q1.046875 1.0625 1.046875 2.953125q0 1.546875 -0.46875 2.421875q-0.453125 0.875 -1.328125 1.359375q-0.875 0.484375 -1.921875 0.484375q-1.671875 0 -2.703125 -1.0625q-1.015625 -1.0625 -1.015625 -3.078125zm1.375 0q0 1.515625 0.65625 2.28125q0.671875 0.765625 1.6875 0.765625q1.0 0 1.671875 -0.765625q0.671875 -0.765625 0.671875 -2.328125q0 -1.484375 -0.671875 -2.234375q-0.671875 -0.765625 -1.671875 -0.765625q-1.015625 0 -1.6875 0.765625q-0.65625 0.75 -0.65625 2.28125zm7.6341553 3.96875l0 -7.953125l1.203125 0l0 1.203125q0.46875 -0.84375 0.859375 -1.109375q0.390625 -0.265625 0.859375 -0.265625q0.6875 0 1.390625 0.4375l-0.46875 1.25q-0.484375 -0.296875 -0.984375 -0.296875q-0.4375 0 -0.796875 0.265625q-0.34375 0.265625 -0.5 0.734375q-0.21875 0.71875 -0.21875 1.578125l0 4.15625l-1.34375 0zm5.0575104 3.0625l-0.15625 -1.265625q0.453125 0.125 0.78125 0.125q0.4375 0 0.703125 -0.15625q0.28125 -0.15625 0.453125 -0.421875q0.125 -0.203125 0.40625 -1.0q0.046875 -0.109375 0.125 -0.328125l-3.015625 -7.96875l1.453125 0l1.65625 4.609375q0.3125 0.875 0.5625 1.84375q0.234375 -0.9375 0.5625 -1.8125l1.703125 -4.640625l1.34375 0l-3.03125 8.09375q-0.484375 1.296875 -0.75 1.796875q-0.359375 0.671875 -0.828125 0.96875q-0.453125 0.3125 -1.109375 0.3125q-0.390625 0 -0.859375 -0.15625z" fill-rule="nonzero"/></g><path fill="#000000" fill-opacity="0.0" d="m152.65092 144.70735l-0.34646606 66.92914" fill-rule="evenodd"/><path stroke="#000000" stroke-width="1.0" stroke-linejoin="round" stroke-linecap="butt" d="m152.65092 144.70735l-0.31541443 60.929214" fill-rule="evenodd"/><path fill="#000000" stroke="#000000" stroke-width="1.0" stroke-linecap="butt" d="m150.6838 205.628l1.6282196 4.5466003l1.6752014 -4.5294952z" fill-rule="evenodd"/><g filter="url(#shadowFilter-p.8)"><use xlink:href="#p.8" transform=""/></g><defs><filter id="shadowFilter-p.8" filterUnits="userSpaceOnUse"><feGaussianBlur in="SourceAlpha" stdDeviation="5.0" result="blur"/><feComponentTransfer in="blur" color-interpolation-filters="sRGB"><feFuncR type="linear" slope="0" intercept="0.0"/><feFuncG type="linear" slope="0" intercept="0.0"/><feFuncB type="linear" slope="0" intercept="0.0"/><feFuncA type="linear" slope="0.25" intercept="0"/></feComponentTransfer></filter></defs><g id="p.8"><defs><radialGradient id="p.9" gradientUnits="userSpaceOnUse" gradientTransform="matrix(13.885509486067267 0.0 0.0 13.885509486067267 0.0 0.0)" spreadMethod="pad" cx="17.803828037074826" cy="1.2586075969495745" fx="17.803828037074826" fy="1.2586075969495745" r="13.885509490966797"><stop offset="0.0" stop-color="#696969"/><stop offset="1.0" stop-color="#1d1d1d"/></radialGradient></defs><path fill="url(#p.9)" d="m247.21523 81.33465l36.84877 -63.85824l70.74341 0l36.848755 63.85824l-36.848755 63.85824l-70.74341 0z" fill-rule="evenodd"/><path stroke="#434343" stroke-width="1.0" stroke-linejoin="round" stroke-linecap="butt" d="m247.21523 81.33465l36.84877 -63.85824l70.74341 0l36.848755 63.85824l-36.848755 63.85824l-70.74341 0z" fill-rule="evenodd"/><path fill="#f3f3f3" d="m301.26773 73.67902l1.515625 0.375q-0.46875 1.875 -1.71875 2.859375q-1.234375 0.984375 -3.015625 0.984375q-1.859375 0 -3.015625 -0.75q-1.15625 -0.765625 -1.765625 -2.1875q-0.609375 -1.4375 -0.609375 -3.078125q0 -1.796875 0.6875 -3.125q0.6875 -1.328125 1.9375 -2.015625q1.265625 -0.703125 2.78125 -0.703125q1.71875 0 2.890625 0.875q1.171875 0.875 1.640625 2.46875l-1.5 0.34375q-0.390625 -1.25 -1.15625 -1.8125q-0.75 -0.578125 -1.90625 -0.578125q-1.3125 0 -2.203125 0.640625q-0.890625 0.625 -1.25 1.703125q-0.359375 1.0625 -0.359375 2.1875q0 1.46875 0.421875 2.5625q0.4375 1.078125 1.328125 1.625q0.90625 0.53125 1.953125 0.53125q1.265625 0 2.140625 -0.734375q0.890625 -0.734375 1.203125 -2.171875zm8.6171875 2.984375q-0.78125 0.671875 -1.5 0.953125q-0.71875 0.265625 -1.546875 0.265625q-1.375 0 -2.109375 -0.671875q-0.734375 -0.671875 -0.734375 -1.703125q0 -0.609375 0.28125 -1.109375q0.28125 -0.515625 0.71875 -0.8125q0.453125 -0.3125 1.015625 -0.46875q0.421875 -0.109375 1.25 -0.203125q1.703125 -0.203125 2.515625 -0.484375q0 -0.296875 0 -0.375q0 -0.859375 -0.390625 -1.203125q-0.546875 -0.484375 -1.609375 -0.484375q-0.984375 0 -1.46875 0.359375q-0.46875 0.34375 -0.6875 1.21875l-1.375 -0.1875q0.1875 -0.875 0.609375 -1.421875q0.4375 -0.546875 1.25 -0.828125q0.8125 -0.296875 1.875 -0.296875q1.0625 0 1.71875 0.25q0.671875 0.25 0.984375 0.625q0.3125 0.375 0.4375 0.953125q0.078125 0.359375 0.078125 1.296875l0 1.875q0 1.96875 0.078125 2.484375q0.09375 0.515625 0.359375 1.0l-1.46875 0q-0.21875 -0.4375 -0.28125 -1.03125zm-0.109375 -3.140625q-0.765625 0.3125 -2.296875 0.53125q-0.875 0.125 -1.234375 0.28125q-0.359375 0.15625 -0.5625 0.46875q-0.1875 0.296875 -0.1875 0.65625q0 0.5625 0.421875 0.9375q0.4375 0.375 1.25 0.375q0.8125 0 1.4375 -0.34375q0.640625 -0.359375 0.9375 -0.984375q0.234375 -0.46875 0.234375 -1.40625l0 -0.515625zm6.6640625 2.90625l0.203125 1.25q-0.59375 0.125 -1.0625 0.125q-0.765625 0 -1.1875 -0.234375q-0.421875 -0.25 -0.59375 -0.640625q-0.171875 -0.40625 -0.171875 -1.671875l0 -4.765625l-1.03125 0l0 -1.09375l1.03125 0l0 -2.0625l1.40625 -0.84375l0 2.90625l1.40625 0l0 1.09375l-1.40625 0l0 4.84375q0 0.609375 0.0625 0.78125q0.078125 0.171875 0.25 0.28125q0.171875 0.09375 0.484375 0.09375q0.234375 0 0.609375 -0.0625zm6.7890625 0.234375q-0.78125 0.671875 -1.5 0.953125q-0.71875 0.265625 -1.546875 0.265625q-1.375 0 -2.109375 -0.671875q-0.734375 -0.671875 -0.734375 -1.703125q0 -0.609375 0.28125 -1.109375q0.28125 -0.515625 0.71875 -0.8125q0.453125 -0.3125 1.015625 -0.46875q0.421875 -0.109375 1.25 -0.203125q1.703125 -0.203125 2.515625 -0.484375q0 -0.296875 0 -0.375q0 -0.859375 -0.390625 -1.203125q-0.546875 -0.484375 -1.609375 -0.484375q-0.984375 0 -1.46875 0.359375q-0.46875 0.34375 -0.6875 1.21875l-1.375 -0.1875q0.1875 -0.875 0.609375 -1.421875q0.4375 -0.546875 1.25 -0.828125q0.8125 -0.296875 1.875 -0.296875q1.0625 0 1.71875 0.25q0.671875 0.25 0.984375 0.625q0.3125 0.375 0.4375 0.953125q0.078125 0.359375 0.078125 1.296875l0 1.875q0 1.96875 0.078125 2.484375q0.09375 0.515625 0.359375 1.0l-1.46875 0q-0.21875 -0.4375 -0.28125 -1.03125zm-0.109375 -3.140625q-0.765625 0.3125 -2.296875 0.53125q-0.875 0.125 -1.234375 0.28125q-0.359375 0.15625 -0.5625 0.46875q-0.1875 0.296875 -0.1875 0.65625q0 0.5625 0.421875 0.9375q0.4375 0.375 1.25 0.375q0.8125 0 1.4375 -0.34375q0.640625 -0.359375 0.9375 -0.984375q0.234375 -0.46875 0.234375 -1.40625l0 -0.515625zm3.5703125 4.171875l0 -11.453125l1.40625 0l0 11.453125l-1.40625 0zm3.0546875 -4.15625q0 -2.296875 1.28125 -3.40625q1.078125 -0.921875 2.609375 -0.921875q1.71875 0 2.796875 1.125q1.09375 1.109375 1.09375 3.09375q0 1.59375 -0.484375 2.515625q-0.484375 0.921875 -1.40625 1.4375q-0.90625 0.5 -2.0 0.5q-1.734375 0 -2.8125 -1.109375q-1.078125 -1.125 -1.078125 -3.234375zm1.453125 0q0 1.59375 0.6875 2.390625q0.703125 0.796875 1.75 0.796875q1.046875 0 1.734375 -0.796875q0.703125 -0.796875 0.703125 -2.4375q0 -1.53125 -0.703125 -2.328125q-0.6875 -0.796875 -1.734375 -0.796875q-1.046875 0 -1.75 0.796875q-0.6875 0.78125 -0.6875 2.375zm7.7109375 4.84375l1.375 0.203125q0.078125 0.640625 0.46875 0.921875q0.53125 0.390625 1.4375 0.390625q0.96875 0 1.5 -0.390625q0.53125 -0.390625 0.71875 -1.09375q0.109375 -0.421875 0.109375 -1.8125q-0.921875 1.09375 -2.296875 1.09375q-1.71875 0 -2.65625 -1.234375q-0.9375 -1.234375 -0.9375 -2.96875q0 -1.1875 0.421875 -2.1875q0.4375 -1.0 1.25 -1.546875q0.828125 -0.546875 1.921875 -0.546875q1.46875 0 2.421875 1.1875l0 -1.0l1.296875 0l0 7.171875q0 1.9375 -0.390625 2.75q-0.390625 0.8125 -1.25 1.28125q-0.859375 0.46875 -2.109375 0.46875q-1.484375 0 -2.40625 -0.671875q-0.90625 -0.671875 -0.875 -2.015625zm1.171875 -4.984375q0 1.625 0.640625 2.375q0.65625 0.75 1.625 0.75q0.96875 0 1.625 -0.734375q0.65625 -0.75 0.65625 -2.34375q0 -1.53125 -0.671875 -2.296875q-0.671875 -0.78125 -1.625 -0.78125q-0.9375 0 -1.59375 0.765625q-0.65625 0.765625 -0.65625 2.265625z" fill-rule="nonzero"/><path fill="#f3f3f3" d="m293.47867 93.00715l1.4375 -0.125q0.09375 0.859375 0.46875 1.421875q0.375 0.546875 1.15625 0.890625q0.78125 0.328125 1.75 0.328125q0.875 0 1.53125 -0.25q0.671875 -0.265625 0.984375 -0.703125q0.328125 -0.453125 0.328125 -0.984375q0 -0.546875 -0.3125 -0.9375q-0.3125 -0.40625 -1.03125 -0.6875q-0.453125 -0.171875 -2.03125 -0.546875q-1.578125 -0.390625 -2.21875 -0.71875q-0.8125 -0.4375 -1.21875 -1.0625q-0.40625 -0.640625 -0.40625 -1.4375q0 -0.859375 0.484375 -1.609375q0.5 -0.765625 1.4375 -1.15625q0.953125 -0.390625 2.109375 -0.390625q1.28125 0 2.25 0.421875q0.96875 0.40625 1.484375 1.203125q0.53125 0.796875 0.578125 1.796875l-1.453125 0.109375q-0.125 -1.078125 -0.796875 -1.625q-0.671875 -0.5625 -2.0 -0.5625q-1.375 0 -2.0 0.5q-0.625 0.5 -0.625 1.21875q0 0.609375 0.4375 1.015625q0.4375 0.390625 2.28125 0.8125q1.859375 0.421875 2.546875 0.734375q1.0 0.453125 1.46875 1.171875q0.484375 0.703125 0.484375 1.625q0 0.90625 -0.53125 1.71875q-0.515625 0.8125 -1.5 1.265625q-0.984375 0.453125 -2.203125 0.453125q-1.5625 0 -2.609375 -0.453125q-1.046875 -0.46875 -1.65625 -1.375q-0.59375 -0.90625 -0.625 -2.0625zm16.6875 1.015625l1.453125 0.171875q-0.34375 1.28125 -1.28125 1.984375q-0.921875 0.703125 -2.359375 0.703125q-1.828125 0 -2.890625 -1.125q-1.0625 -1.125 -1.0625 -3.140625q0 -2.09375 1.078125 -3.25q1.078125 -1.15625 2.796875 -1.15625q1.65625 0 2.703125 1.140625q1.0625 1.125 1.0625 3.171875q0 0.125 0 0.375l-6.1875 0q0.078125 1.375 0.765625 2.109375q0.703125 0.71875 1.734375 0.71875q0.78125 0 1.328125 -0.40625q0.546875 -0.40625 0.859375 -1.296875zm-4.609375 -2.28125l4.625 0q-0.09375 -1.046875 -0.53125 -1.5625q-0.671875 -0.8125 -1.734375 -0.8125q-0.96875 0 -1.640625 0.65625q-0.65625 0.640625 -0.71875 1.71875zm7.8203125 4.953125l0 -8.296875l1.265625 0l0 1.25q0.484375 -0.875 0.890625 -1.15625q0.40625 -0.28125 0.90625 -0.28125q0.703125 0 1.4375 0.453125l-0.484375 1.296875q-0.515625 -0.296875 -1.03125 -0.296875q-0.453125 0 -0.828125 0.28125q-0.359375 0.265625 -0.515625 0.765625q-0.234375 0.75 -0.234375 1.640625l0 4.34375l-1.40625 0zm7.640625 0l-3.15625 -8.296875l1.484375 0l1.78125 4.96875q0.296875 0.796875 0.53125 1.671875q0.1875 -0.65625 0.53125 -1.578125l1.84375 -5.0625l1.4375 0l-3.140625 8.296875l-1.3125 0zm5.703125 -9.84375l0 -1.609375l1.40625 0l0 1.609375l-1.40625 0zm0 9.84375l0 -8.296875l1.40625 0l0 8.296875l-1.40625 0zm8.9609375 -3.046875l1.390625 0.1875q-0.234375 1.421875 -1.171875 2.234375q-0.921875 0.8125 -2.28125 0.8125q-1.703125 0 -2.75 -1.109375q-1.03125 -1.125 -1.03125 -3.203125q0 -1.34375 0.4375 -2.34375q0.453125 -1.015625 1.359375 -1.515625q0.921875 -0.5 1.984375 -0.5q1.359375 0 2.21875 0.6875q0.859375 0.671875 1.09375 1.9375l-1.359375 0.203125q-0.203125 -0.828125 -0.703125 -1.25q-0.484375 -0.421875 -1.1875 -0.421875q-1.0625 0 -1.734375 0.765625q-0.65625 0.75 -0.65625 2.40625q0 1.671875 0.640625 2.4375q0.640625 0.75 1.671875 0.75q0.828125 0 1.375 -0.5q0.5625 -0.515625 0.703125 -1.578125zm8.265625 0.375l1.453125 0.171875q-0.34375 1.28125 -1.28125 1.984375q-0.921875 0.703125 -2.359375 0.703125q-1.828125 0 -2.890625 -1.125q-1.0625 -1.125 -1.0625 -3.140625q0 -2.09375 1.078125 -3.25q1.078125 -1.15625 2.796875 -1.15625q1.65625 0 2.703125 1.140625q1.0625 1.125 1.0625 3.171875q0 0.125 0 0.375l-6.1875 0q0.078125 1.375 0.765625 2.109375q0.703125 0.71875 1.734375 0.71875q0.78125 0 1.328125 -0.40625q0.546875 -0.40625 0.859375 -1.296875zm-4.609375 -2.28125l4.625 0q-0.09375 -1.046875 -0.53125 -1.5625q-0.671875 -0.8125 -1.734375 -0.8125q-0.96875 0 -1.640625 0.65625q-0.65625 0.640625 -0.71875 1.71875z" fill-rule="nonzero"/></g><g filter="url(#shadowFilter-p.10)"><use xlink:href="#p.10" transform=""/></g><defs><filter id="shadowFilter-p.10" filterUnits="userSpaceOnUse"><feGaussianBlur in="SourceAlpha" stdDeviation="5.0" result="blur"/><feComponentTransfer in="blur" color-interpolation-filters="sRGB"><feFuncR type="linear" slope="0" intercept="0.0"/><feFuncG type="linear" slope="0" intercept="0.0"/><feFuncB type="linear" slope="0" intercept="0.0"/><feFuncA type="linear" slope="0.25" intercept="0"/></feComponentTransfer></filter></defs><g id="p.10"><defs><radialGradient id="p.11" gradientUnits="userSpaceOnUse" gradientTransform="matrix(12.143437746312056 0.0 0.0 12.143437746312056 0.0 0.0)" spreadMethod="pad" cx="21.972486530080378" cy="17.42718896189335" fx="21.972486530080378" fy="17.42718896189335" r="12.143437385559082"><stop offset="0.0" stop-color="#ffffff"/><stop offset="1.0" stop-color="#efefef"/></radialGradient></defs><path fill="url(#p.11)" d="m266.82153 219.63641l0 0c0 -4.4240417 3.5863953 -8.010422 8.0104065 -8.010422l89.20749 0c2.1245117 0 4.1619873 0.84394836 5.6642456 2.3461914c1.5022278 1.502243 2.3461914 3.539734 2.3461914 5.6642303l0 87.286224c0 4.4240417 -3.5863953 8.010437 -8.010437 8.010437l-89.20749 0c-4.424011 0 -8.0104065 -3.5863953 -8.0104065 -8.010437z" fill-rule="evenodd"/><path stroke="#000000" stroke-width="1.0" stroke-linejoin="round" stroke-linecap="butt" d="m266.82153 219.63641l0 0c0 -4.4240417 3.5863953 -8.010422 8.0104065 -8.010422l89.20749 0c2.1245117 0 4.1619873 0.84394836 5.6642456 2.3461914c1.5022278 1.502243 2.3461914 3.539734 2.3461914 5.6642303l0 87.286224c0 4.4240417 -3.5863953 8.010437 -8.010437 8.010437l-89.20749 0c-4.424011 0 -8.0104065 -3.5863953 -8.0104065 -8.010437z" fill-rule="evenodd"/><path fill="#000000" d="m302.03497 256.15576l1.453125 0.359375q-0.46875 1.796875 -1.65625 2.734375q-1.171875 0.9375 -2.890625 0.9375q-1.78125 0 -2.890625 -0.71875q-1.109375 -0.71875 -1.6875 -2.09375q-0.578125 -1.3749847 -0.578125 -2.9374847q0 -1.71875 0.65625 -2.984375q0.65625 -1.28125 1.859375 -1.9375q1.203125 -0.671875 2.65625 -0.671875q1.65625 0 2.765625 0.84375q1.125 0.828125 1.578125 2.34375l-1.4375 0.34375q-0.375 -1.203125 -1.109375 -1.75q-0.71875 -0.546875 -1.828125 -0.546875q-1.265625 0 -2.109375 0.609375q-0.84375 0.609375 -1.1875 1.640625q-0.34375 1.015625 -0.34375 2.09375q0 1.40625 0.40625 2.4531097q0.40625 1.03125 1.265625 1.546875q0.859375 0.515625 1.859375 0.515625q1.21875 0 2.0625 -0.703125q0.859375 -0.703125 1.15625 -2.078125zm8.256989 2.859375q-0.75 0.640625 -1.453125 0.90625q-0.6875 0.25 -1.484375 0.25q-1.3125 0 -2.015625 -0.625q-0.703125 -0.640625 -0.703125 -1.640625q0 -0.578125 0.265625 -1.0625q0.265625 -0.484375 0.703125 -0.78125q0.4375 -0.29685974 0.96875 -0.43748474q0.390625 -0.109375 1.203125 -0.203125q1.625 -0.203125 2.390625 -0.46875q0.015625 -0.28125 0.015625 -0.34375q0 -0.828125 -0.390625 -1.171875q-0.515625 -0.453125 -1.53125 -0.453125q-0.953125 0 -1.40625 0.34375q-0.453125 0.328125 -0.65625 1.171875l-1.328125 -0.1875q0.1875 -0.84375 0.59375 -1.359375q0.40625 -0.515625 1.1875 -0.796875q0.78125 -0.28125 1.8125 -0.28125q1.015625 0 1.640625 0.234375q0.640625 0.234375 0.9375 0.609375q0.3125 0.359375 0.421875 0.90625q0.078125 0.34375 0.078125 1.25l0 1.7968597q0 1.875 0.078125 2.375q0.09375 0.5 0.34375 0.953125l-1.40625 0q-0.21875 -0.421875 -0.265625 -0.984375zm-0.125 -3.0q-0.734375 0.296875 -2.1875 0.5q-0.84375 0.125 -1.1875 0.28125q-0.34375 0.140625 -0.53125 0.4375q-0.1875 0.28125 -0.1875 0.625q0 0.546875 0.40625 0.90625q0.421875 0.359375 1.203125 0.359375q0.78125 0 1.375 -0.34375q0.609375 -0.34375 0.90625 -0.921875q0.203125 -0.46875 0.203125 -1.359375l0 -0.484375zm6.3997803 2.78125l0.1875 1.1875q-0.5625 0.125 -1.015625 0.125q-0.734375 0 -1.140625 -0.234375q-0.390625 -0.234375 -0.5625 -0.609375q-0.171875 -0.375 -0.171875 -1.59375l0 -4.5781097l-0.984375 0l0 -1.046875l0.984375 0l0 -1.96875l1.34375 -0.796875l0 2.765625l1.359375 0l0 1.046875l-1.359375 0l0 4.6562347q0 0.578125 0.0625 0.75q0.078125 0.15625 0.234375 0.25q0.171875 0.09375 0.46875 0.09375q0.21875 0 0.59375 -0.046875zm6.508667 0.21875q-0.75 0.640625 -1.453125 0.90625q-0.6875 0.25 -1.484375 0.25q-1.3125 0 -2.015625 -0.625q-0.703125 -0.640625 -0.703125 -1.640625q0 -0.578125 0.265625 -1.0625q0.265625 -0.484375 0.703125 -0.78125q0.4375 -0.29685974 0.96875 -0.43748474q0.390625 -0.109375 1.203125 -0.203125q1.625 -0.203125 2.390625 -0.46875q0.015625 -0.28125 0.015625 -0.34375q0 -0.828125 -0.390625 -1.171875q-0.515625 -0.453125 -1.53125 -0.453125q-0.953125 0 -1.40625 0.34375q-0.453125 0.328125 -0.65625 1.171875l-1.328125 -0.1875q0.1875 -0.84375 0.59375 -1.359375q0.40625 -0.515625 1.1875 -0.796875q0.78125 -0.28125 1.8125 -0.28125q1.015625 0 1.640625 0.234375q0.640625 0.234375 0.9375 0.609375q0.3125 0.359375 0.421875 0.90625q0.078125 0.34375 0.078125 1.25l0 1.7968597q0 1.875 0.078125 2.375q0.09375 0.5 0.34375 0.953125l-1.40625 0q-0.21875 -0.421875 -0.265625 -0.984375zm-0.125 -3.0q-0.734375 0.296875 -2.1875 0.5q-0.84375 0.125 -1.1875 0.28125q-0.34375 0.140625 -0.53125 0.4375q-0.1875 0.28125 -0.1875 0.625q0 0.546875 0.40625 0.90625q0.421875 0.359375 1.203125 0.359375q0.78125 0 1.375 -0.34375q0.609375 -0.34375 0.90625 -0.921875q0.203125 -0.46875 0.203125 -1.359375l0 -0.484375zm3.4310303 3.984375l0 -10.968735l1.34375 0l0 10.968735l-1.34375 0zm2.936676 -3.96875q0 -2.2187347 1.21875 -3.2812347q1.03125 -0.875 2.5 -0.875q1.640625 0 2.671875 1.078125q1.046875 1.0625 1.046875 2.953125q0 1.5468597 -0.46875 2.4218597q-0.453125 0.875 -1.328125 1.359375q-0.875 0.484375 -1.921875 0.484375q-1.671875 0 -2.703125 -1.0625q-1.015625 -1.0625 -1.015625 -3.078125zm1.375 0q0 1.515625 0.65625 2.28125q0.671875 0.765625 1.6875 0.765625q1.0 0 1.671875 -0.765625q0.671875 -0.765625 0.671875 -2.3281097q0 -1.484375 -0.671875 -2.234375q-0.671875 -0.765625 -1.671875 -0.765625q-1.015625 0 -1.6875 0.765625q-0.65625 0.75 -0.65625 2.2812347zm7.3997803 4.625l1.3125 0.203125q0.078125 0.59375 0.453125 0.875q0.5 0.375 1.375 0.375q0.921875 0 1.4375 -0.375q0.515625 -0.375 0.6875 -1.046875q0.109375 -0.40625 0.09375 -1.734375q-0.875 1.046875 -2.203125 1.046875q-1.625 0 -2.53125 -1.171875q-0.890625 -1.1875 -0.890625 -2.8437347q0 -1.140625 0.40625 -2.09375q0.40625 -0.96875 1.1875 -1.484375q0.78125 -0.53125 1.84375 -0.53125q1.40625 0 2.3125 1.140625l0 -0.96875l1.25 0l0 6.8749847q0 1.859375 -0.375 2.625q-0.375 0.78125 -1.203125 1.21875q-0.8125 0.453125 -2.015625 0.453125q-1.421875 0 -2.296875 -0.640625q-0.875 -0.625 -0.84375 -1.921875zm1.109375 -4.7656097q0 1.5624847 0.625 2.2812347q0.625 0.71875 1.5625 0.71875q0.921875 0 1.546875 -0.71875q0.625 -0.71875 0.625 -2.2499847q0 -1.453125 -0.640625 -2.1875q-0.640625 -0.75 -1.5625 -0.75q-0.890625 0 -1.53125 0.734375q-0.625 0.734375 -0.625 2.171875z" fill-rule="nonzero"/><path fill="#000000" d="m284.00623 277.9995l0 -10.96875l4.859375 0q1.46875 0 2.234375 0.296875q0.765625 0.296875 1.21875 1.046875q0.46875 0.734375 0.46875 1.640625q0 1.171875 -0.765625 1.984375q-0.75 0.796875 -2.328125 1.015625q0.578125 0.265625 0.875 0.53125q0.625 0.59375 1.203125 1.46875l1.90625 2.984375l-1.828125 0l-1.453125 -2.28125q-0.640625 -0.984375 -1.046875 -1.5q-0.40625 -0.53125 -0.734375 -0.734375q-0.328125 -0.21875 -0.65625 -0.296875q-0.25 -0.0625 -0.8125 -0.0625l-1.6875 0l0 4.875l-1.453125 0zm1.453125 -6.125l3.125 0q0.984375 0 1.546875 -0.203125q0.5625 -0.21875 0.859375 -0.671875q0.296875 -0.453125 0.296875 -0.984375q0 -0.765625 -0.578125 -1.265625q-0.5625 -0.515625 -1.78125 -0.515625l-3.46875 0l0 3.640625zm14.866364 3.5625l1.390625 0.171875q-0.328125 1.21875 -1.21875 1.890625q-0.890625 0.671875 -2.28125 0.671875q-1.734375 0 -2.765625 -1.0625q-1.015625 -1.078125 -1.015625 -3.015625q0 -2.0 1.03125 -3.109375q1.03125 -1.109375 2.6875 -1.109375q1.59375 0 2.59375 1.09375q1.015625 1.078125 1.015625 3.046875q0 0.109375 -0.015625 0.359375l-5.921875 0q0.078125 1.3125 0.734375 2.015625q0.671875 0.6875 1.671875 0.6875q0.734375 0 1.25 -0.390625q0.53125 -0.390625 0.84375 -1.25zm-4.421875 -2.171875l4.4375 0q-0.09375 -1.0 -0.515625 -1.5q-0.640625 -0.78125 -1.671875 -0.78125q-0.921875 0 -1.5625 0.625q-0.625 0.609375 -0.6875 1.65625zm7.5091553 7.78125l0 -11.0l1.21875 0l0 1.03125q0.4375 -0.59375 0.984375 -0.890625q0.546875 -0.3125 1.328125 -0.3125q1.015625 0 1.796875 0.53125q0.78125 0.515625 1.171875 1.46875q0.390625 0.953125 0.390625 2.09375q0 1.21875 -0.4375 2.203125q-0.4375 0.96875 -1.28125 1.484375q-0.828125 0.515625 -1.734375 0.515625q-0.6875 0 -1.21875 -0.28125q-0.53125 -0.28125 -0.875 -0.71875l0 3.875l-1.34375 0zm1.21875 -6.96875q0 1.53125 0.609375 2.265625q0.625 0.734375 1.515625 0.734375q0.890625 0 1.53125 -0.765625q0.640625 -0.765625 0.640625 -2.359375q0 -1.515625 -0.625 -2.265625q-0.625 -0.765625 -1.484375 -0.765625q-0.859375 0 -1.53125 0.8125q-0.65625 0.796875 -0.65625 2.34375zm6.8060303 -0.046875q0 -2.21875 1.21875 -3.28125q1.03125 -0.875 2.5 -0.875q1.640625 0 2.671875 1.078125q1.046875 1.0625 1.046875 2.953125q0 1.546875 -0.46875 2.421875q-0.453125 0.875 -1.328125 1.359375q-0.875 0.484375 -1.921875 0.484375q-1.671875 0 -2.703125 -1.0625q-1.015625 -1.0625 -1.015625 -3.078125zm1.375 0q0 1.515625 0.65625 2.28125q0.671875 0.765625 1.6875 0.765625q1.0 0 1.671875 -0.765625q0.671875 -0.765625 0.671875 -2.328125q0 -1.484375 -0.671875 -2.234375q-0.671875 -0.765625 -1.671875 -0.765625q-1.015625 0 -1.6875 0.765625q-0.65625 0.75 -0.65625 2.28125zm7.1029053 1.59375l1.328125 -0.203125q0.125 0.796875 0.625 1.234375q0.515625 0.421875 1.4375 0.421875q0.9375 0 1.375 -0.375q0.453125 -0.390625 0.453125 -0.890625q0 -0.46875 -0.390625 -0.71875q-0.28125 -0.1875 -1.375 -0.46875q-1.484375 -0.375 -2.0625 -0.640625q-0.578125 -0.265625 -0.875 -0.75q-0.28125 -0.484375 -0.28125 -1.078125q0 -0.53125 0.234375 -0.984375q0.25 -0.453125 0.671875 -0.75q0.3125 -0.234375 0.84375 -0.390625q0.546875 -0.15625 1.171875 -0.15625q0.9375 0 1.640625 0.265625q0.703125 0.265625 1.03125 0.734375q0.34375 0.453125 0.46875 1.234375l-1.3125 0.171875q-0.09375 -0.609375 -0.53125 -0.953125q-0.421875 -0.34375 -1.203125 -0.34375q-0.921875 0 -1.328125 0.3125q-0.390625 0.296875 -0.390625 0.703125q0 0.265625 0.15625 0.46875q0.171875 0.21875 0.515625 0.359375q0.203125 0.078125 1.203125 0.359375q1.421875 0.375 1.984375 0.625q0.5625 0.234375 0.890625 0.703125q0.328125 0.453125 0.328125 1.15625q0 0.671875 -0.40625 1.265625q-0.390625 0.59375 -1.125 0.921875q-0.734375 0.3125 -1.671875 0.3125q-1.5625 0 -2.375 -0.640625q-0.796875 -0.640625 -1.03125 -1.90625zm8.2109375 -7.046875l0 -1.546875l1.34375 0l0 1.546875l-1.34375 0zm0 9.421875l0 -7.953125l1.34375 0l0 7.953125l-1.34375 0zm6.342926 -1.203125l0.1875 1.1875q-0.5625 0.125 -1.015625 0.125q-0.734375 0 -1.140625 -0.234375q-0.390625 -0.234375 -0.5625 -0.609375q-0.171875 -0.375 -0.171875 -1.59375l0 -4.578125l-0.984375 0l0 -1.046875l0.984375 0l0 -1.96875l1.34375 -0.796875l0 2.765625l1.359375 0l0 1.046875l-1.359375 0l0 4.65625q0 0.578125 0.0625 0.75q0.078125 0.15625 0.234375 0.25q0.171875 0.09375 0.46875 0.09375q0.21875 0 0.59375 -0.046875zm0.8211365 -2.765625q0 -2.21875 1.21875 -3.28125q1.03125 -0.875 2.5 -0.875q1.640625 0 2.671875 1.078125q1.046875 1.0625 1.046875 2.953125q0 1.546875 -0.46875 2.421875q-0.453125 0.875 -1.328125 1.359375q-0.875 0.484375 -1.921875 0.484375q-1.671875 0 -2.703125 -1.0625q-1.015625 -1.0625 -1.015625 -3.078125zm1.375 0q0 1.515625 0.65625 2.28125q0.671875 0.765625 1.6875 0.765625q1.0 0 1.671875 -0.765625q0.671875 -0.765625 0.671875 -2.328125q0 -1.484375 -0.671875 -2.234375q-0.671875 -0.765625 -1.671875 -0.765625q-1.015625 0 -1.6875 0.765625q-0.65625 0.75 -0.65625 2.28125zm7.6341553 3.96875l0 -7.953125l1.203125 0l0 1.203125q0.46875 -0.84375 0.859375 -1.109375q0.390625 -0.265625 0.859375 -0.265625q0.6875 0 1.390625 0.4375l-0.46875 1.25q-0.484375 -0.296875 -0.984375 -0.296875q-0.4375 0 -0.796875 0.265625q-0.34375 0.265625 -0.5 0.734375q-0.21875 0.71875 -0.21875 1.578125l0 4.15625l-1.34375 0zm5.0575256 3.0625l-0.15625 -1.265625q0.453125 0.125 0.78125 0.125q0.4375 0 0.703125 -0.15625q0.28125 -0.15625 0.453125 -0.421875q0.125 -0.203125 0.40625 -1.0q0.046875 -0.109375 0.125 -0.328125l-3.015625 -7.96875l1.453125 0l1.65625 4.609375q0.3125 0.875 0.5625 1.84375q0.234375 -0.9375 0.5625 -1.8125l1.703125 -4.640625l1.34375 0l-3.03125 8.09375q-0.484375 1.296875 -0.75 1.796875q-0.359375 0.671875 -0.828125 0.96875q-0.453125 0.3125 -1.109375 0.3125q-0.390625 0 -0.859375 -0.15625z" fill-rule="nonzero"/></g><path fill="#000000" fill-opacity="0.0" d="m152.29396 314.93307l258.92914 43.93701" fill-rule="evenodd"/><path stroke="#000000" stroke-width="1.0" stroke-linejoin="round" stroke-linecap="butt" d="m152.29396 314.93307l253.01369 42.933228" fill-rule="evenodd"/><path fill="#000000" stroke="#000000" stroke-width="1.0" stroke-linecap="butt" d="m405.03134 359.49475l4.750458 -0.8692322l-4.197815 -2.3876648z" fill-rule="evenodd"/><path fill="#000000" fill-opacity="0.0" d="m319.4357 314.93307l91.77951 43.93701" fill-rule="evenodd"/><path stroke="#000000" stroke-width="1.0" stroke-linejoin="round" stroke-linecap="butt" d="m319.4357 314.93307l86.36771 41.346252" fill-rule="evenodd"/><path fill="#000000" stroke="#000000" stroke-width="1.0" stroke-linecap="butt" d="m405.09018 357.76913l4.8064575 0.46969604l-3.3800354 -3.4493408z" fill-rule="evenodd"/><g filter="url(#shadowFilter-p.12)"><use xlink:href="#p.12" transform=""/></g><defs><filter id="shadowFilter-p.12" filterUnits="userSpaceOnUse"><feGaussianBlur in="SourceAlpha" stdDeviation="5.0" result="blur"/><feComponentTransfer in="blur" color-interpolation-filters="sRGB"><feFuncR type="linear" slope="0" intercept="0.0"/><feFuncG type="linear" slope="0" intercept="0.0"/><feFuncB type="linear" slope="0" intercept="0.0"/><feFuncA type="linear" slope="0.25" intercept="0"/></feComponentTransfer></filter></defs><g id="p.12"><defs><radialGradient id="p.13" gradientUnits="userSpaceOnUse" gradientTransform="matrix(13.885509486067267 0.0 0.0 13.885509486067267 0.0 0.0)" spreadMethod="pad" cx="30.81272560651036" cy="1.4119047392705217" fx="30.81272560651036" fy="1.4119047392705217" r="13.885509490966797"><stop offset="0.0" stop-color="#696969"/><stop offset="1.0" stop-color="#1d1d1d"/></radialGradient></defs><path fill="url(#p.13)" d="m427.8504 83.46326l36.848755 -63.85824l70.74341 0l36.848755 63.85824l-36.848755 63.85823l-70.74341 0z" fill-rule="evenodd"/><path stroke="#434343" stroke-width="1.0" stroke-linejoin="round" stroke-linecap="butt" d="m427.8504 83.46326l36.848755 -63.85824l70.74341 0l36.848755 63.85824l-36.848755 63.85823l-70.74341 0z" fill-rule="evenodd"/><path fill="#f3f3f3" d="m476.4029 74.24513q0 -2.859375 1.53125 -4.46875q1.53125 -1.609375 3.953125 -1.609375q1.578125 0 2.84375 0.765625q1.28125 0.75 1.953125 2.109375q0.671875 1.34375 0.671875 3.0625q0 1.75 -0.703125 3.125q-0.703125 1.375 -2.0 2.09375q-1.28125 0.703125 -2.78125 0.703125q-1.609375 0 -2.890625 -0.78125q-1.265625 -0.796875 -1.921875 -2.140625q-0.65625 -1.359375 -0.65625 -2.859375zm1.5625 0.015625q0 2.078125 1.109375 3.265625q1.109375 1.1875 2.796875 1.1875q1.703125 0 2.8125 -1.203125q1.109375 -1.203125 1.109375 -3.40625q0 -1.40625 -0.484375 -2.4375q-0.46875 -1.046875 -1.375 -1.625q-0.90625 -0.578125 -2.046875 -0.578125q-1.609375 0 -2.765625 1.109375q-1.15625 1.109375 -1.15625 3.6875zm11.1484375 5.5625l0 -8.296875l1.265625 0l0 1.25q0.484375 -0.875 0.890625 -1.15625q0.40625 -0.28125 0.90625 -0.28125q0.703125 0 1.4375 0.453125l-0.484375 1.296875q-0.515625 -0.296875 -1.03125 -0.296875q-0.453125 0 -0.828125 0.28125q-0.359375 0.265625 -0.515625 0.765625q-0.234375 0.75 -0.234375 1.640625l0 4.34375l-1.40625 0zm10.71875 0l0 -1.046875q-0.78125 1.234375 -2.3125 1.234375q-1.0 0 -1.828125 -0.546875q-0.828125 -0.546875 -1.296875 -1.53125q-0.453125 -0.984375 -0.453125 -2.25q0 -1.25 0.40625 -2.25q0.421875 -1.015625 1.25 -1.546875q0.828125 -0.546875 1.859375 -0.546875q0.75 0 1.328125 0.3125q0.59375 0.3125 0.953125 0.828125l0 -4.109375l1.40625 0l0 11.453125l-1.3125 0zm-4.4375 -4.140625q0 1.59375 0.671875 2.390625q0.671875 0.78125 1.578125 0.78125q0.921875 0 1.5625 -0.75q0.65625 -0.765625 0.65625 -2.3125q0 -1.703125 -0.65625 -2.5q-0.65625 -0.796875 -1.625 -0.796875q-0.9375 0 -1.5625 0.765625q-0.625 0.765625 -0.625 2.421875zm13.6328125 1.46875l1.453125 0.171875q-0.34375 1.28125 -1.28125 1.984375q-0.921875 0.703125 -2.359375 0.703125q-1.828125 0 -2.890625 -1.125q-1.0625 -1.125 -1.0625 -3.140625q0 -2.09375 1.078125 -3.25q1.078125 -1.15625 2.796875 -1.15625q1.65625 0 2.703125 1.140625q1.0625 1.125 1.0625 3.171875q0 0.125 0 0.375l-6.1875 0q0.078125 1.375 0.765625 2.109375q0.703125 0.71875 1.734375 0.71875q0.78125 0 1.328125 -0.40625q0.546875 -0.40625 0.859375 -1.296875zm-4.609375 -2.28125l4.625 0q-0.09375 -1.046875 -0.53125 -1.5625q-0.671875 -0.8125 -1.734375 -0.8125q-0.96875 0 -1.640625 0.65625q-0.65625 0.640625 -0.71875 1.71875zm7.8203125 4.953125l0 -8.296875l1.265625 0l0 1.25q0.484375 -0.875 0.890625 -1.15625q0.40625 -0.28125 0.90625 -0.28125q0.703125 0 1.4375 0.453125l-0.484375 1.296875q-0.515625 -0.296875 -1.03125 -0.296875q-0.453125 0 -0.828125 0.28125q-0.359375 0.265625 -0.515625 0.765625q-0.234375 0.75 -0.234375 1.640625l0 4.34375l-1.40625 0zm4.78125 -2.484375l1.390625 -0.21875q0.109375 0.84375 0.640625 1.296875q0.546875 0.4375 1.5 0.4375q0.96875 0 1.4375 -0.390625q0.46875 -0.40625 0.46875 -0.9375q0 -0.46875 -0.40625 -0.75q-0.296875 -0.1875 -1.4375 -0.46875q-1.546875 -0.390625 -2.15625 -0.671875q-0.59375 -0.296875 -0.90625 -0.796875q-0.296875 -0.5 -0.296875 -1.109375q0 -0.5625 0.25 -1.03125q0.25 -0.46875 0.6875 -0.78125q0.328125 -0.25 0.890625 -0.40625q0.578125 -0.171875 1.21875 -0.171875q0.984375 0 1.71875 0.28125q0.734375 0.28125 1.078125 0.765625q0.359375 0.46875 0.5 1.28125l-1.375 0.1875q-0.09375 -0.640625 -0.546875 -1.0q-0.453125 -0.359375 -1.265625 -0.359375q-0.96875 0 -1.390625 0.328125q-0.40625 0.3125 -0.40625 0.734375q0 0.28125 0.171875 0.5q0.171875 0.21875 0.53125 0.375q0.21875 0.078125 1.25 0.359375q1.484375 0.390625 2.078125 0.65625q0.59375 0.25 0.921875 0.734375q0.34375 0.484375 0.34375 1.203125q0 0.703125 -0.421875 1.328125q-0.40625 0.609375 -1.1875 0.953125q-0.765625 0.34375 -1.734375 0.34375q-1.625 0 -2.46875 -0.671875q-0.84375 -0.671875 -1.078125 -2.0z" fill-rule="nonzero"/><path fill="#f3f3f3" d="m474.11383 95.13576l1.4375 -0.125q0.09375 0.859375 0.46875 1.421875q0.375 0.546875 1.15625 0.890625q0.78125 0.328125 1.75 0.328125q0.875 0 1.53125 -0.25q0.671875 -0.265625 0.984375 -0.703125q0.328125 -0.453125 0.328125 -0.984375q0 -0.546875 -0.3125 -0.9375q-0.3125 -0.40625 -1.03125 -0.6875q-0.453125 -0.171875 -2.03125 -0.546875q-1.578125 -0.390625 -2.21875 -0.71875q-0.8125 -0.4375 -1.21875 -1.0625q-0.40625 -0.640625 -0.40625 -1.4375q0 -0.859375 0.484375 -1.609375q0.5 -0.765625 1.4375 -1.15625q0.953125 -0.390625 2.109375 -0.390625q1.28125 0 2.25 0.421875q0.96875 0.40625 1.484375 1.203125q0.53125 0.796875 0.578125 1.796875l-1.453125 0.109375q-0.125 -1.078125 -0.796875 -1.625q-0.671875 -0.5625 -2.0 -0.5625q-1.375 0 -2.0 0.5q-0.625 0.5 -0.625 1.21875q0 0.609375 0.4375 1.015625q0.4375 0.390625 2.28125 0.8125q1.859375 0.421875 2.546875 0.734375q1.0 0.453125 1.46875 1.171875q0.484375 0.703125 0.484375 1.625q0 0.90625 -0.53125 1.71875q-0.515625 0.8125 -1.5 1.265625q-0.984375 0.453125 -2.203125 0.453125q-1.5625 0 -2.609375 -0.453125q-1.046875 -0.46875 -1.65625 -1.375q-0.59375 -0.90625 -0.625 -2.0625zm16.6875 1.015625l1.453125 0.171875q-0.34375 1.28125 -1.28125 1.984375q-0.921875 0.703125 -2.359375 0.703125q-1.828125 0 -2.890625 -1.125q-1.0625 -1.125 -1.0625 -3.140625q0 -2.09375 1.078125 -3.25q1.078125 -1.15625 2.796875 -1.15625q1.65625 0 2.703125 1.140625q1.0625 1.125 1.0625 3.171875q0 0.125 0 0.375l-6.1875 0q0.078125 1.375 0.765625 2.109375q0.703125 0.71875 1.734375 0.71875q0.78125 0 1.328125 -0.40625q0.546875 -0.40625 0.859375 -1.296875zm-4.609375 -2.28125l4.625 0q-0.09375 -1.046875 -0.53125 -1.5625q-0.671875 -0.8125 -1.734375 -0.8125q-0.96875 0 -1.640625 0.65625q-0.65625 0.640625 -0.71875 1.71875zm7.8203125 4.953125l0 -8.296875l1.265625 0l0 1.25q0.484375 -0.875 0.890625 -1.15625q0.40625 -0.28125 0.90625 -0.28125q0.703125 0 1.4375 0.453125l-0.484375 1.296875q-0.515625 -0.296875 -1.03125 -0.296875q-0.453125 0 -0.828125 0.28125q-0.359375 0.265625 -0.515625 0.765625q-0.234375 0.75 -0.234375 1.640625l0 4.34375l-1.40625 0zm7.640625 0l-3.15625 -8.296875l1.484375 0l1.78125 4.96875q0.296875 0.796875 0.53125 1.671875q0.1875 -0.65625 0.53125 -1.578125l1.84375 -5.0625l1.4375 0l-3.140625 8.296875l-1.3125 0zm5.703125 -9.84375l0 -1.609375l1.40625 0l0 1.609375l-1.40625 0zm0 9.84375l0 -8.296875l1.40625 0l0 8.296875l-1.40625 0zm8.9609375 -3.046875l1.390625 0.1875q-0.234375 1.421875 -1.171875 2.234375q-0.921875 0.8125 -2.28125 0.8125q-1.703125 0 -2.75 -1.109375q-1.03125 -1.125 -1.03125 -3.203125q0 -1.34375 0.4375 -2.34375q0.453125 -1.015625 1.359375 -1.515625q0.921875 -0.5 1.984375 -0.5q1.359375 0 2.21875 0.6875q0.859375 0.671875 1.09375 1.9375l-1.359375 0.203125q-0.203125 -0.828125 -0.703125 -1.25q-0.484375 -0.421875 -1.1875 -0.421875q-1.0625 0 -1.734375 0.765625q-0.65625 0.75 -0.65625 2.40625q0 1.671875 0.640625 2.4375q0.640625 0.75 1.671875 0.75q0.828125 0 1.375 -0.5q0.5625 -0.515625 0.703125 -1.578125zm8.265625 0.375l1.453125 0.171875q-0.34375 1.28125 -1.28125 1.984375q-0.921875 0.703125 -2.359375 0.703125q-1.828125 0 -2.890625 -1.125q-1.0625 -1.125 -1.0625 -3.140625q0 -2.09375 1.078125 -3.25q1.078125 -1.15625 2.796875 -1.15625q1.65625 0 2.703125 1.140625q1.0625 1.125 1.0625 3.171875q0 0.125 0 0.375l-6.1875 0q0.078125 1.375 0.765625 2.109375q0.703125 0.71875 1.734375 0.71875q0.78125 0 1.328125 -0.40625q0.546875 -0.40625 0.859375 -1.296875zm-4.609375 -2.28125l4.625 0q-0.09375 -1.046875 -0.53125 -1.5625q-0.671875 -0.8125 -1.734375 -0.8125q-0.96875 0 -1.640625 0.65625q-0.65625 0.640625 -0.71875 1.71875z" fill-rule="nonzero"/></g><g filter="url(#shadowFilter-p.14)"><use xlink:href="#p.14" transform=""/></g><defs><filter id="shadowFilter-p.14" filterUnits="userSpaceOnUse"><feGaussianBlur in="SourceAlpha" stdDeviation="5.0" result="blur"/><feComponentTransfer in="blur" color-interpolation-filters="sRGB"><feFuncR type="linear" slope="0" intercept="0.0"/><feFuncG type="linear" slope="0" intercept="0.0"/><feFuncB type="linear" slope="0" intercept="0.0"/><feFuncA type="linear" slope="0.25" intercept="0"/></feComponentTransfer></filter></defs><g id="p.14"><defs><radialGradient id="p.15" gradientUnits="userSpaceOnUse" gradientTransform="matrix(12.143437746312056 0.0 0.0 12.143437746312056 0.0 0.0)" spreadMethod="pad" cx="36.84761286393367" cy="17.602477786059385" fx="36.84761286393367" fy="17.602477786059385" r="12.143437385559082"><stop offset="0.0" stop-color="#ffffff"/><stop offset="1.0" stop-color="#efefef"/></radialGradient></defs><path fill="url(#p.15)" d="m447.4567 221.76503l0 0c0 -4.4240417 3.5863953 -8.010437 8.010437 -8.010437l89.20749 0c2.1245117 0 4.1619873 0.84394836 5.6642456 2.3462067c1.5021973 1.502243 2.3461914 3.539734 2.3461914 5.6642303l0 87.28621c0 4.4240417 -3.5864258 8.010437 -8.010437 8.010437l-89.20749 0c-4.4240417 0 -8.010437 -3.5863953 -8.010437 -8.010437z" fill-rule="evenodd"/><path stroke="#000000" stroke-width="1.0" stroke-linejoin="round" stroke-linecap="butt" d="m447.4567 221.76503l0 0c0 -4.4240417 3.5863953 -8.010437 8.010437 -8.010437l89.20749 0c2.1245117 0 4.1619873 0.84394836 5.6642456 2.3462067c1.5021973 1.502243 2.3461914 3.539734 2.3461914 5.6642303l0 87.28621c0 4.4240417 -3.5864258 8.010437 -8.010437 8.010437l-89.20749 0c-4.4240417 0 -8.010437 -3.5863953 -8.010437 -8.010437z" fill-rule="evenodd"/><path fill="#000000" d="m477.3827 256.7844q0 -2.7343903 1.46875 -4.2812653q1.46875 -1.546875 3.796875 -1.546875q1.515625 0 2.734375 0.734375q1.21875 0.71875 1.859375 2.015625q0.640625 1.296875 0.640625 2.9531403q0 1.671875 -0.671875 2.984375q-0.671875 1.3125 -1.90625 2.0q-1.234375 0.671875 -2.671875 0.671875q-1.546875 0 -2.765625 -0.75q-1.21875 -0.75 -1.859375 -2.046875q-0.625 -1.296875 -0.625 -2.734375zm1.5 0.015625q0 1.984375 1.0625 3.125q1.078125 1.140625 2.6875 1.140625q1.640625 0 2.6875 -1.140625q1.0625 -1.15625 1.0625 -3.28125q0 -1.3281403 -0.453125 -2.3281403q-0.453125 -1.0 -1.328125 -1.546875q-0.859375 -0.5625 -1.953125 -0.5625q-1.546875 0 -2.65625 1.0625q-1.109375 1.0625 -1.109375 3.5312653zm10.688324 5.328125l0 -7.9531403l1.203125 0l0 1.203125q0.46875 -0.84375 0.859375 -1.109375q0.390625 -0.265625 0.859375 -0.265625q0.6875 0 1.390625 0.4375l-0.46875 1.25q-0.484375 -0.296875 -0.984375 -0.296875q-0.4375 0 -0.796875 0.265625q-0.34375 0.265625 -0.5 0.73439026q-0.21875 0.71875 -0.21875 1.578125l0 4.15625l-1.34375 0zm10.276276 0l0 -1.0q-0.765625 1.171875 -2.234375 1.171875q-0.9375 0 -1.734375 -0.515625q-0.796875 -0.53125 -1.234375 -1.46875q-0.4375 -0.9375 -0.4375 -2.15625q0 -1.1875 0.390625 -2.15625q0.390625 -0.96876526 1.1875 -1.4843903q0.796875 -0.515625 1.78125 -0.515625q0.71875 0 1.265625 0.3125q0.5625 0.296875 0.921875 0.78125l0 -3.9375l1.34375 0l0 10.968765l-1.25 0zm-4.265625 -3.96875q0 1.53125 0.640625 2.296875q0.65625 0.75 1.53125 0.75q0.875 0 1.484375 -0.71875q0.625 -0.734375 0.625 -2.21875q0 -1.625 -0.625 -2.3906403q-0.625 -0.765625 -1.546875 -0.765625q-0.90625 0 -1.515625 0.734375q-0.59375 0.73439026 -0.59375 2.3125153zm13.071655 1.40625l1.390625 0.171875q-0.328125 1.21875 -1.21875 1.890625q-0.890625 0.671875 -2.28125 0.671875q-1.734375 0 -2.765625 -1.0625q-1.015625 -1.078125 -1.015625 -3.015625q0 -2.0 1.03125 -3.1093903q1.03125 -1.109375 2.6875 -1.109375q1.59375 0 2.59375 1.09375q1.015625 1.0781403 1.015625 3.0468903q0 0.109375 -0.015625 0.359375l-5.921875 0q0.078125 1.3125 0.734375 2.015625q0.671875 0.6875 1.671875 0.6875q0.734375 0 1.25 -0.390625q0.53125 -0.390625 0.84375 -1.25zm-4.421875 -2.171875l4.4375 0q-0.09375 -1.0 -0.515625 -1.5000153q-0.640625 -0.78125 -1.671875 -0.78125q-0.921875 0 -1.5625 0.625q-0.625 0.60939026 -0.6875 1.6562653zm7.4935303 4.734375l0 -7.9531403l1.203125 0l0 1.203125q0.46875 -0.84375 0.859375 -1.109375q0.390625 -0.265625 0.859375 -0.265625q0.6875 0 1.390625 0.4375l-0.46875 1.25q-0.484375 -0.296875 -0.984375 -0.296875q-0.4375 0 -0.796875 0.265625q-0.34375 0.265625 -0.5 0.73439026q-0.21875 0.71875 -0.21875 1.578125l0 4.15625l-1.34375 0zm4.57312 -2.375l1.328125 -0.203125q0.125 0.796875 0.625 1.234375q0.515625 0.421875 1.4375 0.421875q0.9375 0 1.375 -0.375q0.453125 -0.390625 0.453125 -0.890625q0 -0.46875 -0.390625 -0.71875q-0.28125 -0.1875 -1.375 -0.46875q-1.484375 -0.375 -2.0625 -0.640625q-0.578125 -0.265625 -0.875 -0.75q-0.28125 -0.484375 -0.28125 -1.078125q0 -0.53126526 0.234375 -0.98439026q0.25 -0.453125 0.671875 -0.75q0.3125 -0.234375 0.84375 -0.390625q0.546875 -0.15625 1.171875 -0.15625q0.9375 0 1.640625 0.265625q0.703125 0.265625 1.03125 0.734375q0.34375 0.453125 0.46875 1.2343903l-1.3125 0.171875q-0.09375 -0.60939026 -0.53125 -0.95314026q-0.421875 -0.34375 -1.203125 -0.34375q-0.921875 0 -1.328125 0.3125q-0.390625 0.296875 -0.390625 0.70314026q0 0.265625 0.15625 0.46875q0.171875 0.21875 0.515625 0.359375q0.203125 0.078125 1.203125 0.359375q1.421875 0.375 1.984375 0.625q0.5625 0.234375 0.890625 0.703125q0.328125 0.453125 0.328125 1.15625q0 0.671875 -0.40625 1.265625q-0.390625 0.59375 -1.125 0.921875q-0.734375 0.3125 -1.671875 0.3125q-1.5625 0 -2.375 -0.640625q-0.796875 -0.640625 -1.03125 -1.90625z" fill-rule="nonzero"/><path fill="#000000" d="m464.6414 280.12814l0 -10.96875l4.859375 0q1.46875 0 2.234375 0.296875q0.765625 0.296875 1.21875 1.046875q0.46875 0.734375 0.46875 1.640625q0 1.171875 -0.765625 1.984375q-0.75 0.796875 -2.328125 1.015625q0.578125 0.265625 0.875 0.53125q0.625 0.59375 1.203125 1.46875l1.90625 2.984375l-1.828125 0l-1.453125 -2.28125q-0.640625 -0.984375 -1.046875 -1.5q-0.40625 -0.53125 -0.734375 -0.734375q-0.328125 -0.21875 -0.65625 -0.296875q-0.25 -0.0625 -0.8125 -0.0625l-1.6875 0l0 4.875l-1.453125 0zm1.453125 -6.125l3.125 0q0.984375 0 1.546875 -0.203125q0.5625 -0.21875 0.859375 -0.671875q0.296875 -0.453125 0.296875 -0.984375q0 -0.765625 -0.578125 -1.265625q-0.5625 -0.515625 -1.78125 -0.515625l-3.46875 0l0 3.640625zm14.866364 3.5625l1.390625 0.171875q-0.328125 1.21875 -1.21875 1.890625q-0.890625 0.671875 -2.28125 0.671875q-1.734375 0 -2.765625 -1.0625q-1.015625 -1.078125 -1.015625 -3.015625q0 -2.0 1.03125 -3.109375q1.03125 -1.109375 2.6875 -1.109375q1.59375 0 2.59375 1.09375q1.015625 1.078125 1.015625 3.046875q0 0.109375 -0.015625 0.359375l-5.921875 0q0.078125 1.3125 0.734375 2.015625q0.671875 0.6875 1.671875 0.6875q0.734375 0 1.25 -0.390625q0.53125 -0.390625 0.84375 -1.25zm-4.421875 -2.171875l4.4375 0q-0.09375 -1.0 -0.515625 -1.5q-0.640625 -0.78125 -1.671875 -0.78125q-0.921875 0 -1.5625 0.625q-0.625 0.609375 -0.6875 1.65625zm7.5091553 7.78125l0 -11.0l1.21875 0l0 1.03125q0.4375 -0.59375 0.984375 -0.890625q0.546875 -0.3125 1.328125 -0.3125q1.015625 0 1.796875 0.53125q0.78125 0.515625 1.171875 1.46875q0.390625 0.953125 0.390625 2.09375q0 1.21875 -0.4375 2.203125q-0.4375 0.96875 -1.28125 1.484375q-0.828125 0.515625 -1.734375 0.515625q-0.6875 0 -1.21875 -0.28125q-0.53125 -0.28125 -0.875 -0.71875l0 3.875l-1.34375 0zm1.21875 -6.96875q0 1.53125 0.609375 2.265625q0.625 0.734375 1.515625 0.734375q0.890625 0 1.53125 -0.765625q0.640625 -0.765625 0.640625 -2.359375q0 -1.515625 -0.625 -2.265625q-0.625 -0.765625 -1.484375 -0.765625q-0.859375 0 -1.53125 0.8125q-0.65625 0.796875 -0.65625 2.34375zm6.8060303 -0.046875q0 -2.21875 1.21875 -3.28125q1.03125 -0.875 2.5 -0.875q1.640625 0 2.671875 1.078125q1.046875 1.0625 1.046875 2.953125q0 1.546875 -0.46875 2.421875q-0.453125 0.875 -1.328125 1.359375q-0.875 0.484375 -1.921875 0.484375q-1.671875 0 -2.703125 -1.0625q-1.015625 -1.0625 -1.015625 -3.078125zm1.375 0q0 1.515625 0.65625 2.28125q0.671875 0.765625 1.6875 0.765625q1.0 0 1.671875 -0.765625q0.671875 -0.765625 0.671875 -2.328125q0 -1.484375 -0.671875 -2.234375q-0.671875 -0.765625 -1.671875 -0.765625q-1.015625 0 -1.6875 0.765625q-0.65625 0.75 -0.65625 2.28125zm7.1029053 1.59375l1.328125 -0.203125q0.125 0.796875 0.625 1.234375q0.515625 0.421875 1.4375 0.421875q0.9375 0 1.375 -0.375q0.453125 -0.390625 0.453125 -0.890625q0 -0.46875 -0.390625 -0.71875q-0.28125 -0.1875 -1.375 -0.46875q-1.484375 -0.375 -2.0625 -0.640625q-0.578125 -0.265625 -0.875 -0.75q-0.28125 -0.484375 -0.28125 -1.078125q0 -0.53125 0.234375 -0.984375q0.25 -0.453125 0.671875 -0.75q0.3125 -0.234375 0.84375 -0.390625q0.546875 -0.15625 1.171875 -0.15625q0.9375 0 1.640625 0.265625q0.703125 0.265625 1.03125 0.734375q0.34375 0.453125 0.46875 1.234375l-1.3125 0.171875q-0.09375 -0.609375 -0.53125 -0.953125q-0.421875 -0.34375 -1.203125 -0.34375q-0.921875 0 -1.328125 0.3125q-0.390625 0.296875 -0.390625 0.703125q0 0.265625 0.15625 0.46875q0.171875 0.21875 0.515625 0.359375q0.203125 0.078125 1.203125 0.359375q1.421875 0.375 1.984375 0.625q0.5625 0.234375 0.890625 0.703125q0.328125 0.453125 0.328125 1.15625q0 0.671875 -0.40625 1.265625q-0.390625 0.59375 -1.125 0.921875q-0.734375 0.3125 -1.671875 0.3125q-1.5625 0 -2.375 -0.640625q-0.796875 -0.640625 -1.03125 -1.90625zm8.2109375 -7.046875l0 -1.546875l1.34375 0l0 1.546875l-1.34375 0zm0 9.421875l0 -7.953125l1.34375 0l0 7.953125l-1.34375 0zm6.3429565 -1.203125l0.1875 1.1875q-0.5625 0.125 -1.015625 0.125q-0.734375 0 -1.140625 -0.234375q-0.390625 -0.234375 -0.5625 -0.609375q-0.171875 -0.375 -0.171875 -1.59375l0 -4.578125l-0.9844055 0l0 -1.046875l0.9844055 0l0 -1.96875l1.34375 -0.796875l0 2.765625l1.359375 0l0 1.046875l-1.359375 0l0 4.65625q0 0.578125 0.0625 0.75q0.078125 0.15625 0.234375 0.25q0.171875 0.09375 0.46875 0.09375q0.21875 0 0.59375 -0.046875zm0.82110596 -2.765625q0 -2.21875 1.21875 -3.28125q1.03125 -0.875 2.5 -0.875q1.640625 0 2.671875 1.078125q1.046875 1.0625 1.046875 2.953125q0 1.546875 -0.46875 2.421875q-0.453125 0.875 -1.328125 1.359375q-0.875 0.484375 -1.921875 0.484375q-1.671875 0 -2.703125 -1.0625q-1.015625 -1.0625 -1.015625 -3.078125zm1.375 0q0 1.515625 0.65625 2.28125q0.671875 0.765625 1.6875 0.765625q1.0 0 1.671875 -0.765625q0.671875 -0.765625 0.671875 -2.328125q0 -1.484375 -0.671875 -2.234375q-0.671875 -0.765625 -1.671875 -0.765625q-1.015625 0 -1.6875 0.765625q-0.65625 0.75 -0.65625 2.28125zm7.6341553 3.96875l0 -7.953125l1.203125 0l0 1.203125q0.46875 -0.84375 0.859375 -1.109375q0.390625 -0.265625 0.859375 -0.265625q0.6875 0 1.390625 0.4375l-0.46875 1.25q-0.484375 -0.296875 -0.984375 -0.296875q-0.4375 0 -0.796875 0.265625q-0.34375 0.265625 -0.5 0.734375q-0.21875 0.71875 -0.21875 1.578125l0 4.15625l-1.34375 0zm5.057556 3.0625l-0.15625 -1.265625q0.453125 0.125 0.78125 0.125q0.4375 0 0.703125 -0.15625q0.28125 -0.15625 0.453125 -0.421875q0.125 -0.203125 0.40625 -1.0q0.046875 -0.109375 0.125 -0.328125l-3.015625 -7.96875l1.453125 0l1.65625 4.609375q0.3125 0.875 0.5625 1.84375q0.234375 -0.9375 0.5625 -1.8125l1.703125 -4.640625l1.34375 0l-3.03125 8.09375q-0.484375 1.296875 -0.75 1.796875q-0.359375 0.671875 -0.828125 0.96875q-0.453125 0.3125 -1.109375 0.3125q-0.390625 0 -0.859375 -0.15625z" fill-rule="nonzero"/></g><g filter="url(#shadowFilter-p.16)"><use xlink:href="#p.16" transform=""/></g><defs><filter id="shadowFilter-p.16" filterUnits="userSpaceOnUse"><feGaussianBlur in="SourceAlpha" stdDeviation="5.0" result="blur"/><feComponentTransfer in="blur" color-interpolation-filters="sRGB"><feFuncR type="linear" slope="0" intercept="0.0"/><feFuncG type="linear" slope="0" intercept="0.0"/><feFuncB type="linear" slope="0" intercept="0.0"/><feFuncA type="linear" slope="0.25" intercept="0"/></feComponentTransfer></filter></defs><g id="p.16"><defs><radialGradient id="p.17" gradientUnits="userSpaceOnUse" gradientTransform="matrix(13.885509486067267 0.0 0.0 13.885509486067267 0.0 0.0)" spreadMethod="pad" cx="43.821623175945895" cy="1.2586075969495745" fx="43.821623175945895" fy="1.2586075969495745" r="13.885509490966797"><stop offset="0.0" stop-color="#696969"/><stop offset="1.0" stop-color="#1d1d1d"/></radialGradient></defs><path fill="url(#p.17)" d="m608.48553 81.33465l36.848816 -63.85824l70.74341 0l36.848755 63.85824l-36.848755 63.85824l-70.74341 0z" fill-rule="evenodd"/><path stroke="#434343" stroke-width="1.0" stroke-linejoin="round" stroke-linecap="butt" d="m608.48553 81.33465l36.848816 -63.85824l70.74341 0l36.848755 63.85824l-36.848755 63.85824l-70.74341 0z" fill-rule="evenodd"/><path fill="#f3f3f3" d="m653.95996 77.69465l0 -11.453125l5.078125 0q1.53125 0 2.328125 0.3125q0.796875 0.296875 1.265625 1.078125q0.484375 0.78125 0.484375 1.734375q0 1.21875 -0.796875 2.0625q-0.78125 0.828125 -2.4375 1.046875q0.609375 0.296875 0.921875 0.578125q0.65625 0.609375 1.25 1.515625l2.0 3.125l-1.90625 0l-1.515625 -2.390625q-0.671875 -1.03125 -1.109375 -1.578125q-0.421875 -0.546875 -0.765625 -0.765625q-0.328125 -0.21875 -0.6875 -0.296875q-0.25 -0.0625 -0.84375 -0.0625l-1.75 0l0 5.09375l-1.515625 0zm1.515625 -6.40625l3.25 0q1.046875 0 1.625 -0.203125q0.59375 -0.21875 0.890625 -0.6875q0.3125 -0.484375 0.3125 -1.03125q0 -0.8125 -0.59375 -1.328125q-0.59375 -0.53125 -1.859375 -0.53125l-3.625 0l0 3.78125zm15.5078125 3.734375l1.453125 0.171875q-0.34375 1.28125 -1.28125 1.984375q-0.921875 0.703125 -2.359375 0.703125q-1.828125 0 -2.890625 -1.125q-1.0625 -1.125 -1.0625 -3.140625q0 -2.09375 1.078125 -3.25q1.078125 -1.15625 2.796875 -1.15625q1.65625 0 2.703125 1.140625q1.0625 1.125 1.0625 3.171875q0 0.125 0 0.375l-6.1875 0q0.078125 1.375 0.765625 2.109375q0.703125 0.71875 1.734375 0.71875q0.78125 0 1.328125 -0.40625q0.546875 -0.40625 0.859375 -1.296875zm-4.609375 -2.28125l4.625 0q-0.09375 -1.046875 -0.53125 -1.5625q-0.671875 -0.8125 -1.734375 -0.8125q-0.96875 0 -1.640625 0.65625q-0.65625 0.640625 -0.71875 1.71875zm7.8359375 8.140625l0 -11.484375l1.28125 0l0 1.078125q0.453125 -0.640625 1.015625 -0.953125q0.578125 -0.3125 1.390625 -0.3125q1.0625 0 1.875 0.546875q0.8125 0.546875 1.21875 1.546875q0.421875 0.984375 0.421875 2.171875q0 1.28125 -0.46875 2.296875q-0.453125 1.015625 -1.328125 1.5625q-0.859375 0.546875 -1.828125 0.546875q-0.703125 0 -1.265625 -0.296875q-0.546875 -0.296875 -0.90625 -0.75l0 4.046875l-1.40625 0zm1.265625 -7.296875q0 1.609375 0.640625 2.375q0.65625 0.765625 1.578125 0.765625q0.9375 0 1.609375 -0.796875q0.671875 -0.796875 0.671875 -2.453125q0 -1.59375 -0.65625 -2.375q-0.65625 -0.796875 -1.5625 -0.796875q-0.890625 0 -1.59375 0.84375q-0.6875 0.84375 -0.6875 2.4375zm7.1015625 -0.046875q0 -2.296875 1.28125 -3.40625q1.078125 -0.921875 2.609375 -0.921875q1.71875 0 2.796875 1.125q1.09375 1.109375 1.09375 3.09375q0 1.59375 -0.484375 2.515625q-0.484375 0.921875 -1.40625 1.4375q-0.90625 0.5 -2.0 0.5q-1.734375 0 -2.8125 -1.109375q-1.078125 -1.125 -1.078125 -3.234375zm1.453125 0q0 1.59375 0.6875 2.390625q0.703125 0.796875 1.75 0.796875q1.046875 0 1.734375 -0.796875q0.703125 -0.796875 0.703125 -2.4375q0 -1.53125 -0.703125 -2.328125q-0.6875 -0.796875 -1.734375 -0.796875q-1.046875 0 -1.75 0.796875q-0.6875 0.78125 -0.6875 2.375zm7.9609375 4.15625l0 -8.296875l1.265625 0l0 1.25q0.484375 -0.875 0.890625 -1.15625q0.40625 -0.28125 0.90625 -0.28125q0.703125 0 1.4375 0.453125l-0.484375 1.296875q-0.515625 -0.296875 -1.03125 -0.296875q-0.453125 0 -0.828125 0.28125q-0.359375 0.265625 -0.515625 0.765625q-0.234375 0.75 -0.234375 1.640625l0 4.34375l-1.40625 0zm8.40625 -1.265625l0.203125 1.25q-0.59375 0.125 -1.0625 0.125q-0.765625 0 -1.1875 -0.234375q-0.421875 -0.25 -0.59375 -0.640625q-0.171875 -0.40625 -0.171875 -1.671875l0 -4.765625l-1.03125 0l0 -1.09375l1.03125 0l0 -2.0625l1.40625 -0.84375l0 2.90625l1.40625 0l0 1.09375l-1.40625 0l0 4.84375q0 0.609375 0.0625 0.78125q0.078125 0.171875 0.25 0.28125q0.171875 0.09375 0.484375 0.09375q0.234375 0 0.609375 -0.0625zm0.8203125 -1.21875l1.390625 -0.21875q0.109375 0.84375 0.640625 1.296875q0.546875 0.4375 1.5 0.4375q0.96875 0 1.4375 -0.390625q0.46875 -0.40625 0.46875 -0.9375q0 -0.46875 -0.40625 -0.75q-0.296875 -0.1875 -1.4375 -0.46875q-1.546875 -0.390625 -2.15625 -0.671875q-0.59375 -0.296875 -0.90625 -0.796875q-0.296875 -0.5 -0.296875 -1.109375q0 -0.5625 0.25 -1.03125q0.25 -0.46875 0.6875 -0.78125q0.328125 -0.25 0.890625 -0.40625q0.578125 -0.171875 1.21875 -0.171875q0.984375 0 1.71875 0.28125q0.734375 0.28125 1.078125 0.765625q0.359375 0.46875 0.5 1.28125l-1.375 0.1875q-0.09375 -0.640625 -0.546875 -1.0q-0.453125 -0.359375 -1.265625 -0.359375q-0.96875 0 -1.390625 0.328125q-0.40625 0.3125 -0.40625 0.734375q0 0.28125 0.171875 0.5q0.171875 0.21875 0.53125 0.375q0.21875 0.078125 1.25 0.359375q1.484375 0.390625 2.078125 0.65625q0.59375 0.25 0.921875 0.734375q0.34375 0.484375 0.34375 1.203125q0 0.703125 -0.421875 1.328125q-0.40625 0.609375 -1.1875 0.953125q-0.765625 0.34375 -1.734375 0.34375q-1.625 0 -2.46875 -0.671875q-0.84375 -0.671875 -1.078125 -2.0z" fill-rule="nonzero"/><path fill="#f3f3f3" d="m654.749 93.00715l1.4375 -0.125q0.09375 0.859375 0.46875 1.421875q0.375 0.546875 1.15625 0.890625q0.78125 0.328125 1.75 0.328125q0.875 0 1.53125 -0.25q0.671875 -0.265625 0.984375 -0.703125q0.328125 -0.453125 0.328125 -0.984375q0 -0.546875 -0.3125 -0.9375q-0.3125 -0.40625 -1.03125 -0.6875q-0.453125 -0.171875 -2.03125 -0.546875q-1.578125 -0.390625 -2.21875 -0.71875q-0.8125 -0.4375 -1.21875 -1.0625q-0.40625 -0.640625 -0.40625 -1.4375q0 -0.859375 0.484375 -1.609375q0.5 -0.765625 1.4375 -1.15625q0.953125 -0.390625 2.109375 -0.390625q1.28125 0 2.25 0.421875q0.96875 0.40625 1.484375 1.203125q0.53125 0.796875 0.578125 1.796875l-1.453125 0.109375q-0.125 -1.078125 -0.796875 -1.625q-0.671875 -0.5625 -2.0 -0.5625q-1.375 0 -2.0 0.5q-0.625 0.5 -0.625 1.21875q0 0.609375 0.4375 1.015625q0.4375 0.390625 2.28125 0.8125q1.859375 0.421875 2.546875 0.734375q1.0 0.453125 1.46875 1.171875q0.484375 0.703125 0.484375 1.625q0 0.90625 -0.53125 1.71875q-0.515625 0.8125 -1.5 1.265625q-0.984375 0.453125 -2.203125 0.453125q-1.5625 0 -2.609375 -0.453125q-1.046875 -0.46875 -1.65625 -1.375q-0.59375 -0.90625 -0.625 -2.0625zm16.6875 1.015625l1.453125 0.171875q-0.34375 1.28125 -1.28125 1.984375q-0.921875 0.703125 -2.359375 0.703125q-1.828125 0 -2.890625 -1.125q-1.0625 -1.125 -1.0625 -3.140625q0 -2.09375 1.078125 -3.25q1.078125 -1.15625 2.796875 -1.15625q1.65625 0 2.703125 1.140625q1.0625 1.125 1.0625 3.171875q0 0.125 0 0.375l-6.1875 0q0.078125 1.375 0.765625 2.109375q0.703125 0.71875 1.734375 0.71875q0.78125 0 1.328125 -0.40625q0.546875 -0.40625 0.859375 -1.296875zm-4.609375 -2.28125l4.625 0q-0.09375 -1.046875 -0.53125 -1.5625q-0.671875 -0.8125 -1.734375 -0.8125q-0.96875 0 -1.640625 0.65625q-0.65625 0.640625 -0.71875 1.71875zm7.8203125 4.953125l0 -8.296875l1.265625 0l0 1.25q0.484375 -0.875 0.890625 -1.15625q0.40625 -0.28125 0.90625 -0.28125q0.703125 0 1.4375 0.453125l-0.484375 1.296875q-0.515625 -0.296875 -1.03125 -0.296875q-0.453125 0 -0.828125 0.28125q-0.359375 0.265625 -0.515625 0.765625q-0.234375 0.75 -0.234375 1.640625l0 4.34375l-1.40625 0zm7.640625 0l-3.15625 -8.296875l1.484375 0l1.78125 4.96875q0.296875 0.796875 0.53125 1.671875q0.1875 -0.65625 0.53125 -1.578125l1.84375 -5.0625l1.4375 0l-3.140625 8.296875l-1.3125 0zm5.703125 -9.84375l0 -1.609375l1.40625 0l0 1.609375l-1.40625 0zm0 9.84375l0 -8.296875l1.40625 0l0 8.296875l-1.40625 0zm8.9609375 -3.046875l1.390625 0.1875q-0.234375 1.421875 -1.171875 2.234375q-0.921875 0.8125 -2.28125 0.8125q-1.703125 0 -2.75 -1.109375q-1.03125 -1.125 -1.03125 -3.203125q0 -1.34375 0.4375 -2.34375q0.453125 -1.015625 1.359375 -1.515625q0.921875 -0.5 1.984375 -0.5q1.359375 0 2.21875 0.6875q0.859375 0.671875 1.09375 1.9375l-1.359375 0.203125q-0.203125 -0.828125 -0.703125 -1.25q-0.484375 -0.421875 -1.1875 -0.421875q-1.0625 0 -1.734375 0.765625q-0.65625 0.75 -0.65625 2.40625q0 1.671875 0.640625 2.4375q0.640625 0.75 1.671875 0.75q0.828125 0 1.375 -0.5q0.5625 -0.515625 0.703125 -1.578125zm8.265625 0.375l1.453125 0.171875q-0.34375 1.28125 -1.28125 1.984375q-0.921875 0.703125 -2.359375 0.703125q-1.828125 0 -2.890625 -1.125q-1.0625 -1.125 -1.0625 -3.140625q0 -2.09375 1.078125 -3.25q1.078125 -1.15625 2.796875 -1.15625q1.65625 0 2.703125 1.140625q1.0625 1.125 1.0625 3.171875q0 0.125 0 0.375l-6.1875 0q0.078125 1.375 0.765625 2.109375q0.703125 0.71875 1.734375 0.71875q0.78125 0 1.328125 -0.40625q0.546875 -0.40625 0.859375 -1.296875zm-4.609375 -2.28125l4.625 0q-0.09375 -1.046875 -0.53125 -1.5625q-0.671875 -0.8125 -1.734375 -0.8125q-0.96875 0 -1.640625 0.65625q-0.65625 0.640625 -0.71875 1.71875z" fill-rule="nonzero"/></g><g filter="url(#shadowFilter-p.18)"><use xlink:href="#p.18" transform=""/></g><defs><filter id="shadowFilter-p.18" filterUnits="userSpaceOnUse"><feGaussianBlur in="SourceAlpha" stdDeviation="5.0" result="blur"/><feComponentTransfer in="blur" color-interpolation-filters="sRGB"><feFuncR type="linear" slope="0" intercept="0.0"/><feFuncG type="linear" slope="0" intercept="0.0"/><feFuncB type="linear" slope="0" intercept="0.0"/><feFuncA type="linear" slope="0.25" intercept="0"/></feComponentTransfer></filter></defs><g id="p.18"><defs><radialGradient id="p.19" gradientUnits="userSpaceOnUse" gradientTransform="matrix(12.143437746312056 0.0 0.0 12.143437746312056 0.0 0.0)" spreadMethod="pad" cx="51.722739197786964" cy="17.42718896189335" fx="51.722739197786964" fy="17.42718896189335" r="12.143437385559082"><stop offset="0.0" stop-color="#ffffff"/><stop offset="1.0" stop-color="#efefef"/></radialGradient></defs><path fill="url(#p.19)" d="m628.09186 219.63641l0 0c0 -4.4240417 3.5864258 -8.010422 8.010437 -8.010422l89.20746 0c2.1245117 0 4.1619873 0.84394836 5.6642456 2.3461914c1.5022583 1.502243 2.3461914 3.539734 2.3461914 5.6642303l0 87.286224c0 4.4240417 -3.5863647 8.010437 -8.010437 8.010437l-89.20746 0c-4.424011 0 -8.010437 -3.5863953 -8.010437 -8.010437z" fill-rule="evenodd"/><path stroke="#000000" stroke-width="1.0" stroke-linejoin="round" stroke-linecap="butt" d="m628.09186 219.63641l0 0c0 -4.4240417 3.5864258 -8.010422 8.010437 -8.010422l89.20746 0c2.1245117 0 4.1619873 0.84394836 5.6642456 2.3461914c1.5022583 1.502243 2.3461914 3.539734 2.3461914 5.6642303l0 87.286224c0 4.4240417 -3.5863647 8.010437 -8.010437 8.010437l-89.20746 0c-4.424011 0 -8.010437 -3.5863953 -8.010437 -8.010437z" fill-rule="evenodd"/><path fill="#000000" d="m655.07367 259.9995l0 -10.968735l4.859375 0q1.46875 0 2.234375 0.296875q0.765625 0.296875 1.21875 1.046875q0.46875 0.734375 0.46875 1.640625q0 1.171875 -0.765625 1.984375q-0.75 0.796875 -2.328125 1.015625q0.578125 0.265625 0.875 0.53125q0.625 0.59373474 1.203125 1.4687347l1.90625 2.984375l-1.828125 0l-1.453125 -2.28125q-0.640625 -0.984375 -1.046875 -1.5q-0.40625 -0.53123474 -0.734375 -0.73435974q-0.328125 -0.21875 -0.65625 -0.296875q-0.25 -0.0625 -0.8125 -0.0625l-1.6875 0l0 4.8749847l-1.453125 0zm1.453125 -6.1249847l3.125 0q0.984375 0 1.546875 -0.203125q0.5625 -0.21875 0.859375 -0.671875q0.296875 -0.453125 0.296875 -0.984375q0 -0.765625 -0.578125 -1.265625q-0.5625 -0.515625 -1.78125 -0.515625l-3.46875 0l0 3.640625zm14.866394 3.5624847l1.390625 0.171875q-0.328125 1.21875 -1.21875 1.890625q-0.890625 0.671875 -2.28125 0.671875q-1.734375 0 -2.765625 -1.0625q-1.015625 -1.078125 -1.015625 -3.015625q0 -1.9999847 1.03125 -3.1093597q1.03125 -1.109375 2.6875 -1.109375q1.59375 0 2.59375 1.09375q1.015625 1.078125 1.015625 3.0468597q0 0.109375 -0.015625 0.359375l-5.921875 0q0.078125 1.3125 0.734375 2.015625q0.671875 0.6875 1.671875 0.6875q0.734375 0 1.25 -0.390625q0.53125 -0.390625 0.84375 -1.25zm-4.421875 -2.1718597l4.4375 0q-0.09375 -1.0 -0.515625 -1.5q-0.640625 -0.78125 -1.671875 -0.78125q-0.921875 0 -1.5625 0.625q-0.625 0.609375 -0.6875 1.65625zm7.5091553 7.7812347l0 -10.999985l1.21875 0l0 1.03125q0.4375 -0.59375 0.984375 -0.890625q0.546875 -0.3125 1.328125 -0.3125q1.015625 0 1.796875 0.53125q0.78125 0.515625 1.171875 1.46875q0.390625 0.953125 0.390625 2.09375q0 1.2187347 -0.4375 2.2031097q-0.4375 0.96875 -1.28125 1.484375q-0.828125 0.515625 -1.734375 0.515625q-0.6875 0 -1.21875 -0.28125q-0.53125 -0.28125 -0.875 -0.71875l0 3.875l-1.34375 0zm1.21875 -6.96875q0 1.53125 0.609375 2.265625q0.625 0.734375 1.515625 0.734375q0.890625 0 1.53125 -0.765625q0.640625 -0.765625 0.640625 -2.3593597q0 -1.515625 -0.625 -2.265625q-0.625 -0.765625 -1.484375 -0.765625q-0.859375 0 -1.53125 0.8125q-0.65625 0.796875 -0.65625 2.3437347zm6.8060303 -0.046875q0 -2.2187347 1.21875 -3.2812347q1.03125 -0.875 2.5 -0.875q1.640625 0 2.671875 1.078125q1.046875 1.0625 1.046875 2.953125q0 1.5468597 -0.46875 2.4218597q-0.453125 0.875 -1.328125 1.359375q-0.875 0.484375 -1.921875 0.484375q-1.671875 0 -2.703125 -1.0625q-1.015625 -1.0625 -1.015625 -3.078125zm1.375 0q0 1.515625 0.65625 2.28125q0.671875 0.765625 1.6875 0.765625q1.0 0 1.671875 -0.765625q0.671875 -0.765625 0.671875 -2.3281097q0 -1.484375 -0.671875 -2.234375q-0.671875 -0.765625 -1.671875 -0.765625q-1.015625 0 -1.6875 0.765625q-0.65625 0.75 -0.65625 2.2812347zm7.6341553 3.96875l0 -7.9531097l1.203125 0l0 1.203125q0.46875 -0.84375 0.859375 -1.109375q0.390625 -0.265625 0.859375 -0.265625q0.6875 0 1.390625 0.4375l-0.46875 1.25q-0.484375 -0.296875 -0.984375 -0.296875q-0.4375 0 -0.796875 0.265625q-0.34375 0.265625 -0.5 0.734375q-0.21875 0.71875 -0.21875 1.578125l0 4.1562347l-1.34375 0zm8.057495 -1.203125l0.1875 1.1875q-0.5625 0.125 -1.015625 0.125q-0.734375 0 -1.140625 -0.234375q-0.390625 -0.234375 -0.5625 -0.609375q-0.171875 -0.375 -0.171875 -1.59375l0 -4.5781097l-0.984375 0l0 -1.046875l0.984375 0l0 -1.96875l1.34375 -0.796875l0 2.765625l1.359375 0l0 1.046875l-1.359375 0l0 4.6562347q0 0.578125 0.0625 0.75q0.078125 0.15625 0.234375 0.25q0.171875 0.09375 0.46875 0.09375q0.21875 0 0.59375 -0.046875zm0.774292 -1.171875l1.328125 -0.203125q0.125 0.796875 0.625 1.234375q0.515625 0.421875 1.4375 0.421875q0.9375 0 1.375 -0.375q0.453125 -0.390625 0.453125 -0.890625q0 -0.46875 -0.390625 -0.71875q-0.28125 -0.1875 -1.375 -0.46875q-1.484375 -0.375 -2.0625 -0.64060974q-0.578125 -0.265625 -0.875 -0.75q-0.28125 -0.484375 -0.28125 -1.078125q0 -0.53125 0.234375 -0.984375q0.25 -0.453125 0.671875 -0.75q0.3125 -0.234375 0.84375 -0.390625q0.546875 -0.15625 1.171875 -0.15625q0.9375 0 1.640625 0.265625q0.703125 0.265625 1.03125 0.734375q0.34375 0.453125 0.46875 1.234375l-1.3125 0.171875q-0.09375 -0.609375 -0.53125 -0.953125q-0.421875 -0.34375 -1.203125 -0.34375q-0.921875 0 -1.328125 0.3125q-0.390625 0.296875 -0.390625 0.703125q0 0.265625 0.15625 0.46875q0.171875 0.21875 0.515625 0.359375q0.203125 0.078125 1.203125 0.359375q1.421875 0.375 1.984375 0.625q0.5625 0.23435974 0.890625 0.70310974q0.328125 0.453125 0.328125 1.15625q0 0.671875 -0.40625 1.265625q-0.390625 0.59375 -1.125 0.921875q-0.734375 0.3125 -1.671875 0.3125q-1.5625 0 -2.375 -0.640625q-0.796875 -0.640625 -1.03125 -1.90625z" fill-rule="nonzero"/><path fill="#000000" d="m645.27655 277.9995l0 -10.96875l4.859375 0q1.46875 0 2.234375 0.296875q0.765625 0.296875 1.21875 1.046875q0.46875 0.734375 0.46875 1.640625q0 1.171875 -0.765625 1.984375q-0.75 0.796875 -2.328125 1.015625q0.578125 0.265625 0.875 0.53125q0.625 0.59375 1.203125 1.46875l1.90625 2.984375l-1.828125 0l-1.453125 -2.28125q-0.640625 -0.984375 -1.046875 -1.5q-0.40625 -0.53125 -0.734375 -0.734375q-0.328125 -0.21875 -0.65625 -0.296875q-0.25 -0.0625 -0.8125 -0.0625l-1.6875 0l0 4.875l-1.453125 0zm1.453125 -6.125l3.125 0q0.984375 0 1.546875 -0.203125q0.5625 -0.21875 0.859375 -0.671875q0.296875 -0.453125 0.296875 -0.984375q0 -0.765625 -0.578125 -1.265625q-0.5625 -0.515625 -1.78125 -0.515625l-3.46875 0l0 3.640625zm14.866394 3.5625l1.390625 0.171875q-0.328125 1.21875 -1.21875 1.890625q-0.890625 0.671875 -2.28125 0.671875q-1.734375 0 -2.765625 -1.0625q-1.015625 -1.078125 -1.015625 -3.015625q0 -2.0 1.03125 -3.109375q1.03125 -1.109375 2.6875 -1.109375q1.59375 0 2.59375 1.09375q1.015625 1.078125 1.015625 3.046875q0 0.109375 -0.015625 0.359375l-5.921875 0q0.078125 1.3125 0.734375 2.015625q0.671875 0.6875 1.671875 0.6875q0.734375 0 1.25 -0.390625q0.53125 -0.390625 0.84375 -1.25zm-4.421875 -2.171875l4.4375 0q-0.09375 -1.0 -0.515625 -1.5q-0.640625 -0.78125 -1.671875 -0.78125q-0.921875 0 -1.5625 0.625q-0.625 0.609375 -0.6875 1.65625zm7.5091553 7.78125l0 -11.0l1.21875 0l0 1.03125q0.4375 -0.59375 0.984375 -0.890625q0.546875 -0.3125 1.328125 -0.3125q1.015625 0 1.796875 0.53125q0.78125 0.515625 1.171875 1.46875q0.390625 0.953125 0.390625 2.09375q0 1.21875 -0.4375 2.203125q-0.4375 0.96875 -1.28125 1.484375q-0.828125 0.515625 -1.734375 0.515625q-0.6875 0 -1.21875 -0.28125q-0.53125 -0.28125 -0.875 -0.71875l0 3.875l-1.34375 0zm1.21875 -6.96875q0 1.53125 0.609375 2.265625q0.625 0.734375 1.515625 0.734375q0.890625 0 1.53125 -0.765625q0.640625 -0.765625 0.640625 -2.359375q0 -1.515625 -0.625 -2.265625q-0.625 -0.765625 -1.484375 -0.765625q-0.859375 0 -1.53125 0.8125q-0.65625 0.796875 -0.65625 2.34375zm6.8060303 -0.046875q0 -2.21875 1.21875 -3.28125q1.03125 -0.875 2.5 -0.875q1.640625 0 2.671875 1.078125q1.046875 1.0625 1.046875 2.953125q0 1.546875 -0.46875 2.421875q-0.453125 0.875 -1.328125 1.359375q-0.875 0.484375 -1.921875 0.484375q-1.671875 0 -2.703125 -1.0625q-1.015625 -1.0625 -1.015625 -3.078125zm1.375 0q0 1.515625 0.65625 2.28125q0.671875 0.765625 1.6875 0.765625q1.0 0 1.671875 -0.765625q0.671875 -0.765625 0.671875 -2.328125q0 -1.484375 -0.671875 -2.234375q-0.671875 -0.765625 -1.671875 -0.765625q-1.015625 0 -1.6875 0.765625q-0.65625 0.75 -0.65625 2.28125zm7.1029053 1.59375l1.328125 -0.203125q0.125 0.796875 0.625 1.234375q0.515625 0.421875 1.4375 0.421875q0.9375 0 1.375 -0.375q0.453125 -0.390625 0.453125 -0.890625q0 -0.46875 -0.390625 -0.71875q-0.28125 -0.1875 -1.375 -0.46875q-1.484375 -0.375 -2.0625 -0.640625q-0.578125 -0.265625 -0.875 -0.75q-0.28125 -0.484375 -0.28125 -1.078125q0 -0.53125 0.234375 -0.984375q0.25 -0.453125 0.671875 -0.75q0.3125 -0.234375 0.84375 -0.390625q0.546875 -0.15625 1.171875 -0.15625q0.9375 0 1.640625 0.265625q0.703125 0.265625 1.03125 0.734375q0.34375 0.453125 0.46875 1.234375l-1.3125 0.171875q-0.09375 -0.609375 -0.53125 -0.953125q-0.421875 -0.34375 -1.203125 -0.34375q-0.921875 0 -1.328125 0.3125q-0.390625 0.296875 -0.390625 0.703125q0 0.265625 0.15625 0.46875q0.171875 0.21875 0.515625 0.359375q0.203125 0.078125 1.203125 0.359375q1.421875 0.375 1.984375 0.625q0.5625 0.234375 0.890625 0.703125q0.328125 0.453125 0.328125 1.15625q0 0.671875 -0.40625 1.265625q-0.390625 0.59375 -1.125 0.921875q-0.734375 0.3125 -1.671875 0.3125q-1.5625 0 -2.375 -0.640625q-0.796875 -0.640625 -1.03125 -1.90625zm8.2109375 -7.046875l0 -1.546875l1.34375 0l0 1.546875l-1.34375 0zm0 9.421875l0 -7.953125l1.34375 0l0 7.953125l-1.34375 0zm6.3428955 -1.203125l0.1875 1.1875q-0.5625 0.125 -1.015625 0.125q-0.734375 0 -1.140625 -0.234375q-0.390625 -0.234375 -0.5625 -0.609375q-0.171875 -0.375 -0.171875 -1.59375l0 -4.578125l-0.984375 0l0 -1.046875l0.984375 0l0 -1.96875l1.34375 -0.796875l0 2.765625l1.359375 0l0 1.046875l-1.359375 0l0 4.65625q0 0.578125 0.0625 0.75q0.078125 0.15625 0.234375 0.25q0.171875 0.09375 0.46875 0.09375q0.21875 0 0.59375 -0.046875zm0.821167 -2.765625q0 -2.21875 1.21875 -3.28125q1.03125 -0.875 2.5 -0.875q1.640625 0 2.671875 1.078125q1.046875 1.0625 1.046875 2.953125q0 1.546875 -0.46875 2.421875q-0.453125 0.875 -1.328125 1.359375q-0.875 0.484375 -1.921875 0.484375q-1.671875 0 -2.703125 -1.0625q-1.015625 -1.0625 -1.015625 -3.078125zm1.375 0q0 1.515625 0.65625 2.28125q0.671875 0.765625 1.6875 0.765625q1.0 0 1.671875 -0.765625q0.671875 -0.765625 0.671875 -2.328125q0 -1.484375 -0.671875 -2.234375q-0.671875 -0.765625 -1.671875 -0.765625q-1.015625 0 -1.6875 0.765625q-0.65625 0.75 -0.65625 2.28125zm7.6341553 3.96875l0 -7.953125l1.203125 0l0 1.203125q0.46875 -0.84375 0.859375 -1.109375q0.390625 -0.265625 0.859375 -0.265625q0.6875 0 1.390625 0.4375l-0.46875 1.25q-0.484375 -0.296875 -0.984375 -0.296875q-0.4375 0 -0.796875 0.265625q-0.34375 0.265625 -0.5 0.734375q-0.21875 0.71875 -0.21875 1.578125l0 4.15625l-1.34375 0zm5.057495 3.0625l-0.15625 -1.265625q0.453125 0.125 0.78125 0.125q0.4375 0 0.703125 -0.15625q0.28125 -0.15625 0.453125 -0.421875q0.125 -0.203125 0.40625 -1.0q0.046875 -0.109375 0.125 -0.328125l-3.015625 -7.96875l1.453125 0l1.65625 4.609375q0.3125 0.875 0.5625 1.84375q0.234375 -0.9375 0.5625 -1.8125l1.703125 -4.640625l1.34375 0l-3.03125 8.09375q-0.484375 1.296875 -0.75 1.796875q-0.359375 0.671875 -0.828125 0.96875q-0.453125 0.3125 -1.109375 0.3125q-0.390625 0 -0.859375 -0.15625z" fill-rule="nonzero"/></g><path fill="#000000" fill-opacity="0.0" d="m318.8058 145.0748l0.62991333 66.55119" fill-rule="evenodd"/><path stroke="#000000" stroke-width="1.0" stroke-linejoin="round" stroke-linecap="butt" d="m318.8058 145.0748l0.5731201 60.551453" fill-rule="evenodd"/><path fill="#000000" stroke="#000000" stroke-width="1.0" stroke-linecap="butt" d="m317.72723 205.64189l1.6946106 4.5222626l1.6087341 -4.553528z" fill-rule="evenodd"/><path fill="#000000" fill-opacity="0.0" d="m500.07086 213.7546l-1.0708618 -65.25984" fill-rule="evenodd"/><path stroke="#000000" stroke-width="1.0" stroke-linejoin="round" stroke-linecap="butt" d="m500.01465 210.32796l-1.0146484 -61.833206" fill-rule="evenodd"/><path fill="#000000" stroke="#000000" stroke-width="1.0" stroke-linecap="butt" d="m500.01465 210.32797l-1.1428833 -1.1059875l1.1751099 3.0709076l1.0737305 -3.1078033z" fill-rule="evenodd"/><path fill="#000000" fill-opacity="0.0" d="m680.70605 211.62599l0 -65.54332" fill-rule="evenodd"/><path stroke="#000000" stroke-width="1.0" stroke-linejoin="round" stroke-linecap="butt" d="m680.70605 205.62599l0 -59.54332" fill-rule="evenodd"/><path fill="#000000" stroke="#000000" stroke-width="1.0" stroke-linecap="butt" d="m679.0543 205.62599l1.6517334 4.538086l1.6517334 -4.538086z" fill-rule="evenodd"/><path fill="#000000" fill-opacity="0.0" d="m500.07086 317.06168l-88.8504 41.795288" fill-rule="evenodd"/><path stroke="#000000" stroke-width="1.0" stroke-linejoin="round" stroke-linecap="butt" d="m500.07086 317.06168l-83.42108 39.241364" fill-rule="evenodd"/><path fill="#000000" stroke="#000000" stroke-width="1.0" stroke-linecap="butt" d="m415.94672 354.80838l-3.4033813 3.4263l4.8095093 -0.43704224z" fill-rule="evenodd"/><path fill="#000000" fill-opacity="0.0" d="m680.70605 314.93307l-269.48035 43.93701" fill-rule="evenodd"/><path stroke="#000000" stroke-width="1.0" stroke-linejoin="round" stroke-linecap="butt" d="m680.70605 314.93307l-263.55853 42.971497" fill-rule="evenodd"/><path fill="#000000" stroke="#000000" stroke-width="1.0" stroke-linecap="butt" d="m416.88174 356.27435l-4.2131653 2.3604736l4.744751 0.89993286z" fill-rule="evenodd"/><path fill="#000000" fill-opacity="0.0" d="m681.9921 144.49475l-181.92126 69.25984" fill-rule="evenodd"/><path stroke="#000000" stroke-width="1.0" stroke-linejoin="round" stroke-linecap="butt" d="m681.9921 144.49475l-176.3139 67.125046" fill-rule="evenodd"/><path fill="#000000" stroke="#000000" stroke-width="1.0" stroke-linecap="butt" d="m505.09055 210.07614l-3.6534424 3.15831l4.828827 -0.071014404z" fill-rule="evenodd"/><path fill="#000000" fill-opacity="0.0" d="m502.99475 147.5l-183.55905 64.12599" fill-rule="evenodd"/><path stroke="#000000" stroke-width="1.0" stroke-linejoin="round" stroke-linecap="butt" d="m502.99475 147.5l-177.89474 62.14717" fill-rule="evenodd"/><path fill="#000000" stroke="#000000" stroke-width="1.0" stroke-linecap="butt" d="m324.55524 208.08786l-3.739441 3.0559845l4.828949 0.06265259z" fill-rule="evenodd"/><path fill="#000000" fill-opacity="0.0" d="m500.98688 148.47638l-348.69293 63.149612" fill-rule="evenodd"/><path stroke="#000000" stroke-width="1.0" stroke-linejoin="round" stroke-linecap="butt" d="m500.98688 148.47638l-342.78894 62.080383" fill-rule="evenodd"/><path fill="#000000" stroke="#000000" stroke-width="1.0" stroke-linecap="butt" d="m157.90358 208.93146l-4.171112 2.4340057l4.759796 0.81658936z" fill-rule="evenodd"/><path fill="#000000" fill-opacity="0.0" d="m681.99475 145.48425l-529.7008 66.14174" fill-rule="evenodd"/><path stroke="#000000" stroke-width="1.0" stroke-linejoin="round" stroke-linecap="butt" d="m681.99475 145.48425l-523.747 65.398315" fill-rule="evenodd"/><path fill="#000000" stroke="#000000" stroke-width="1.0" stroke-linecap="butt" d="m158.04308 209.24356l-4.298477 2.201294l4.707779 1.0767059z" fill-rule="evenodd"/></g></svg>