<svg version="1.1" viewBox="0.0 0.0 862.0 507.0" fill="none" stroke="none" stroke-linecap="square" stroke-miterlimit="10" xmlns:xlink="http://www.w3.org/1999/xlink" xmlns="http://www.w3.org/2000/svg"><clipPath id="p.0"><path d="m0 0l862.0 0l0 507.0l-862.0 0l0 -507.0z" clip-rule="nonzero"/></clipPath><g clip-path="url(#p.0)"><path fill="#000000" fill-opacity="0.0" d="m0 0l862.0 0l0 507.0l-862.0 0z" fill-rule="evenodd"/><g filter="url(#shadowFilter-p.1)"><use xlink:href="#p.1" transform="matrix(1.0 0.0 0.0 1.0 0.0 2.999999737532796)"/></g><defs><filter id="shadowFilter-p.1" filterUnits="userSpaceOnUse"><feGaussianBlur in="SourceAlpha" stdDeviation="2.0" result="blur"/><feComponentTransfer in="blur" color-interpolation-filters="sRGB"><feFuncR type="linear" slope="0" intercept="0.0"/><feFuncG type="linear" slope="0" intercept="0.0"/><feFuncB type="linear" slope="0" intercept="0.0"/><feFuncA type="linear" slope="0.32" intercept="0"/></feComponentTransfer></filter></defs><g id="p.1"><defs><radialGradient id="p.2" gradientUnits="userSpaceOnUse" gradientTransform="matrix(13.144302922217808 0.0 0.0 13.144302922217808 0.0 0.0)" spreadMethod="pad" cx="3.5864764044490274" cy="7.721078065298732" fx="3.5864764044490274" fy="7.721078065298732" r="13.144303321838379"><stop offset="0.0" stop-color="#696969"/><stop offset="1.0" stop-color="#1d1d1d"/></radialGradient></defs><path fill="url(#p.2)" d="m47.14173 101.48819l150.96063 0l0 84.031494l-150.96063 0z" fill-rule="evenodd"/><path fill="#ffffff" d="m96.14137 150.42393l5.125 -13.359375l1.90625 0l5.46875 13.359375l-2.015625 0l-1.546875 -4.046875l-5.59375 0l-1.46875 4.046875l-1.875 0zm3.859375 -5.484375l4.53125 0l-1.40625 -3.703125q-0.625 -1.6875 -0.9375 -2.765625q-0.265625 1.28125 -0.71875 2.546875l-1.46875 3.921875zm11.349823 5.484375l-1.515625 0l0 -13.359375l1.640625 0l0 4.765625q1.046875 -1.296875 2.65625 -1.296875q0.890625 0 1.6875 0.359375q0.796875 0.359375 1.3125 1.015625q0.515625 0.640625 0.796875 1.5625q0.296875 0.921875 0.296875 1.96875q0 2.484375 -1.234375 3.84375q-1.21875 1.359375 -2.953125 1.359375q-1.703125 0 -2.6875 -1.4375l0 1.21875zm-0.015625 -4.90625q0 1.734375 0.484375 2.515625q0.765625 1.265625 2.09375 1.265625q1.078125 0 1.859375 -0.9375q0.78125 -0.9375 0.78125 -2.78125q0 -1.890625 -0.75 -2.796875q-0.75 -0.90625 -1.828125 -0.90625q-1.0625 0 -1.859375 0.9375q-0.78125 0.9375 -0.78125 2.703125zm15.203842 3.71875q-0.921875 0.765625 -1.765625 1.09375q-0.828125 0.3125 -1.796875 0.3125q-1.59375 0 -2.453125 -0.78125q-0.859375 -0.78125 -0.859375 -1.984375q0 -0.71875 0.328125 -1.296875q0.328125 -0.59375 0.84375 -0.9375q0.53125 -0.359375 1.1875 -0.546875q0.46875 -0.125 1.453125 -0.25q1.984375 -0.234375 2.921875 -0.5625q0.015625 -0.34375 0.015625 -0.421875q0 -1.0 -0.46875 -1.421875q-0.625 -0.546875 -1.875 -0.546875q-1.15625 0 -1.703125 0.40625q-0.546875 0.40625 -0.8125 1.421875l-1.609375 -0.21875q0.21875 -1.015625 0.71875 -1.640625q0.5 -0.640625 1.453125 -0.984375q0.953125 -0.34375 2.1875 -0.34375q1.25 0 2.015625 0.296875q0.78125 0.28125 1.140625 0.734375q0.375 0.4375 0.515625 1.109375q0.078125 0.421875 0.078125 1.515625l0 2.1875q0 2.28125 0.109375 2.890625q0.109375 0.59375 0.40625 1.15625l-1.703125 0q-0.265625 -0.515625 -0.328125 -1.1875zm-0.140625 -3.671875q-0.890625 0.375 -2.671875 0.625q-1.015625 0.140625 -1.4375 0.328125q-0.421875 0.1875 -0.65625 0.53125q-0.21875 0.34375 -0.21875 0.78125q0 0.65625 0.5 1.09375q0.5 0.4375 1.453125 0.4375q0.9375 0 1.671875 -0.40625q0.75 -0.421875 1.09375 -1.140625q0.265625 -0.5625 0.265625 -1.640625l0 -0.609375zm3.5475922 1.96875l1.625 -0.25q0.125 0.96875 0.75 1.5q0.625 0.515625 1.75 0.515625q1.125 0 1.671875 -0.453125q0.546875 -0.46875 0.546875 -1.09375q0 -0.546875 -0.484375 -0.875q-0.328125 -0.21875 -1.671875 -0.546875q-1.8125 -0.46875 -2.515625 -0.796875q-0.6875 -0.328125 -1.046875 -0.90625q-0.359375 -0.59375 -0.359375 -1.3125q0 -0.640625 0.296875 -1.1875q0.296875 -0.5625 0.8125 -0.921875q0.375 -0.28125 1.03125 -0.46875q0.671875 -0.203125 1.421875 -0.203125q1.140625 0 2.0 0.328125q0.859375 0.328125 1.265625 0.890625q0.421875 0.5625 0.578125 1.5l-1.609375 0.21875q-0.109375 -0.75 -0.640625 -1.171875q-0.515625 -0.421875 -1.46875 -0.421875q-1.140625 0 -1.625 0.375q-0.46875 0.375 -0.46875 0.875q0 0.3125 0.1875 0.578125q0.203125 0.265625 0.640625 0.4375q0.234375 0.09375 1.4375 0.421875q1.75 0.453125 2.4375 0.75q0.6875 0.296875 1.078125 0.859375q0.390625 0.5625 0.390625 1.40625q0 0.828125 -0.484375 1.546875q-0.46875 0.71875 -1.375 1.125q-0.90625 0.390625 -2.046875 0.390625q-1.875 0 -2.875 -0.78125q-0.984375 -0.78125 -1.25 -2.328125zm16.25 2.890625l0 -1.21875q-0.90625 1.4375 -2.703125 1.4375q-1.15625 0 -2.125 -0.640625q-0.96875 -0.640625 -1.5 -1.78125q-0.53125 -1.140625 -0.53125 -2.625q0 -1.453125 0.484375 -2.625q0.484375 -1.1875 1.4375 -1.8125q0.96875 -0.625 2.171875 -0.625q0.875 0 1.546875 0.375q0.6875 0.359375 1.109375 0.953125l0 -4.796875l1.640625 0l0 13.359375l-1.53125 0zm-5.171875 -4.828125q0 1.859375 0.78125 2.78125q0.78125 0.921875 1.84375 0.921875q1.078125 0 1.828125 -0.875q0.75 -0.890625 0.75 -2.6875q0 -1.984375 -0.765625 -2.90625q-0.765625 -0.9375 -1.890625 -0.9375q-1.078125 0 -1.8125 0.890625q-0.734375 0.890625 -0.734375 2.8125z" fill-rule="nonzero"/></g><defs><radialGradient id="p.3" gradientUnits="userSpaceOnUse" gradientTransform="matrix(13.326132764928614 0.0 0.0 13.326132764928614 0.0 0.0)" spreadMethod="pad" cx="5.302272902223869" cy="19.735658096710313" fx="5.302272902223869" fy="19.735658096710313" r="13.326132774353027"><stop offset="0.0" stop-color="#ffffff"/><stop offset="1.0" stop-color="#efefef"/></radialGradient></defs><path fill="url(#p.3)" d="m70.65879 287.0l0 0c0 -13.254822 23.26474 -24.0 51.963257 -24.0c28.69851 0 51.96325 10.745178 51.96325 24.0l0 96.0c0 13.254822 -23.26474 24.0 -51.96325 24.0c-28.698517 0 -51.963257 -10.745178 -51.963257 -24.0z" fill-rule="evenodd"/><path fill="#000000" fill-opacity="0.0" d="m174.5853 287.0l0 0c0 13.254822 -23.26474 24.0 -51.96325 24.0c-28.698517 0 -51.963257 -10.745178 -51.963257 -24.0" fill-rule="evenodd"/><path fill="#000000" fill-opacity="0.0" d="m70.65879 287.0l0 0c0 -13.254822 23.26474 -24.0 51.963257 -24.0c28.69851 0 51.96325 10.745178 51.96325 24.0l0 96.0c0 13.254822 -23.26474 24.0 -51.96325 24.0c-28.698517 0 -51.963257 -10.745178 -51.963257 -24.0z" fill-rule="evenodd"/><path stroke="#000000" stroke-width="1.0" stroke-linejoin="round" stroke-linecap="butt" d="m174.5853 287.0l0 0c0 13.254822 -23.26474 24.0 -51.96325 24.0c-28.698517 0 -51.963257 -10.745178 -51.963257 -24.0" fill-rule="evenodd"/><path stroke="#000000" stroke-width="1.0" stroke-linejoin="round" stroke-linecap="butt" d="m70.65879 287.0l0 0c0 -13.254822 23.26474 -24.0 51.963257 -24.0c28.69851 0 51.96325 10.745178 51.96325 24.0l0 96.0c0 13.254822 -23.26474 24.0 -51.96325 24.0c-28.698517 0 -51.963257 -10.745178 -51.963257 -24.0z" fill-rule="evenodd"/><path fill="#000000" d="m96.60289 353.91998l0 -13.359375l5.921875 0q1.78125 0 2.703125 0.359375q0.9375 0.359375 1.484375 1.28125q0.5625 0.90625 0.5625 2.015625q0 1.40625 -0.921875 2.390625q-0.921875 0.96875 -2.84375 1.234375q0.703125 0.34375 1.078125 0.671875q0.765625 0.703125 1.453125 1.765625l2.328125 3.640625l-2.21875 0l-1.765625 -2.78125q-0.78125 -1.203125 -1.28125 -1.828125q-0.5 -0.640625 -0.90625 -0.890625q-0.390625 -0.265625 -0.796875 -0.359375q-0.296875 -0.078125 -0.984375 -0.078125l-2.046875 0l0 5.9375l-1.765625 0zm1.765625 -7.453125l3.796875 0q1.21875 0 1.890625 -0.25q0.6875 -0.265625 1.046875 -0.8125q0.359375 -0.546875 0.359375 -1.1875q0 -0.953125 -0.6875 -1.5625q-0.6875 -0.609375 -2.1875 -0.609375l-4.21875 0l0 4.421875zm18.097946 4.34375l1.6875 0.203125q-0.40625 1.484375 -1.484375 2.3125q-1.078125 0.8125 -2.765625 0.8125q-2.125 0 -3.375 -1.296875q-1.234375 -1.3125 -1.234375 -3.671875q0 -2.453125 1.25 -3.796875q1.265625 -1.34375 3.265625 -1.34375q1.9375 0 3.15625 1.328125q1.234375 1.3125 1.234375 3.703125q0 0.15625 0 0.4375l-7.21875 0q0.09375 1.59375 0.90625 2.453125q0.8125 0.84375 2.015625 0.84375q0.90625 0 1.546875 -0.46875q0.640625 -0.484375 1.015625 -1.515625zm-5.390625 -2.65625l5.40625 0q-0.109375 -1.21875 -0.625 -1.828125q-0.78125 -0.953125 -2.03125 -0.953125q-1.125 0 -1.90625 0.765625q-0.765625 0.75 -0.84375 2.015625zm9.141342 9.46875l0 -13.375l1.484375 0l0 1.25q0.53125 -0.734375 1.1875 -1.09375q0.671875 -0.375 1.625 -0.375q1.234375 0 2.171875 0.640625q0.953125 0.625 1.4375 1.796875q0.484375 1.15625 0.484375 2.546875q0 1.484375 -0.53125 2.671875q-0.53125 1.1875 -1.546875 1.828125q-1.015625 0.625 -2.140625 0.625q-0.8125 0 -1.46875 -0.34375q-0.65625 -0.34375 -1.0625 -0.875l0 4.703125l-1.640625 0zm1.484375 -8.484375q0 1.859375 0.75 2.765625q0.765625 0.890625 1.828125 0.890625q1.09375 0 1.875 -0.921875q0.78125 -0.9375 0.78125 -2.875q0 -1.84375 -0.765625 -2.765625q-0.75 -0.921875 -1.8125 -0.921875q-1.046875 0 -1.859375 0.984375q-0.796875 0.96875 -0.796875 2.84375zm8.281967 -0.0625q0 -2.6875 1.484375 -3.96875q1.25 -1.078125 3.046875 -1.078125q2.0 0 3.265625 1.3125q1.265625 1.296875 1.265625 3.609375q0 1.859375 -0.5625 2.9375q-0.5625 1.0625 -1.640625 1.65625q-1.0625 0.59375 -2.328125 0.59375q-2.03125 0 -3.28125 -1.296875q-1.25 -1.3125 -1.25 -3.765625zm1.6875 0q0 1.859375 0.796875 2.796875q0.8125 0.921875 2.046875 0.921875q1.21875 0 2.03125 -0.921875q0.8125 -0.9375 0.8125 -2.84375q0 -1.796875 -0.8125 -2.71875q-0.8125 -0.921875 -2.03125 -0.921875q-1.234375 0 -2.046875 0.921875q-0.796875 0.90625 -0.796875 2.765625zm15.016342 4.84375l-1.640625 0l0 -10.453125q-0.59375 0.5625 -1.5625 1.140625q-0.953125 0.5625 -1.71875 0.84375l0 -1.59375q1.375 -0.640625 2.40625 -1.5625q1.03125 -0.921875 1.453125 -1.78125l1.0625 0l0 13.40625z" fill-rule="nonzero"/><defs><radialGradient id="p.4" gradientUnits="userSpaceOnUse" gradientTransform="matrix(13.7743535819671 0.0 0.0 13.7743535819671 0.0 0.0)" spreadMethod="pad" cx="31.99239354936629" cy="7.259297170587965" fx="31.99239354936629" fy="7.259297170587965" r="13.774353981018066"><stop offset="0.0" stop-color="#ffffff"/><stop offset="1.0" stop-color="#efefef"/></radialGradient></defs><path fill="url(#p.4)" d="m440.67453 99.99213l168.59842 0l0 87.02362l-168.59842 0z" fill-rule="evenodd"/><path stroke="#b7b7b7" stroke-width="1.0" stroke-linejoin="round" stroke-linecap="butt" d="m440.67453 99.99213l168.59842 0l0 87.02362l-168.59842 0z" fill-rule="evenodd"/><path fill="#000000" d="m478.7686 146.5608l2.03125 -0.1875q0.140625 1.21875 0.65625 2.0q0.53125 0.78125 1.640625 1.265625q1.109375 0.484375 2.484375 0.484375q1.234375 0 2.171875 -0.359375q0.9375 -0.375 1.390625 -1.015625q0.46875 -0.640625 0.46875 -1.390625q0 -0.765625 -0.453125 -1.328125q-0.4375 -0.578125 -1.453125 -0.953125q-0.65625 -0.265625 -2.890625 -0.796875q-2.234375 -0.53125 -3.125 -1.015625q-1.15625 -0.609375 -1.734375 -1.5q-0.5625 -0.90625 -0.5625 -2.03125q0 -1.21875 0.6875 -2.28125q0.703125 -1.078125 2.03125 -1.625q1.34375 -0.5625 2.984375 -0.5625q1.8125 0 3.1875 0.59375q1.375 0.578125 2.109375 1.703125q0.75 1.125 0.796875 2.546875l-2.046875 0.15625q-0.171875 -1.53125 -1.140625 -2.3125q-0.953125 -0.796875 -2.8125 -0.796875q-1.953125 0 -2.84375 0.71875q-0.890625 0.71875 -0.890625 1.71875q0 0.875 0.640625 1.4375q0.609375 0.5625 3.21875 1.15625q2.625 0.59375 3.59375 1.03125q1.421875 0.65625 2.09375 1.65625q0.671875 1.0 0.671875 2.3125q0 1.296875 -0.734375 2.4375q-0.734375 1.140625 -2.125 1.78125q-1.390625 0.640625 -3.125 0.640625q-2.203125 0 -3.703125 -0.640625q-1.484375 -0.640625 -2.328125 -1.921875q-0.84375 -1.296875 -0.890625 -2.921875zm23.627167 1.421875l2.0625 0.25q-0.484375 1.8125 -1.8125 2.8125q-1.3125 0.984375 -3.359375 0.984375q-2.578125 0 -4.09375 -1.578125q-1.5 -1.59375 -1.5 -4.46875q0 -2.953125 1.53125 -4.59375q1.53125 -1.640625 3.953125 -1.640625q2.359375 0 3.84375 1.609375q1.5 1.59375 1.5 4.515625q0 0.171875 0 0.53125l-8.765625 0q0.109375 1.9375 1.09375 2.96875q0.984375 1.015625 2.453125 1.015625q1.09375 0 1.859375 -0.5625q0.78125 -0.578125 1.234375 -1.84375zm-6.53125 -3.21875l6.5625 0q-0.140625 -1.484375 -0.75 -2.21875q-0.953125 -1.15625 -2.46875 -1.15625q-1.375 0 -2.3125 0.921875q-0.9375 0.90625 -1.03125 2.453125zm11.069061 7.0l0 -11.75l1.796875 0l0 1.78125q0.6875 -1.25 1.265625 -1.640625q0.578125 -0.40625 1.28125 -0.40625q1.0000305 0 2.0469055 0.640625l-0.6875 1.84375q-0.7344055 -0.421875 -1.4687805 -0.421875q-0.640625 0 -1.171875 0.390625q-0.515625 0.390625 -0.734375 1.09375q-0.328125 1.0625 -0.328125 2.3125l0 6.15625l-2.0 0zm10.825958 0l-4.46875 -11.75l2.109375 0l2.515625 7.03125q0.421875 1.140625 0.765625 2.375q0.25 -0.9375 0.734375 -2.234375l2.609375 -7.171875l2.046875 0l-4.453125 11.75l-1.859375 0zm8.078125 -13.921875l0 -2.296875l2.0 0l0 2.296875l-2.0 0zm0 13.921875l0 -11.75l2.0 0l0 11.75l-2.0 0zm12.689758 -4.296875l1.96875 0.25q-0.328125 2.015625 -1.65625 3.171875q-1.3125 1.140625 -3.234375 1.140625q-2.421875 0 -3.890625 -1.578125q-1.453125 -1.578125 -1.453125 -4.515625q0 -1.90625 0.625 -3.328125q0.625 -1.4375 1.90625 -2.140625q1.296875 -0.71875 2.8125 -0.71875q1.921875 0 3.140625 0.96875q1.21875 0.96875 1.5625 2.75l-1.9375 0.296875q-0.28125 -1.1875 -0.984375 -1.78125q-0.703125 -0.59375 -1.703125 -0.59375q-1.5 0 -2.4375 1.078125q-0.9375 1.078125 -0.9375 3.40625q0 2.375 0.90625 3.453125q0.90625 1.0625 2.359375 1.0625q1.171875 0 1.953125 -0.71875q0.796875 -0.71875 1.0 -2.203125zm11.703125 0.515625l2.0625 0.25q-0.484375 1.8125 -1.8125 2.8125q-1.3125 0.984375 -3.359375 0.984375q-2.578125 0 -4.09375 -1.578125q-1.5 -1.59375 -1.5 -4.46875q0 -2.953125 1.53125 -4.59375q1.53125 -1.640625 3.953125 -1.640625q2.359375 0 3.84375 1.609375q1.5 1.59375 1.5 4.515625q0 0.171875 0 0.53125l-8.765625 0q0.109375 1.9375 1.09375 2.96875q0.984375 1.015625 2.453125 1.015625q1.09375 0 1.859375 -0.5625q0.78125 -0.578125 1.234375 -1.84375zm-6.53125 -3.21875l6.5625 0q-0.140625 -1.484375 -0.75 -2.21875q-0.953125 -1.15625 -2.46875 -1.15625q-1.375 0 -2.3125 0.921875q-0.9375 0.90625 -1.03125 2.453125zm27.301208 5.09375l0 1.90625l-10.71875 0q-0.03125 -0.71875 0.234375 -1.390625q0.40625 -1.09375 1.296875 -2.15625q0.90625 -1.0625 2.609375 -2.453125q2.65625 -2.171875 3.578125 -3.4375q0.9375 -1.265625 0.9375 -2.390625q0 -1.1875 -0.859375 -2.0q-0.84375 -0.8125 -2.203125 -0.8125q-1.4375 0 -2.296875 0.875q-0.859375 0.859375 -0.875 2.375l-2.046875 -0.203125q0.203125 -2.296875 1.578125 -3.484375q1.375 -1.203125 3.6875 -1.203125q2.328125 0 3.6875 1.296875q1.375 1.28125 1.375 3.203125q0 0.96875 -0.40625 1.921875q-0.390625 0.9375 -1.328125 1.984375q-0.921875 1.03125 -3.0625 2.84375q-1.796875 1.5 -2.3125 2.046875q-0.5 0.53125 -0.828125 1.078125l7.953125 0z" fill-rule="nonzero"/><defs><radialGradient id="p.5" gradientUnits="userSpaceOnUse" gradientTransform="matrix(13.7743535819671 0.0 0.0 13.7743535819671 0.0 0.0)" spreadMethod="pad" cx="46.917616763210276" cy="7.259297170587965" fx="46.917616763210276" fy="7.259297170587965" r="13.774353981018066"><stop offset="0.0" stop-color="#ffffff"/><stop offset="1.0" stop-color="#efefef"/></radialGradient></defs><path fill="url(#p.5)" d="m646.2598 99.99213l168.59845 0l0 87.02362l-168.59845 0z" fill-rule="evenodd"/><path stroke="#b7b7b7" stroke-width="1.0" stroke-linejoin="round" stroke-linecap="butt" d="m646.2598 99.99213l168.59845 0l0 87.02362l-168.59845 0z" fill-rule="evenodd"/><path fill="#000000" d="m684.3539 146.5608l2.03125 -0.1875q0.140625 1.21875 0.65625 2.0q0.53125 0.78125 1.640625 1.265625q1.109375 0.484375 2.484375 0.484375q1.234375 0 2.171875 -0.359375q0.9375 -0.375 1.390625 -1.015625q0.46875 -0.640625 0.46875 -1.390625q0 -0.765625 -0.453125 -1.328125q-0.4375 -0.578125 -1.453125 -0.953125q-0.65625 -0.265625 -2.890625 -0.796875q-2.234375 -0.53125 -3.125 -1.015625q-1.15625 -0.609375 -1.734375 -1.5q-0.5625 -0.90625 -0.5625 -2.03125q0 -1.21875 0.6875 -2.28125q0.703125 -1.078125 2.03125 -1.625q1.34375 -0.5625 2.984375 -0.5625q1.8125 0 3.1875 0.59375q1.375 0.578125 2.109375 1.703125q0.75 1.125 0.796875 2.546875l-2.046875 0.15625q-0.171875 -1.53125 -1.140625 -2.3125q-0.953125 -0.796875 -2.8125 -0.796875q-1.953125 0 -2.84375 0.71875q-0.890625 0.71875 -0.890625 1.71875q0 0.875 0.640625 1.4375q0.609375 0.5625 3.21875 1.15625q2.625 0.59375 3.59375 1.03125q1.421875 0.65625 2.09375 1.65625q0.671875 1.0 0.671875 2.3125q0 1.296875 -0.734375 2.4375q-0.734375 1.140625 -2.125 1.78125q-1.390625 0.640625 -3.125 0.640625q-2.203125 0 -3.703125 -0.640625q-1.484375 -0.640625 -2.328125 -1.921875q-0.84375 -1.296875 -0.890625 -2.921875zm23.627136 1.421875l2.0625 0.25q-0.484375 1.8125 -1.8125 2.8125q-1.3125 0.984375 -3.359375 0.984375q-2.578125 0 -4.09375 -1.578125q-1.5 -1.59375 -1.5 -4.46875q0 -2.953125 1.53125 -4.59375q1.53125 -1.640625 3.953125 -1.640625q2.359375 0 3.84375 1.609375q1.5 1.59375 1.5 4.515625q0 0.171875 0 0.53125l-8.765625 0q0.109375 1.9375 1.09375 2.96875q0.984375 1.015625 2.453125 1.015625q1.09375 0 1.859375 -0.5625q0.78125 -0.578125 1.234375 -1.84375zm-6.53125 -3.21875l6.5625 0q-0.140625 -1.484375 -0.75 -2.21875q-0.953125 -1.15625 -2.46875 -1.15625q-1.375 0 -2.3125 0.921875q-0.9375 0.90625 -1.03125 2.453125zm11.069092 7.0l0 -11.75l1.796875 0l0 1.78125q0.6875 -1.25 1.265625 -1.640625q0.578125 -0.40625 1.28125 -0.40625q1.0 0 2.046875 0.640625l-0.6875 1.84375q-0.734375 -0.421875 -1.46875 -0.421875q-0.640625 0 -1.171875 0.390625q-0.515625 0.390625 -0.734375 1.09375q-0.328125 1.0625 -0.328125 2.3125l0 6.15625l-2.0 0zm10.825989 0l-4.46875 -11.75l2.109375 0l2.515625 7.03125q0.421875 1.140625 0.765625 2.375q0.25 -0.9375 0.734375 -2.234375l2.609375 -7.171875l2.046875 0l-4.453125 11.75l-1.859375 0zm8.078125 -13.921875l0 -2.296875l2.0 0l0 2.296875l-2.0 0zm0 13.921875l0 -11.75l2.0 0l0 11.75l-2.0 0zm12.689697 -4.296875l1.96875 0.25q-0.328125 2.015625 -1.65625 3.171875q-1.3125 1.140625 -3.234375 1.140625q-2.421875 0 -3.890625 -1.578125q-1.453125 -1.578125 -1.453125 -4.515625q0 -1.90625 0.625 -3.328125q0.625 -1.4375 1.90625 -2.140625q1.296875 -0.71875 2.8125 -0.71875q1.921875 0 3.140625 0.96875q1.21875 0.96875 1.5625 2.75l-1.9375 0.296875q-0.28125 -1.1875 -0.984375 -1.78125q-0.703125 -0.59375 -1.703125 -0.59375q-1.5 0 -2.4375 1.078125q-0.9375 1.078125 -0.9375 3.40625q0 2.375 0.90625 3.453125q0.90625 1.0625 2.359375 1.0625q1.171875 0 1.953125 -0.71875q0.796875 -0.71875 1.0 -2.203125zm11.703125 0.515625l2.0625 0.25q-0.484375 1.8125 -1.8125 2.8125q-1.3125 0.984375 -3.359375 0.984375q-2.578125 0 -4.09375 -1.578125q-1.5 -1.59375 -1.5 -4.46875q0 -2.953125 1.53125 -4.59375q1.53125 -1.640625 3.953125 -1.640625q2.359375 0 3.84375 1.609375q1.5 1.59375 1.5 4.515625q0 0.171875 0 0.53125l-8.765625 0q0.109375 1.9375 1.09375 2.96875q0.984375 1.015625 2.453125 1.015625q1.09375 0 1.859375 -0.5625q0.78125 -0.578125 1.234375 -1.84375zm-6.53125 -3.21875l6.5625 0q-0.140625 -1.484375 -0.75 -2.21875q-0.953125 -1.15625 -2.46875 -1.15625q-1.375 0 -2.3125 0.921875q-0.9375 0.90625 -1.03125 2.453125zm27.301208 5.09375l0 1.90625l-10.71875 0q-0.03125 -0.71875 0.234375 -1.390625q0.40625 -1.09375 1.296875 -2.15625q0.90625 -1.0625 2.609375 -2.453125q2.65625 -2.171875 3.578125 -3.4375q0.9375 -1.265625 0.9375 -2.390625q0 -1.1875 -0.859375 -2.0q-0.84375 -0.8125 -2.203125 -0.8125q-1.4375 0 -2.296875 0.875q-0.859375 0.859375 -0.875 2.375l-2.046875 -0.203125q0.203125 -2.296875 1.578125 -3.484375q1.375 -1.203125 3.6875 -1.203125q2.328125 0 3.6875 1.296875q1.375 1.28125 1.375 3.203125q0 0.96875 -0.40625 1.921875q-0.390625 0.9375 -1.328125 1.984375q-0.921875 1.03125 -3.0625 2.84375q-1.796875 1.5 -2.3125 2.046875q-0.5 0.53125 -0.828125 1.078125l7.953125 0z" fill-rule="nonzero"/><g filter="url(#shadowFilter-p.6)"><use xlink:href="#p.6" transform=""/></g><defs><filter id="shadowFilter-p.6" filterUnits="userSpaceOnUse"><feGaussianBlur in="SourceAlpha" stdDeviation="3.5" result="blur"/><feComponentTransfer in="blur" color-interpolation-filters="sRGB"><feFuncR type="linear" slope="0" intercept="0.0"/><feFuncG type="linear" slope="0" intercept="0.0"/><feFuncB type="linear" slope="0" intercept="0.0"/><feFuncA type="linear" slope="0.5" intercept="0"/></feComponentTransfer></filter></defs><g id="p.6"><defs><radialGradient id="p.7" gradientUnits="userSpaceOnUse" gradientTransform="matrix(13.144302922217808 0.0 0.0 13.144302922217808 0.0 0.0)" spreadMethod="pad" cx="18.041408029529205" cy="7.721078065298732" fx="18.041408029529205" fy="7.721078065298732" r="13.144303321838379"><stop offset="0.0" stop-color="#696969"/><stop offset="1.0" stop-color="#1d1d1d"/></radialGradient></defs><path fill="url(#p.7)" d="m237.14174 101.48819l150.96062 0l0 84.031494l-150.96062 0z" fill-rule="evenodd"/><path fill="#ffffff" d="m286.1414 150.42393l5.125 -13.359375l1.90625 0l5.46875 13.359375l-2.015625 0l-1.546875 -4.046875l-5.59375 0l-1.46875 4.046875l-1.875 0zm3.859375 -5.484375l4.53125 0l-1.40625 -3.703125q-0.625 -1.6875 -0.9375 -2.765625q-0.265625 1.28125 -0.71875 2.546875l-1.46875 3.921875zm11.349823 5.484375l-1.515625 0l0 -13.359375l1.640625 0l0 4.765625q1.046875 -1.296875 2.65625 -1.296875q0.890625 0 1.6875 0.359375q0.796875 0.359375 1.3125 1.015625q0.515625 0.640625 0.796875 1.5625q0.296875 0.921875 0.296875 1.96875q0 2.484375 -1.234375 3.84375q-1.21875 1.359375 -2.953125 1.359375q-1.703125 0 -2.6875 -1.4375l0 1.21875zm-0.015625 -4.90625q0 1.734375 0.484375 2.515625q0.765625 1.265625 2.09375 1.265625q1.078125 0 1.859375 -0.9375q0.78125 -0.9375 0.78125 -2.78125q0 -1.890625 -0.75 -2.796875q-0.75 -0.90625 -1.828125 -0.90625q-1.0625 0 -1.859375 0.9375q-0.78125 0.9375 -0.78125 2.703125zm15.203827 3.71875q-0.921875 0.765625 -1.765625 1.09375q-0.828125 0.3125 -1.796875 0.3125q-1.59375 0 -2.453125 -0.78125q-0.859375 -0.78125 -0.859375 -1.984375q0 -0.71875 0.328125 -1.296875q0.328125 -0.59375 0.84375 -0.9375q0.53125 -0.359375 1.1875 -0.546875q0.46875 -0.125 1.453125 -0.25q1.984375 -0.234375 2.921875 -0.5625q0.015625 -0.34375 0.015625 -0.421875q0 -1.0 -0.46875 -1.421875q-0.625 -0.546875 -1.875 -0.546875q-1.15625 0 -1.703125 0.40625q-0.546875 0.40625 -0.8125 1.421875l-1.609375 -0.21875q0.21875 -1.015625 0.71875 -1.640625q0.5 -0.640625 1.453125 -0.984375q0.953125 -0.34375 2.1875 -0.34375q1.25 0 2.015625 0.296875q0.78125 0.28125 1.140625 0.734375q0.375 0.4375 0.515625 1.109375q0.078125 0.421875 0.078125 1.515625l0 2.1875q0 2.28125 0.109375 2.890625q0.109375 0.59375 0.40625 1.15625l-1.703125 0q-0.265625 -0.515625 -0.328125 -1.1875zm-0.140625 -3.671875q-0.890625 0.375 -2.671875 0.625q-1.015625 0.140625 -1.4375 0.328125q-0.421875 0.1875 -0.65625 0.53125q-0.21875 0.34375 -0.21875 0.78125q0 0.65625 0.5 1.09375q0.5 0.4375 1.453125 0.4375q0.9375 0 1.671875 -0.40625q0.75 -0.421875 1.09375 -1.140625q0.265625 -0.5625 0.265625 -1.640625l0 -0.609375zm3.5476074 1.96875l1.625 -0.25q0.125 0.96875 0.75 1.5q0.625 0.515625 1.75 0.515625q1.125 0 1.671875 -0.453125q0.546875 -0.46875 0.546875 -1.09375q0 -0.546875 -0.484375 -0.875q-0.328125 -0.21875 -1.671875 -0.546875q-1.8125 -0.46875 -2.515625 -0.796875q-0.6875 -0.328125 -1.046875 -0.90625q-0.359375 -0.59375 -0.359375 -1.3125q0 -0.640625 0.296875 -1.1875q0.296875 -0.5625 0.8125 -0.921875q0.375 -0.28125 1.03125 -0.46875q0.671875 -0.203125 1.421875 -0.203125q1.140625 0 2.0 0.328125q0.859375 0.328125 1.265625 0.890625q0.421875 0.5625 0.578125 1.5l-1.609375 0.21875q-0.109375 -0.75 -0.640625 -1.171875q-0.515625 -0.421875 -1.46875 -0.421875q-1.140625 0 -1.625 0.375q-0.46875 0.375 -0.46875 0.875q0 0.3125 0.1875 0.578125q0.203125 0.265625 0.640625 0.4375q0.234375 0.09375 1.4375 0.421875q1.75 0.453125 2.4375 0.75q0.6875 0.296875 1.078125 0.859375q0.390625 0.5625 0.390625 1.40625q0 0.828125 -0.484375 1.546875q-0.46875 0.71875 -1.375 1.125q-0.90625 0.390625 -2.046875 0.390625q-1.875 0 -2.875 -0.78125q-0.984375 -0.78125 -1.25 -2.328125zm16.25 2.890625l0 -1.21875q-0.90625 1.4375 -2.703125 1.4375q-1.15625 0 -2.125 -0.640625q-0.96875 -0.640625 -1.5 -1.78125q-0.53125 -1.140625 -0.53125 -2.625q0 -1.453125 0.484375 -2.625q0.484375 -1.1875 1.4375 -1.8125q0.96875 -0.625 2.171875 -0.625q0.875 0 1.546875 0.375q0.6875 0.359375 1.109375 0.953125l0 -4.796875l1.640625 0l0 13.359375l-1.53125 0zm-5.171875 -4.828125q0 1.859375 0.78125 2.78125q0.78125 0.921875 1.84375 0.921875q1.078125 0 1.828125 -0.875q0.75 -0.890625 0.75 -2.6875q0 -1.984375 -0.765625 -2.90625q-0.765625 -0.9375 -1.890625 -0.9375q-1.078125 0 -1.8125 0.890625q-0.734375 0.890625 -0.734375 2.8125z" fill-rule="nonzero"/></g><defs><radialGradient id="p.8" gradientUnits="userSpaceOnUse" gradientTransform="matrix(13.326132764928614 0.0 0.0 13.326132764928614 0.0 0.0)" spreadMethod="pad" cx="19.559972667908127" cy="19.735658096710313" fx="19.559972667908127" fy="19.735658096710313" r="13.326132774353027"><stop offset="0.0" stop-color="#ffffff"/><stop offset="1.0" stop-color="#efefef"/></radialGradient></defs><path fill="url(#p.8)" d="m260.65878 287.0l0 0c0 -13.254822 23.26474 -24.0 51.963257 -24.0c28.698517 0 51.963257 10.745178 51.963257 24.0l0 96.0c0 13.254822 -23.26474 24.0 -51.963257 24.0c-28.698517 0 -51.963257 -10.745178 -51.963257 -24.0z" fill-rule="evenodd"/><path fill="#000000" fill-opacity="0.0" d="m364.5853 287.0l0 0c0 13.254822 -23.26474 24.0 -51.963257 24.0c-28.698517 0 -51.963257 -10.745178 -51.963257 -24.0" fill-rule="evenodd"/><path fill="#000000" fill-opacity="0.0" d="m260.65878 287.0l0 0c0 -13.254822 23.26474 -24.0 51.963257 -24.0c28.698517 0 51.963257 10.745178 51.963257 24.0l0 96.0c0 13.254822 -23.26474 24.0 -51.963257 24.0c-28.698517 0 -51.963257 -10.745178 -51.963257 -24.0z" fill-rule="evenodd"/><path stroke="#000000" stroke-width="1.0" stroke-linejoin="round" stroke-linecap="butt" d="m364.5853 287.0l0 0c0 13.254822 -23.26474 24.0 -51.963257 24.0c-28.698517 0 -51.963257 -10.745178 -51.963257 -24.0" fill-rule="evenodd"/><path stroke="#000000" stroke-width="1.0" stroke-linejoin="round" stroke-linecap="butt" d="m260.65878 287.0l0 0c0 -13.254822 23.26474 -24.0 51.963257 -24.0c28.698517 0 51.963257 10.745178 51.963257 24.0l0 96.0c0 13.254822 -23.26474 24.0 -51.963257 24.0c-28.698517 0 -51.963257 -10.745178 -51.963257 -24.0z" fill-rule="evenodd"/><path fill="#000000" d="m286.60287 353.91998l0 -13.359375l5.921875 0q1.78125 0 2.703125 0.359375q0.9375 0.359375 1.484375 1.28125q0.5625 0.90625 0.5625 2.015625q0 1.40625 -0.921875 2.390625q-0.921875 0.96875 -2.84375 1.234375q0.703125 0.34375 1.078125 0.671875q0.765625 0.703125 1.453125 1.765625l2.328125 3.640625l-2.21875 0l-1.765625 -2.78125q-0.78125 -1.203125 -1.28125 -1.828125q-0.5 -0.640625 -0.90625 -0.890625q-0.390625 -0.265625 -0.796875 -0.359375q-0.296875 -0.078125 -0.984375 -0.078125l-2.046875 0l0 5.9375l-1.765625 0zm1.765625 -7.453125l3.796875 0q1.21875 0 1.890625 -0.25q0.6875 -0.265625 1.046875 -0.8125q0.359375 -0.546875 0.359375 -1.1875q0 -0.953125 -0.6875 -1.5625q-0.6875 -0.609375 -2.1875 -0.609375l-4.21875 0l0 4.421875zm18.097961 4.34375l1.6875 0.203125q-0.40625 1.484375 -1.484375 2.3125q-1.078125 0.8125 -2.765625 0.8125q-2.125 0 -3.375 -1.296875q-1.234375 -1.3125 -1.234375 -3.671875q0 -2.453125 1.25 -3.796875q1.265625 -1.34375 3.265625 -1.34375q1.9375 0 3.15625 1.328125q1.234375 1.3125 1.234375 3.703125q0 0.15625 0 0.4375l-7.21875 0q0.09375 1.59375 0.90625 2.453125q0.8125 0.84375 2.015625 0.84375q0.90625 0 1.546875 -0.46875q0.640625 -0.484375 1.015625 -1.515625zm-5.390625 -2.65625l5.40625 0q-0.109375 -1.21875 -0.625 -1.828125q-0.78125 -0.953125 -2.03125 -0.953125q-1.125 0 -1.90625 0.765625q-0.765625 0.75 -0.84375 2.015625zm9.141327 9.46875l0 -13.375l1.484375 0l0 1.25q0.53125 -0.734375 1.1875 -1.09375q0.671875 -0.375 1.625 -0.375q1.234375 0 2.171875 0.640625q0.953125 0.625 1.4375 1.796875q0.484375 1.15625 0.484375 2.546875q0 1.484375 -0.53125 2.671875q-0.53125 1.1875 -1.546875 1.828125q-1.015625 0.625 -2.140625 0.625q-0.8125 0 -1.46875 -0.34375q-0.65625 -0.34375 -1.0625 -0.875l0 4.703125l-1.640625 0zm1.484375 -8.484375q0 1.859375 0.75 2.765625q0.765625 0.890625 1.828125 0.890625q1.09375 0 1.875 -0.921875q0.78125 -0.9375 0.78125 -2.875q0 -1.84375 -0.765625 -2.765625q-0.75 -0.921875 -1.8125 -0.921875q-1.046875 0 -1.859375 0.984375q-0.796875 0.96875 -0.796875 2.84375zm8.281982 -0.0625q0 -2.6875 1.484375 -3.96875q1.25 -1.078125 3.046875 -1.078125q2.0 0 3.265625 1.3125q1.265625 1.296875 1.265625 3.609375q0 1.859375 -0.5625 2.9375q-0.5625 1.0625 -1.640625 1.65625q-1.0625 0.59375 -2.328125 0.59375q-2.03125 0 -3.28125 -1.296875q-1.25 -1.3125 -1.25 -3.765625zm1.6875 0q0 1.859375 0.796875 2.796875q0.8125 0.921875 2.046875 0.921875q1.21875 0 2.03125 -0.921875q0.8125 -0.9375 0.8125 -2.84375q0 -1.796875 -0.8125 -2.71875q-0.8125 -0.921875 -2.03125 -0.921875q-1.234375 0 -2.046875 0.921875q-0.796875 0.90625 -0.796875 2.765625zm15.016327 4.84375l-1.640625 0l0 -10.453125q-0.59375 0.5625 -1.5625 1.140625q-0.953125 0.5625 -1.71875 0.84375l0 -1.59375q1.375 -0.640625 2.40625 -1.5625q1.03125 -0.921875 1.453125 -1.78125l1.0625 0l0 13.40625z" fill-rule="nonzero"/><defs><radialGradient id="p.9" gradientUnits="userSpaceOnUse" gradientTransform="matrix(13.326132764928614 0.0 0.0 13.326132764928614 0.0 0.0)" spreadMethod="pad" cx="35.49495619108053" cy="19.735658096710313" fx="35.49495619108053" fy="19.735658096710313" r="13.326132774353027"><stop offset="0.0" stop-color="#ffffff"/><stop offset="1.0" stop-color="#efefef"/></radialGradient></defs><path fill="url(#p.9)" d="m473.0105 287.0l0 0c0 -13.254822 23.26474 -24.0 51.963257 -24.0c28.698486 0 51.963257 10.745178 51.963257 24.0l0 96.0c0 13.254822 -23.26477 24.0 -51.963257 24.0c-28.698517 0 -51.963257 -10.745178 -51.963257 -24.0z" fill-rule="evenodd"/><path fill="#000000" fill-opacity="0.0" d="m576.937 287.0l0 0c0 13.254822 -23.26477 24.0 -51.963257 24.0c-28.698517 0 -51.963257 -10.745178 -51.963257 -24.0" fill-rule="evenodd"/><path fill="#000000" fill-opacity="0.0" d="m473.0105 287.0l0 0c0 -13.254822 23.26474 -24.0 51.963257 -24.0c28.698486 0 51.963257 10.745178 51.963257 24.0l0 96.0c0 13.254822 -23.26477 24.0 -51.963257 24.0c-28.698517 0 -51.963257 -10.745178 -51.963257 -24.0z" fill-rule="evenodd"/><path stroke="#000000" stroke-width="1.0" stroke-linejoin="round" stroke-linecap="butt" d="m576.937 287.0l0 0c0 13.254822 -23.26477 24.0 -51.963257 24.0c-28.698517 0 -51.963257 -10.745178 -51.963257 -24.0" fill-rule="evenodd"/><path stroke="#000000" stroke-width="1.0" stroke-linejoin="round" stroke-linecap="butt" d="m473.0105 287.0l0 0c0 -13.254822 23.26474 -24.0 51.963257 -24.0c28.698486 0 51.963257 10.745178 51.963257 24.0l0 96.0c0 13.254822 -23.26477 24.0 -51.963257 24.0c-28.698517 0 -51.963257 -10.745178 -51.963257 -24.0z" fill-rule="evenodd"/><path fill="#000000" d="m498.9546 353.91998l0 -13.359375l5.921875 0q1.78125 0 2.703125 0.359375q0.9375 0.359375 1.484375 1.28125q0.5625 0.90625 0.5625 2.015625q0 1.40625 -0.921875 2.390625q-0.921875 0.96875 -2.84375 1.234375q0.703125 0.34375 1.078125 0.671875q0.765625 0.703125 1.453125 1.765625l2.328125 3.640625l-2.21875 0l-1.765625 -2.78125q-0.78125 -1.203125 -1.28125 -1.828125q-0.5 -0.640625 -0.90625 -0.890625q-0.390625 -0.265625 -0.796875 -0.359375q-0.296875 -0.078125 -0.984375 -0.078125l-2.046875 0l0 5.9375l-1.765625 0zm1.765625 -7.453125l3.796875 0q1.21875 0 1.890625 -0.25q0.6875 -0.265625 1.046875 -0.8125q0.359375 -0.546875 0.359375 -1.1875q0 -0.953125 -0.6875 -1.5625q-0.6875 -0.609375 -2.1875 -0.609375l-4.21875 0l0 4.421875zm18.097961 4.34375l1.6875 0.203125q-0.40625 1.484375 -1.484375 2.3125q-1.078125 0.8125 -2.765625 0.8125q-2.125 0 -3.375 -1.296875q-1.234375 -1.3125 -1.234375 -3.671875q0 -2.453125 1.25 -3.796875q1.265625 -1.34375 3.265625 -1.34375q1.9375 0 3.15625 1.328125q1.234375 1.3125 1.234375 3.703125q0 0.15625 0 0.4375l-7.21875 0q0.09375 1.59375 0.90625 2.453125q0.8125 0.84375 2.015625 0.84375q0.90625 0 1.546875 -0.46875q0.640625 -0.484375 1.015625 -1.515625zm-5.390625 -2.65625l5.40625 0q-0.109375 -1.21875 -0.625 -1.828125q-0.78125 -0.953125 -2.03125 -0.953125q-1.125 0 -1.90625 0.765625q-0.765625 0.75 -0.84375 2.015625zm9.141357 9.46875l0 -13.375l1.484375 0l0 1.25q0.53125 -0.734375 1.1875 -1.09375q0.671875 -0.375 1.625 -0.375q1.234375 0 2.171875 0.640625q0.953125 0.625 1.4375 1.796875q0.484375 1.15625 0.484375 2.546875q0 1.484375 -0.53125 2.671875q-0.53125 1.1875 -1.546875 1.828125q-1.015625 0.625 -2.140625 0.625q-0.8125 0 -1.46875 -0.34375q-0.65625 -0.34375 -1.0625 -0.875l0 4.703125l-1.640625 0zm1.484375 -8.484375q0 1.859375 0.75 2.765625q0.765625 0.890625 1.828125 0.890625q1.09375 0 1.875 -0.921875q0.78125 -0.9375 0.78125 -2.875q0 -1.84375 -0.765625 -2.765625q-0.75 -0.921875 -1.8125 -0.921875q-1.046875 0 -1.859375 0.984375q-0.796875 0.96875 -0.796875 2.84375zm8.281921 -0.0625q0 -2.6875 1.484375 -3.96875q1.25 -1.078125 3.046875 -1.078125q2.0 0 3.265625 1.3125q1.265625 1.296875 1.265625 3.609375q0 1.859375 -0.5625 2.9375q-0.5625 1.0625 -1.640625 1.65625q-1.0625 0.59375 -2.328125 0.59375q-2.03125 0 -3.28125 -1.296875q-1.25 -1.3125 -1.25 -3.765625zm1.6875 0q0 1.859375 0.796875 2.796875q0.8125 0.921875 2.046875 0.921875q1.21875 0 2.03125 -0.921875q0.8125 -0.9375 0.8125 -2.84375q0 -1.796875 -0.8125 -2.71875q-0.8125 -0.921875 -2.03125 -0.921875q-1.234375 0 -2.046875 0.921875q-0.796875 0.90625 -0.796875 2.765625zm15.016357 4.84375l-1.640625 0l0 -10.453125q-0.59375 0.5625 -1.5625 1.140625q-0.953125 0.5625 -1.71875 0.84375l0 -1.59375q1.375 -0.640625 2.40625 -1.5625q1.03125 -0.921875 1.453125 -1.78125l1.0625 0l0 13.40625z" fill-rule="nonzero"/><defs><radialGradient id="p.10" gradientUnits="userSpaceOnUse" gradientTransform="matrix(13.326132764928614 0.0 0.0 13.326132764928614 0.0 0.0)" spreadMethod="pad" cx="50.92218519020357" cy="19.735658096710313" fx="50.92218519020357" fy="19.735658096710313" r="13.326132774353027"><stop offset="0.0" stop-color="#ffffff"/><stop offset="1.0" stop-color="#efefef"/></radialGradient></defs><path fill="url(#p.10)" d="m678.5958 287.0l0 0c0 -13.254822 23.26471 -24.0 51.963257 -24.0c28.698486 0 51.963257 10.745178 51.963257 24.0l0 96.0c0 13.254822 -23.26477 24.0 -51.963257 24.0c-28.698547 0 -51.963257 -10.745178 -51.963257 -24.0z" fill-rule="evenodd"/><path fill="#000000" fill-opacity="0.0" d="m782.52234 287.0l0 0c0 13.254822 -23.26477 24.0 -51.963257 24.0c-28.698547 0 -51.963257 -10.745178 -51.963257 -24.0" fill-rule="evenodd"/><path fill="#000000" fill-opacity="0.0" d="m678.5958 287.0l0 0c0 -13.254822 23.26471 -24.0 51.963257 -24.0c28.698486 0 51.963257 10.745178 51.963257 24.0l0 96.0c0 13.254822 -23.26477 24.0 -51.963257 24.0c-28.698547 0 -51.963257 -10.745178 -51.963257 -24.0z" fill-rule="evenodd"/><path stroke="#000000" stroke-width="1.0" stroke-linejoin="round" stroke-linecap="butt" d="m782.52234 287.0l0 0c0 13.254822 -23.26477 24.0 -51.963257 24.0c-28.698547 0 -51.963257 -10.745178 -51.963257 -24.0" fill-rule="evenodd"/><path stroke="#000000" stroke-width="1.0" stroke-linejoin="round" stroke-linecap="butt" d="m678.5958 287.0l0 0c0 -13.254822 23.26471 -24.0 51.963257 -24.0c28.698486 0 51.963257 10.745178 51.963257 24.0l0 96.0c0 13.254822 -23.26477 24.0 -51.963257 24.0c-28.698547 0 -51.963257 -10.745178 -51.963257 -24.0z" fill-rule="evenodd"/><path fill="#000000" d="m704.5399 353.91998l0 -13.359375l5.921875 0q1.78125 0 2.703125 0.359375q0.9375 0.359375 1.484375 1.28125q0.5625 0.90625 0.5625 2.015625q0 1.40625 -0.921875 2.390625q-0.921875 0.96875 -2.84375 1.234375q0.703125 0.34375 1.078125 0.671875q0.765625 0.703125 1.453125 1.765625l2.328125 3.640625l-2.21875 0l-1.765625 -2.78125q-0.78125 -1.203125 -1.28125 -1.828125q-0.5 -0.640625 -0.90625 -0.890625q-0.390625 -0.265625 -0.796875 -0.359375q-0.296875 -0.078125 -0.984375 -0.078125l-2.046875 0l0 5.9375l-1.765625 0zm1.765625 -7.453125l3.796875 0q1.21875 0 1.890625 -0.25q0.6875 -0.265625 1.046875 -0.8125q0.359375 -0.546875 0.359375 -1.1875q0 -0.953125 -0.6875 -1.5625q-0.6875 -0.609375 -2.1875 -0.609375l-4.21875 0l0 4.421875zm18.0979 4.34375l1.6875 0.203125q-0.40625 1.484375 -1.484375 2.3125q-1.078125 0.8125 -2.765625 0.8125q-2.125 0 -3.375 -1.296875q-1.234375 -1.3125 -1.234375 -3.671875q0 -2.453125 1.25 -3.796875q1.265625 -1.34375 3.265625 -1.34375q1.9375 0 3.15625 1.328125q1.234375 1.3125 1.234375 3.703125q0 0.15625 0 0.4375l-7.21875 0q0.09375 1.59375 0.90625 2.453125q0.8125 0.84375 2.015625 0.84375q0.90625 0 1.546875 -0.46875q0.640625 -0.484375 1.015625 -1.515625zm-5.390625 -2.65625l5.40625 0q-0.109375 -1.21875 -0.625 -1.828125q-0.78125 -0.953125 -2.03125 -0.953125q-1.125 0 -1.90625 0.765625q-0.765625 0.75 -0.84375 2.015625zm9.141357 9.46875l0 -13.375l1.484375 0l0 1.25q0.53125 -0.734375 1.1875 -1.09375q0.671875 -0.375 1.625 -0.375q1.234375 0 2.171875 0.640625q0.953125 0.625 1.4375 1.796875q0.484375 1.15625 0.484375 2.546875q0 1.484375 -0.53125 2.671875q-0.53125 1.1875 -1.546875 1.828125q-1.015625 0.625 -2.140625 0.625q-0.8125 0 -1.46875 -0.34375q-0.65625 -0.34375 -1.0625 -0.875l0 4.703125l-1.640625 0zm1.484375 -8.484375q0 1.859375 0.75 2.765625q0.765625 0.890625 1.828125 0.890625q1.09375 0 1.875 -0.921875q0.78125 -0.9375 0.78125 -2.875q0 -1.84375 -0.765625 -2.765625q-0.75 -0.921875 -1.8125 -0.921875q-1.046875 0 -1.859375 0.984375q-0.796875 0.96875 -0.796875 2.84375zm8.281982 -0.0625q0 -2.6875 1.484375 -3.96875q1.25 -1.078125 3.046875 -1.078125q2.0 0 3.265625 1.3125q1.265625 1.296875 1.265625 3.609375q0 1.859375 -0.5625 2.9375q-0.5625 1.0625 -1.640625 1.65625q-1.0625 0.59375 -2.328125 0.59375q-2.03125 0 -3.28125 -1.296875q-1.25 -1.3125 -1.25 -3.765625zm1.6875 0q0 1.859375 0.796875 2.796875q0.8125 0.921875 2.046875 0.921875q1.21875 0 2.03125 -0.921875q0.8125 -0.9375 0.8125 -2.84375q0 -1.796875 -0.8125 -2.71875q-0.8125 -0.921875 -2.03125 -0.921875q-1.234375 0 -2.046875 0.921875q-0.796875 0.90625 -0.796875 2.765625zm15.016357 4.84375l-1.640625 0l0 -10.453125q-0.59375 0.5625 -1.5625 1.140625q-0.953125 0.5625 -1.71875 0.84375l0 -1.59375q1.375 -0.640625 2.40625 -1.5625q1.03125 -0.921875 1.453125 -1.78125l1.0625 0l0 13.40625z" fill-rule="nonzero"/></g></svg>