<svg version="1.1" viewBox="0.0 0.0 799.0 182.0" fill="none" stroke="none" stroke-linecap="square" stroke-miterlimit="10" xmlns:xlink="http://www.w3.org/1999/xlink" xmlns="http://www.w3.org/2000/svg"><clipPath id="p.0"><path d="m0 0l799.0 0l0 182.0l-799.0 0l0 -182.0z" clip-rule="nonzero"/></clipPath><g clip-path="url(#p.0)"><path fill="#000000" fill-opacity="0.0" d="m0 0l799.0 0l0 182.0l-799.0 0z" fill-rule="evenodd"/><defs><radialGradient id="p.1" gradientUnits="userSpaceOnUse" gradientTransform="matrix(13.689450762244482 0.0 0.0 13.689450762244482 0.0 0.0)" spreadMethod="pad" cx="11.22154574118764" cy="1.8986975033314168" fx="11.22154574118764" fy="1.8986975033314168" r="13.689451217651367"><stop offset="0.0" stop-color="#ffffff"/><stop offset="1.0" stop-color="#ffe599"/></radialGradient></defs><path fill="url(#p.1)" d="m153.61679 42.366142l0 0c0 9.043118 29.323593 16.374016 65.49606 16.374016c36.172485 0 65.49606 -7.3308983 65.49606 -16.374016l0 101.26772c0 9.043106 -29.323578 16.374008 -65.49606 16.374008c-36.17247 0 -65.49606 -7.330902 -65.49606 -16.374008z" fill-rule="evenodd"/><defs><radialGradient id="p.2" gradientUnits="userSpaceOnUse" gradientTransform="matrix(13.689450762244482 0.0 0.0 13.689450762244482 0.0 0.0)" spreadMethod="pad" cx="11.22154574118764" cy="1.8986975033314168" fx="11.22154574118764" fy="1.8986975033314168" r="13.689451217651367"><stop offset="0.0" stop-color="#ffffff"/><stop offset="1.0" stop-color="#ffe599"/></radialGradient></defs><path fill="url(#p.2)" d="m153.61679 42.366142l0 0c0 -9.043121 29.323593 -16.374016 65.49606 -16.374016c36.172485 0 65.49606 7.3308945 65.49606 16.374016l0 0c0 9.043118 -29.323578 16.374016 -65.49606 16.374016c-36.17247 0 -65.49606 -7.3308983 -65.49606 -16.374016z" fill-rule="evenodd"/><path fill="#000000" fill-opacity="0.0" d="m284.60892 42.366142l0 0c0 9.043118 -29.323578 16.374016 -65.49606 16.374016c-36.17247 0 -65.49606 -7.3308983 -65.49606 -16.374016l0 0c0 -9.043121 29.323593 -16.374016 65.49606 -16.374016c36.172485 0 65.49606 7.3308945 65.49606 16.374016l0 101.26772c0 9.043106 -29.323578 16.374008 -65.49606 16.374008c-36.17247 0 -65.49606 -7.330902 -65.49606 -16.374008l0 -101.26772" fill-rule="evenodd"/><path fill="#ffffff" fill-opacity="0.4" d="m153.61679 42.366142l0 0c0 -9.043121 29.323593 -16.374016 65.49606 -16.374016c36.172485 0 65.49606 7.3308945 65.49606 16.374016l0 0c0 9.043118 -29.323578 16.374016 -65.49606 16.374016c-36.17247 0 -65.49606 -7.3308983 -65.49606 -16.374016z" fill-rule="evenodd"/><path stroke="#000000" stroke-width="1.0" stroke-linejoin="round" stroke-linecap="butt" d="m284.60892 42.366142l0 0c0 9.043118 -29.323578 16.374016 -65.49606 16.374016c-36.17247 0 -65.49606 -7.3308983 -65.49606 -16.374016l0 0c0 -9.043121 29.323593 -16.374016 65.49606 -16.374016c36.172485 0 65.49606 7.3308945 65.49606 16.374016l0 101.26772c0 9.043106 -29.323578 16.374008 -65.49606 16.374008c-36.17247 0 -65.49606 -7.330902 -65.49606 -16.374008l0 -101.26772" fill-rule="evenodd"/><path fill="#000000" d="m195.44489 80.96888q0 -2.859375 1.53125 -4.46875q1.53125 -1.609375 3.953125 -1.609375q1.578125 0 2.84375 0.765625q1.28125 0.75 1.953125 2.109375q0.671875 1.34375 0.671875 3.0625q0 1.75 -0.703125 3.125q-0.703125 1.375 -2.0 2.09375q-1.28125 0.703125 -2.78125 0.703125q-1.609375 0 -2.890625 -0.78125q-1.265625 -0.796875 -1.921875 -2.140625q-0.65625 -1.359375 -0.65625 -2.859375zm1.5625 0.015625q0 2.078125 1.109375 3.265625q1.109375 1.1875 2.796875 1.1875q1.703125 0 2.8125 -1.203125q1.109375 -1.203125 1.109375 -3.40625q0 -1.40625 -0.484375 -2.4375q-0.46875 -1.046875 -1.375 -1.625q-0.90625 -0.578125 -2.046875 -0.578125q-1.609375 0 -2.765625 1.109375q-1.15625 1.109375 -1.15625 3.6875zm11.1484375 5.5625l0 -8.296875l1.265625 0l0 1.25q0.484375 -0.875 0.890625 -1.15625q0.40625 -0.28125 0.90625 -0.28125q0.703125 0 1.4375 0.453125l-0.484375 1.296875q-0.515625 -0.296875 -1.03125 -0.296875q-0.453125 0 -0.828125 0.28125q-0.359375 0.265625 -0.515625 0.765625q-0.234375 0.75 -0.234375 1.640625l0 4.34375l-1.40625 0zm10.71875 0l0 -1.046875q-0.78125 1.234375 -2.3125 1.234375q-1.0 0 -1.828125 -0.546875q-0.828125 -0.546875 -1.296875 -1.53125q-0.453125 -0.984375 -0.453125 -2.25q0 -1.25 0.40625 -2.25q0.421875 -1.015625 1.25 -1.546875q0.828125 -0.546875 1.859375 -0.546875q0.75 0 1.328125 0.3125q0.59375 0.3125 0.953125 0.828125l0 -4.109375l1.40625 0l0 11.453125l-1.3125 0zm-4.4375 -4.140625q0 1.59375 0.671875 2.390625q0.671875 0.78125 1.578125 0.78125q0.921875 0 1.5625 -0.75q0.65625 -0.765625 0.65625 -2.3125q0 -1.703125 -0.65625 -2.5q-0.65625 -0.796875 -1.625 -0.796875q-0.9375 0 -1.5625 0.765625q-0.625 0.765625 -0.625 2.421875zm13.6328125 1.46875l1.453125 0.171875q-0.34375 1.28125 -1.28125 1.984375q-0.921875 0.703125 -2.359375 0.703125q-1.828125 0 -2.890625 -1.125q-1.0625 -1.125 -1.0625 -3.140625q0 -2.09375 1.078125 -3.25q1.078125 -1.15625 2.796875 -1.15625q1.65625 0 2.703125 1.140625q1.0625 1.125 1.0625 3.171875q0 0.125 0 0.375l-6.1875 0q0.078125 1.375 0.765625 2.109375q0.703125 0.71875 1.734375 0.71875q0.78125 0 1.328125 -0.40625q0.546875 -0.40625 0.859375 -1.296875zm-4.609375 -2.28125l4.625 0q-0.09375 -1.046875 -0.53125 -1.5625q-0.671875 -0.8125 -1.734375 -0.8125q-0.96875 0 -1.640625 0.65625q-0.65625 0.640625 -0.71875 1.71875zm7.8203125 4.953125l0 -8.296875l1.265625 0l0 1.25q0.484375 -0.875 0.890625 -1.15625q0.40625 -0.28125 0.90625 -0.28125q0.703125 0 1.4375 0.453125l-0.484375 1.296875q-0.515625 -0.296875 -1.03125 -0.296875q-0.453125 0 -0.828125 0.28125q-0.359375 0.265625 -0.515625 0.765625q-0.234375 0.75 -0.234375 1.640625l0 4.34375l-1.40625 0zm4.78125 -2.484375l1.390625 -0.21875q0.109375 0.84375 0.640625 1.296875q0.546875 0.4375 1.5 0.4375q0.96875 0 1.4375 -0.390625q0.46875 -0.40625 0.46875 -0.9375q0 -0.46875 -0.40625 -0.75q-0.296875 -0.1875 -1.4375 -0.46875q-1.546875 -0.390625 -2.15625 -0.671875q-0.59375 -0.296875 -0.90625 -0.796875q-0.296875 -0.5 -0.296875 -1.109375q0 -0.5625 0.25 -1.03125q0.25 -0.46875 0.6875 -0.78125q0.328125 -0.25 0.890625 -0.40625q0.578125 -0.171875 1.21875 -0.171875q0.984375 0 1.71875 0.28125q0.734375 0.28125 1.078125 0.765625q0.359375 0.46875 0.5 1.28125l-1.375 0.1875q-0.09375 -0.640625 -0.546875 -1.0q-0.453125 -0.359375 -1.265625 -0.359375q-0.96875 0 -1.390625 0.328125q-0.40625 0.3125 -0.40625 0.734375q0 0.28125 0.171875 0.5q0.171875 0.21875 0.53125 0.375q0.21875 0.078125 1.25 0.359375q1.484375 0.390625 2.078125 0.65625q0.59375 0.25 0.921875 0.734375q0.34375 0.484375 0.34375 1.203125q0 0.703125 -0.421875 1.328125q-0.40625 0.609375 -1.1875 0.953125q-0.765625 0.34375 -1.734375 0.34375q-1.625 0 -2.46875 -0.671875q-0.84375 -0.671875 -1.078125 -2.0z" fill-rule="nonzero"/><defs><radialGradient id="p.3" gradientUnits="userSpaceOnUse" gradientTransform="matrix(13.689450762244482 0.0 0.0 13.689450762244482 0.0 0.0)" spreadMethod="pad" cx="37.54716014009944" cy="1.8986975033314168" fx="37.54716014009944" fy="1.8986975033314168" r="13.689451217651367"><stop offset="0.0" stop-color="#ffffff"/><stop offset="1.0" stop-color="#ffe599"/></radialGradient></defs><path fill="url(#p.3)" d="m514.0 42.366142l0 0c0 9.043118 29.323608 16.374016 65.49603 16.374016c36.172485 0 65.49609 -7.3308983 65.49609 -16.374016l0 101.26772c0 9.043106 -29.323608 16.374008 -65.49609 16.374008c-36.172424 0 -65.49603 -7.330902 -65.49603 -16.374008z" fill-rule="evenodd"/><defs><radialGradient id="p.4" gradientUnits="userSpaceOnUse" gradientTransform="matrix(13.689450762244482 0.0 0.0 13.689450762244482 0.0 0.0)" spreadMethod="pad" cx="37.54716014009944" cy="1.8986975033314168" fx="37.54716014009944" fy="1.8986975033314168" r="13.689451217651367"><stop offset="0.0" stop-color="#ffffff"/><stop offset="1.0" stop-color="#ffe599"/></radialGradient></defs><path fill="url(#p.4)" d="m514.0 42.366142l0 0c0 -9.043121 29.323608 -16.374016 65.49603 -16.374016c36.172485 0 65.49609 7.3308945 65.49609 16.374016l0 0c0 9.043118 -29.323608 16.374016 -65.49609 16.374016c-36.172424 0 -65.49603 -7.3308983 -65.49603 -16.374016z" fill-rule="evenodd"/><path fill="#000000" fill-opacity="0.0" d="m644.9921 42.366142l0 0c0 9.043118 -29.323608 16.374016 -65.49609 16.374016c-36.172424 0 -65.49603 -7.3308983 -65.49603 -16.374016l0 0c0 -9.043121 29.323608 -16.374016 65.49603 -16.374016c36.172485 0 65.49609 7.3308945 65.49609 16.374016l0 101.26772c0 9.043106 -29.323608 16.374008 -65.49609 16.374008c-36.172424 0 -65.49603 -7.330902 -65.49603 -16.374008l0 -101.26772" fill-rule="evenodd"/><path fill="#ffffff" fill-opacity="0.4" d="m514.0 42.366142l0 0c0 -9.043121 29.323608 -16.374016 65.49603 -16.374016c36.172485 0 65.49609 7.3308945 65.49609 16.374016l0 0c0 9.043118 -29.323608 16.374016 -65.49609 16.374016c-36.172424 0 -65.49603 -7.3308983 -65.49603 -16.374016z" fill-rule="evenodd"/><path stroke="#000000" stroke-width="1.0" stroke-linejoin="round" stroke-linecap="butt" d="m644.9921 42.366142l0 0c0 9.043118 -29.323608 16.374016 -65.49609 16.374016c-36.172424 0 -65.49603 -7.3308983 -65.49603 -16.374016l0 0c0 -9.043121 29.323608 -16.374016 65.49603 -16.374016c36.172485 0 65.49609 7.3308945 65.49609 16.374016l0 101.26772c0 9.043106 -29.323608 16.374008 -65.49609 16.374008c-36.172424 0 -65.49603 -7.330902 -65.49603 -16.374008l0 -101.26772" fill-rule="evenodd"/><path fill="#000000" d="m552.75 88.047005l0 -11.453125l5.078125 0q1.53125 0 2.328125 0.3125q0.796875 0.296875 1.265625 1.078125q0.484375 0.78125 0.484375 1.734375q0 1.21875 -0.796875 2.0625q-0.78125 0.828125 -2.4375 1.046875q0.609375 0.296875 0.921875 0.578125q0.65625 0.609375 1.25 1.515625l2.0 3.125l-1.90625 0l-1.515625 -2.390625q-0.671875 -1.03125 -1.109375 -1.578125q-0.421875 -0.546875 -0.765625 -0.765625q-0.328125 -0.21875 -0.6875 -0.296875q-0.25 -0.0625 -0.84375 -0.0625l-1.75 0l0 5.09375l-1.515625 0zm1.515625 -6.40625l3.25 0q1.046875 0 1.625 -0.203125q0.59375 -0.21875 0.890625 -0.6875q0.3125 -0.484375 0.3125 -1.03125q0 -0.8125 -0.59375 -1.328125q-0.59375 -0.53125 -1.859375 -0.53125l-3.625 0l0 3.78125zm15.5078125 3.734375l1.453125 0.171875q-0.34375 1.28125 -1.28125 1.984375q-0.921875 0.703125 -2.359375 0.703125q-1.828125 0 -2.890625 -1.125q-1.0625 -1.125 -1.0625 -3.140625q0 -2.09375 1.078125 -3.25q1.078125 -1.15625 2.796875 -1.15625q1.65625 0 2.703125 1.140625q1.0625 1.125 1.0625 3.171875q0 0.125 0 0.375l-6.1875 0q0.078125 1.375 0.765625 2.109375q0.703125 0.71875 1.734375 0.71875q0.78125 0 1.328125 -0.40625q0.546875 -0.40625 0.859375 -1.296875zm-4.609375 -2.28125l4.625 0q-0.09375 -1.046875 -0.53125 -1.5625q-0.671875 -0.8125 -1.734375 -0.8125q-0.96875 0 -1.640625 0.65625q-0.65625 0.640625 -0.71875 1.71875zm7.8359375 8.140625l0 -11.484375l1.28125 0l0 1.078125q0.453125 -0.640625 1.015625 -0.953125q0.578125 -0.3125 1.390625 -0.3125q1.0625 0 1.875 0.546875q0.8125 0.546875 1.21875 1.546875q0.421875 0.984375 0.421875 2.171875q0 1.28125 -0.46875 2.296875q-0.453125 1.015625 -1.328125 1.5625q-0.859375 0.546875 -1.828125 0.546875q-0.703125 0 -1.265625 -0.296875q-0.546875 -0.296875 -0.90625 -0.75l0 4.046875l-1.40625 0zm1.265625 -7.296875q0 1.609375 0.640625 2.375q0.65625 0.765625 1.578125 0.765625q0.9375 0 1.609375 -0.796875q0.671875 -0.796875 0.671875 -2.453125q0 -1.59375 -0.65625 -2.375q-0.65625 -0.796875 -1.5625 -0.796875q-0.890625 0 -1.59375 0.84375q-0.6875 0.84375 -0.6875 2.4375zm7.1015625 -0.046875q0 -2.296875 1.28125 -3.40625q1.078125 -0.921875 2.609375 -0.921875q1.71875 0 2.796875 1.125q1.09375 1.109375 1.09375 3.09375q0 1.59375 -0.484375 2.515625q-0.484375 0.921875 -1.40625 1.4375q-0.90625 0.5 -2.0 0.5q-1.734375 0 -2.8125 -1.109375q-1.078125 -1.125 -1.078125 -3.234375zm1.453125 0q0 1.59375 0.6875 2.390625q0.703125 0.796875 1.75 0.796875q1.046875 0 1.734375 -0.796875q0.703125 -0.796875 0.703125 -2.4375q0 -1.53125 -0.703125 -2.328125q-0.6875 -0.796875 -1.734375 -0.796875q-1.046875 0 -1.75 0.796875q-0.6875 0.78125 -0.6875 2.375zm7.9609375 4.15625l0 -8.296875l1.265625 0l0 1.25q0.484375 -0.875 0.890625 -1.15625q0.40625 -0.28125 0.90625 -0.28125q0.703125 0 1.4375 0.453125l-0.484375 1.296875q-0.515625 -0.296875 -1.03125 -0.296875q-0.453125 0 -0.828125 0.28125q-0.359375 0.265625 -0.515625 0.765625q-0.234375 0.75 -0.234375 1.640625l0 4.34375l-1.40625 0zm8.40625 -1.265625l0.203125 1.25q-0.59375 0.125 -1.0625 0.125q-0.765625 0 -1.1875 -0.234375q-0.421875 -0.25 -0.59375 -0.640625q-0.171875 -0.40625 -0.171875 -1.671875l0 -4.765625l-1.03125 0l0 -1.09375l1.03125 0l0 -2.0625l1.40625 -0.84375l0 2.90625l1.40625 0l0 1.09375l-1.40625 0l0 4.84375q0 0.609375 0.0625 0.78125q0.078125 0.171875 0.25 0.28125q0.171875 0.09375 0.484375 0.09375q0.234375 0 0.609375 -0.0625zm0.8203125 -1.21875l1.390625 -0.21875q0.109375 0.84375 0.640625 1.296875q0.546875 0.4375 1.5 0.4375q0.96875 0 1.4375 -0.390625q0.46875 -0.40625 0.46875 -0.9375q0 -0.46875 -0.40625 -0.75q-0.296875 -0.1875 -1.4375 -0.46875q-1.546875 -0.390625 -2.15625 -0.671875q-0.59375 -0.296875 -0.90625 -0.796875q-0.296875 -0.5 -0.296875 -1.109375q0 -0.5625 0.25 -1.03125q0.25 -0.46875 0.6875 -0.78125q0.328125 -0.25 0.890625 -0.40625q0.578125 -0.171875 1.21875 -0.171875q0.984375 0 1.71875 0.28125q0.734375 0.28125 1.078125 0.765625q0.359375 0.46875 0.5 1.28125l-1.375 0.1875q-0.09375 -0.640625 -0.546875 -1.0q-0.453125 -0.359375 -1.265625 -0.359375q-0.96875 0 -1.390625 0.328125q-0.40625 0.3125 -0.40625 0.734375q0 0.28125 0.171875 0.5q0.171875 0.21875 0.53125 0.375q0.21875 0.078125 1.25 0.359375q1.484375 0.390625 2.078125 0.65625q0.59375 0.25 0.921875 0.734375q0.34375 0.484375 0.34375 1.203125q0 0.703125 -0.421875 1.328125q-0.40625 0.609375 -1.1875 0.953125q-0.765625 0.34375 -1.734375 0.34375q-1.625 0 -2.46875 -0.671875q-0.84375 -0.671875 -1.078125 -2.0z" fill-rule="nonzero"/><path fill="#000000" fill-opacity="0.0" d="m195.61679 103.99213l46.992126 0l0 32.0l-46.992126 0z" fill-rule="evenodd"/><path stroke="#000000" stroke-width="1.0" stroke-linejoin="round" stroke-linecap="butt" d="m195.61679 103.99213l46.992126 0l0 32.0l-46.992126 0z" fill-rule="evenodd"/><path fill="#000000" fill-opacity="0.0" d="m219.11285 103.99213l0 32.0" fill-rule="evenodd"/><path stroke="#000000" stroke-width="1.0" stroke-linejoin="round" stroke-linecap="butt" d="m219.11285 103.99213l0 32.0" fill-rule="evenodd"/><path fill="#000000" fill-opacity="0.0" d="m195.61679 119.99213l46.992126 0" fill-rule="evenodd"/><path stroke="#000000" stroke-width="1.0" stroke-linejoin="round" stroke-linecap="butt" d="m195.61679 119.99213l46.992126 0" fill-rule="evenodd"/><path fill="#000000" fill-opacity="0.0" d="m583.3688 103.99213l46.992126 0l0 32.0l-46.992126 0z" fill-rule="evenodd"/><path stroke="#000000" stroke-width="1.0" stroke-linejoin="round" stroke-linecap="butt" d="m583.3688 103.99213l46.992126 0l0 32.0l-46.992126 0z" fill-rule="evenodd"/><path fill="#000000" fill-opacity="0.0" d="m606.8648 103.99213l0 32.0" fill-rule="evenodd"/><path stroke="#000000" stroke-width="1.0" stroke-linejoin="round" stroke-linecap="butt" d="m606.8648 103.99213l0 32.0" fill-rule="evenodd"/><path fill="#000000" fill-opacity="0.0" d="m583.3688 119.99213l46.992126 0" fill-rule="evenodd"/><path stroke="#000000" stroke-width="1.0" stroke-linejoin="round" stroke-linecap="butt" d="m583.3688 119.99213l46.992126 0" fill-rule="evenodd"/><path fill="#000000" fill-opacity="0.0" d="m528.6312 103.99213l46.992126 0l0 32.0l-46.992126 0z" fill-rule="evenodd"/><path stroke="#000000" stroke-width="1.0" stroke-linejoin="round" stroke-linecap="butt" d="m528.6312 103.99213l46.992126 0l0 32.0l-46.992126 0z" fill-rule="evenodd"/><path fill="#000000" fill-opacity="0.0" d="m552.1273 103.99213l0 32.0" fill-rule="evenodd"/><path stroke="#000000" stroke-width="1.0" stroke-linejoin="round" stroke-linecap="butt" d="m552.1273 103.99213l0 32.0" fill-rule="evenodd"/><path fill="#000000" fill-opacity="0.0" d="m528.6312 119.99213l46.992126 0" fill-rule="evenodd"/><path stroke="#000000" stroke-width="1.0" stroke-linejoin="round" stroke-linecap="butt" d="m528.6312 119.99213l46.992126 0" fill-rule="evenodd"/><path fill="#000000" fill-opacity="0.0" d="m242.60892 119.99213c71.5011 0 107.25018 0.01574707 143.00217 0.03149414c35.751953 0.01574707 71.506805 0.03149414 143.01361 0.03149414" fill-rule="evenodd"/><path stroke="#000000" stroke-width="1.0" stroke-linejoin="round" stroke-linecap="butt" d="m246.39893 119.99234l43.69098 0.002494812c13.964935 0.0017166138 26.254059 0.004180908 37.426025 0.007133484c22.343903 0.0059051514 40.219177 0.0137786865 58.095154 0.021652222c17.876007 0.007873535 35.752686 0.01574707 58.098724 0.021652222c11.173035 0.0029525757 23.463379 0.00541687 37.429657 0.0071411133l41.48523 0.0023651123" fill-rule="evenodd"/><path fill="#000000" stroke="#000000" stroke-width="1.0" stroke-linecap="butt" d="m246.39883 121.637344l-3.2900085 -1.9073486E-4l1.9836426E-4 -3.290001l3.2899933 1.9073486E-4l-1.8310547E-4 3.290001z" fill-rule="nonzero"/><path fill="#000000" stroke="#000000" stroke-width="1.0" stroke-linecap="butt" d="m522.6246 121.706505l4.538208 -1.6514664l-4.538025 -1.6519928z" fill-rule="evenodd"/></g></svg>